<svg width="1578" height="659" viewBox="0 0 1578 659" fill="none" xmlns="http://www.w3.org/2000/svg">
<rect x="1.08088" y="0.581371" width="314.838" height="657.559" rx="34.2721" fill="black" stroke="#2D2C2D" stroke-width="1.16176"/>
<mask id="path-2-inside-1_555_10486" fill="white">
<path fill-rule="evenodd" clip-rule="evenodd" d="M105.059 14.5226C105.059 10.3521 101.678 6.97119 97.5074 6.97119H37.6764C21.6358 6.97119 8.63232 19.9747 8.63232 36.0153V622.706C8.63232 638.747 21.6358 651.751 37.6765 651.751H279.323C295.364 651.751 308.368 638.747 308.368 622.706V36.0153C308.368 19.9747 295.364 6.97119 279.323 6.97119H235.757C231.587 6.97119 228.206 10.3521 228.206 14.5226C228.206 18.6931 224.825 22.074 220.654 22.074H112.61C108.44 22.074 105.059 18.6931 105.059 14.5226Z"/>
</mask>
<path d="M37.6764 8.13296H97.5074V5.80943H37.6764V8.13296ZM9.79409 622.706V36.0153H7.47056V622.706H9.79409ZM279.323 650.589H37.6765V652.912H279.323V650.589ZM307.206 36.0153V622.706H309.529V36.0153H307.206ZM235.757 8.13296H279.323V5.80943H235.757V8.13296ZM220.654 20.9123H112.61V23.2358H220.654V20.9123ZM112.61 20.9123C109.081 20.9123 106.221 18.0515 106.221 14.5226H103.897C103.897 19.3348 107.798 23.2358 112.61 23.2358V20.9123ZM227.044 14.5226C227.044 18.0515 224.183 20.9123 220.654 20.9123V23.2358C225.467 23.2358 229.368 19.3348 229.368 14.5226H227.044ZM235.757 5.80943C230.945 5.80943 227.044 9.71045 227.044 14.5226H229.368C229.368 10.9937 232.228 8.13296 235.757 8.13296V5.80943ZM309.529 36.0153C309.529 19.3331 296.006 5.80943 279.323 5.80943V8.13296C294.722 8.13296 307.206 20.6163 307.206 36.0153H309.529ZM279.323 652.912C296.006 652.912 309.529 639.389 309.529 622.706H307.206C307.206 638.105 294.723 650.589 279.323 650.589V652.912ZM7.47056 622.706C7.47056 639.389 20.9942 652.912 37.6765 652.912V650.589C22.2775 650.589 9.79409 638.105 9.79409 622.706H7.47056ZM97.5074 8.13296C101.036 8.13296 103.897 10.9937 103.897 14.5226H106.221C106.221 9.71045 102.32 5.80943 97.5074 5.80943V8.13296ZM37.6764 5.80943C20.9942 5.80943 7.47056 19.3331 7.47056 36.0153H9.79409C9.79409 20.6163 22.2774 8.13296 37.6764 8.13296V5.80943Z" fill="#2D2C2D" mask="url(#path-2-inside-1_555_10486)"/>
<circle cx="165.471" cy="10.4563" r="5.22794" stroke="#2D2C2D" stroke-width="1.16176"/>
<rect x="632.081" y="0.581371" width="314.838" height="657.559" rx="34.2721" fill="black" stroke="#34FCB4" stroke-width="1.16176"/>
<mask id="path-6-inside-2_555_10486" fill="white">
<path fill-rule="evenodd" clip-rule="evenodd" d="M736.059 14.5226C736.059 10.3521 732.678 6.97119 728.507 6.97119H668.676C652.636 6.97119 639.632 19.9747 639.632 36.0153V622.706C639.632 638.747 652.636 651.751 668.676 651.751H910.323C926.364 651.751 939.368 638.747 939.368 622.706V36.0153C939.368 19.9747 926.364 6.97119 910.323 6.97119H866.757C862.587 6.97119 859.206 10.3521 859.206 14.5226C859.206 18.6931 855.825 22.074 851.654 22.074H743.61C739.44 22.074 736.059 18.6931 736.059 14.5226Z"/>
</mask>
<path d="M668.676 8.13296H728.507V5.80943H668.676V8.13296ZM640.794 622.706V36.0153H638.471V622.706H640.794ZM910.323 650.589H668.676V652.912H910.323V650.589ZM938.206 36.0153V622.706H940.529V36.0153H938.206ZM866.757 8.13296H910.323V5.80943H866.757V8.13296ZM851.654 20.9123H743.61V23.2358H851.654V20.9123ZM743.61 20.9123C740.081 20.9123 737.221 18.0515 737.221 14.5226H734.897C734.897 19.3348 738.798 23.2358 743.61 23.2358V20.9123ZM858.044 14.5226C858.044 18.0515 855.183 20.9123 851.654 20.9123V23.2358C856.467 23.2358 860.368 19.3348 860.368 14.5226H858.044ZM866.757 5.80943C861.945 5.80943 858.044 9.71045 858.044 14.5226H860.368C860.368 10.9937 863.228 8.13296 866.757 8.13296V5.80943ZM940.529 36.0153C940.529 19.3331 927.006 5.80943 910.323 5.80943V8.13296C925.722 8.13296 938.206 20.6163 938.206 36.0153H940.529ZM910.323 652.912C927.006 652.912 940.529 639.389 940.529 622.706H938.206C938.206 638.105 925.723 650.589 910.323 650.589V652.912ZM638.471 622.706C638.471 639.389 651.994 652.912 668.676 652.912V650.589C653.277 650.589 640.794 638.105 640.794 622.706H638.471ZM728.507 8.13296C732.036 8.13296 734.897 10.9937 734.897 14.5226H737.221C737.221 9.71045 733.32 5.80943 728.507 5.80943V8.13296ZM668.676 5.80943C651.994 5.80943 638.471 19.3331 638.471 36.0153H640.794C640.794 20.6163 653.277 8.13296 668.676 8.13296V5.80943Z" fill="#34FCB4" mask="url(#path-6-inside-2_555_10486)"/>
<circle cx="796.471" cy="10.4563" r="5.22794" stroke="#34FCB4" stroke-width="1.16176"/>
<rect x="1262.08" y="0.581371" width="314.838" height="657.559" rx="34.2721" fill="black" stroke="#2D2C2D" stroke-width="1.16176"/>
<mask id="path-10-inside-3_555_10486" fill="white">
<path fill-rule="evenodd" clip-rule="evenodd" d="M1366.06 14.5226C1366.06 10.3521 1362.68 6.97119 1358.51 6.97119H1298.68C1282.64 6.97119 1269.63 19.9747 1269.63 36.0153V622.706C1269.63 638.747 1282.64 651.751 1298.68 651.751H1540.32C1556.36 651.751 1569.37 638.747 1569.37 622.706V36.0153C1569.37 19.9747 1556.36 6.97119 1540.32 6.97119H1496.76C1492.59 6.97119 1489.21 10.3521 1489.21 14.5226C1489.21 18.6931 1485.82 22.074 1481.65 22.074H1373.61C1369.44 22.074 1366.06 18.6931 1366.06 14.5226Z"/>
</mask>
<path d="M1298.68 8.13296H1358.51V5.80943H1298.68V8.13296ZM1270.79 622.706V36.0153H1268.47V622.706H1270.79ZM1540.32 650.589H1298.68V652.912H1540.32V650.589ZM1568.21 36.0153V622.706H1570.53V36.0153H1568.21ZM1496.76 8.13296H1540.32V5.80943H1496.76V8.13296ZM1481.65 20.9123H1373.61V23.2358H1481.65V20.9123ZM1373.61 20.9123C1370.08 20.9123 1367.22 18.0515 1367.22 14.5226H1364.9C1364.9 19.3348 1368.8 23.2358 1373.61 23.2358V20.9123ZM1488.04 14.5226C1488.04 18.0515 1485.18 20.9123 1481.65 20.9123V23.2358C1486.47 23.2358 1490.37 19.3348 1490.37 14.5226H1488.04ZM1496.76 5.80943C1491.95 5.80943 1488.04 9.71045 1488.04 14.5226H1490.37C1490.37 10.9937 1493.23 8.13296 1496.76 8.13296V5.80943ZM1570.53 36.0153C1570.53 19.3331 1557.01 5.80943 1540.32 5.80943V8.13296C1555.72 8.13296 1568.21 20.6163 1568.21 36.0153H1570.53ZM1540.32 652.912C1557.01 652.912 1570.53 639.389 1570.53 622.706H1568.21C1568.21 638.105 1555.72 650.589 1540.32 650.589V652.912ZM1268.47 622.706C1268.47 639.389 1281.99 652.912 1298.68 652.912V650.589C1283.28 650.589 1270.79 638.105 1270.79 622.706H1268.47ZM1358.51 8.13296C1362.04 8.13296 1364.9 10.9937 1364.9 14.5226H1367.22C1367.22 9.71045 1363.32 5.80943 1358.51 5.80943V8.13296ZM1298.68 5.80943C1281.99 5.80943 1268.47 19.3331 1268.47 36.0153H1270.79C1270.79 20.6163 1283.28 8.13296 1298.68 8.13296V5.80943Z" fill="#2D2C2D" mask="url(#path-10-inside-3_555_10486)"/>
<circle cx="1426.47" cy="10.4563" r="5.22794" stroke="#2D2C2D" stroke-width="1.16176"/>
</svg>
