<svg width="25" height="25" viewBox="0 0 25 25" fill="none" xmlns="http://www.w3.org/2000/svg">
<path d="M7.5 9.08398L11.25 12.084C11.6047 12.368 12.0456 12.5227 12.5 12.5227C12.9544 12.5227 13.3953 12.368 13.75 12.084L17.5 9.08398M21.5 17.084V7.08398C21.5 6.55355 21.2893 6.04484 20.9142 5.66977C20.5391 5.2947 20.0304 5.08398 19.5 5.08398H5.5C4.96957 5.08398 4.46086 5.2947 4.08579 5.66977C3.71071 6.04484 3.5 6.55355 3.5 7.08398V17.084C3.5 17.6144 3.71071 18.1231 4.08579 18.4982C4.46086 18.8733 4.96957 19.084 5.5 19.084H19.5C20.0304 19.084 20.5391 18.8733 20.9142 18.4982C21.2893 18.1231 21.5 17.6144 21.5 17.084Z" stroke="white" stroke-width="2" stroke-linecap="round" stroke-linejoin="round"/>
</svg>
