<svg width="1578" height="659" viewBox="0 0 1578 659" fill="none" xmlns="http://www.w3.org/2000/svg">
<rect x="1.08088" y="0.580882" width="314.838" height="657.559" rx="34.2721" fill="black" stroke="#34FCB4" stroke-width="1.16176"/>
<mask id="path-2-inside-1_555_10485" fill="white">
<path fill-rule="evenodd" clip-rule="evenodd" d="M105.059 14.5221C105.059 10.3516 101.678 6.9707 97.5074 6.9707H37.6764C21.6358 6.9707 8.63232 19.9742 8.63232 36.0148V622.706C8.63232 638.747 21.6358 651.75 37.6765 651.75H279.323C295.364 651.75 308.368 638.747 308.368 622.706V36.0148C308.368 19.9742 295.364 6.9707 279.323 6.9707H235.757C231.587 6.9707 228.206 10.3516 228.206 14.5221V14.5221C228.206 18.6926 224.825 22.0735 220.654 22.0735H112.61C108.44 22.0735 105.059 18.6926 105.059 14.5221V14.5221Z"/>
</mask>
<path d="M37.6764 8.13247H97.5074V5.80894H37.6764V8.13247ZM9.79409 622.706V36.0148H7.47056V622.706H9.79409ZM279.323 650.588H37.6765V652.912H279.323V650.588ZM307.206 36.0148V622.706H309.529V36.0148H307.206ZM235.757 8.13247H279.323V5.80894H235.757V8.13247ZM220.654 20.9118H112.61V23.2353H220.654V20.9118ZM112.61 20.9118C109.081 20.9118 106.221 18.051 106.221 14.5221H103.897C103.897 19.3343 107.798 23.2353 112.61 23.2353V20.9118ZM227.044 14.5221C227.044 18.051 224.183 20.9118 220.654 20.9118V23.2353C225.467 23.2353 229.368 19.3343 229.368 14.5221H227.044ZM235.757 5.80894C230.945 5.80894 227.044 9.70996 227.044 14.5221H229.368C229.368 10.9932 232.228 8.13247 235.757 8.13247V5.80894ZM309.529 36.0148C309.529 19.3326 296.006 5.80894 279.323 5.80894V8.13247C294.722 8.13247 307.206 20.6158 307.206 36.0148H309.529ZM279.323 652.912C296.006 652.912 309.529 639.388 309.529 622.706H307.206C307.206 638.105 294.722 650.588 279.323 650.588V652.912ZM7.47056 622.706C7.47056 639.388 20.9942 652.912 37.6765 652.912V650.588C22.2775 650.588 9.79409 638.105 9.79409 622.706H7.47056ZM97.5074 8.13247C101.036 8.13247 103.897 10.9932 103.897 14.5221H106.221C106.221 9.70996 102.32 5.80894 97.5074 5.80894V8.13247ZM37.6764 5.80894C20.9942 5.80894 7.47056 19.3326 7.47056 36.0148H9.79409C9.79409 20.6158 22.2774 8.13247 37.6764 8.13247V5.80894Z" fill="#34FCB4" mask="url(#path-2-inside-1_555_10485)"/>
<circle cx="165.471" cy="10.4558" r="5.22794" stroke="#34FCB4" stroke-width="1.16176"/>
<rect x="632.081" y="0.580882" width="314.838" height="657.559" rx="34.2721" fill="black" stroke="#2D2C2D" stroke-width="1.16176"/>
<mask id="path-6-inside-2_555_10485" fill="white">
<path fill-rule="evenodd" clip-rule="evenodd" d="M736.059 14.5221C736.059 10.3516 732.678 6.9707 728.507 6.9707H668.676C652.636 6.9707 639.632 19.9742 639.632 36.0148V622.706C639.632 638.747 652.636 651.75 668.676 651.75H910.323C926.364 651.75 939.368 638.747 939.368 622.706V36.0148C939.368 19.9742 926.364 6.9707 910.323 6.9707H866.757C862.587 6.9707 859.206 10.3516 859.206 14.5221V14.5221C859.206 18.6926 855.825 22.0735 851.654 22.0735H743.61C739.44 22.0735 736.059 18.6926 736.059 14.5221V14.5221Z"/>
</mask>
<path d="M668.676 8.13247H728.507V5.80894H668.676V8.13247ZM640.794 622.706V36.0148H638.471V622.706H640.794ZM910.323 650.588H668.676V652.912H910.323V650.588ZM938.206 36.0148V622.706H940.529V36.0148H938.206ZM866.757 8.13247H910.323V5.80894H866.757V8.13247ZM851.654 20.9118H743.61V23.2353H851.654V20.9118ZM743.61 20.9118C740.081 20.9118 737.221 18.051 737.221 14.5221H734.897C734.897 19.3343 738.798 23.2353 743.61 23.2353V20.9118ZM858.044 14.5221C858.044 18.051 855.183 20.9118 851.654 20.9118V23.2353C856.467 23.2353 860.368 19.3343 860.368 14.5221H858.044ZM866.757 5.80894C861.945 5.80894 858.044 9.70996 858.044 14.5221H860.368C860.368 10.9932 863.228 8.13247 866.757 8.13247V5.80894ZM940.529 36.0148C940.529 19.3326 927.006 5.80894 910.323 5.80894V8.13247C925.722 8.13247 938.206 20.6158 938.206 36.0148H940.529ZM910.323 652.912C927.006 652.912 940.529 639.388 940.529 622.706H938.206C938.206 638.105 925.722 650.588 910.323 650.588V652.912ZM638.471 622.706C638.471 639.388 651.994 652.912 668.676 652.912V650.588C653.277 650.588 640.794 638.105 640.794 622.706H638.471ZM728.507 8.13247C732.036 8.13247 734.897 10.9932 734.897 14.5221H737.221C737.221 9.70996 733.32 5.80894 728.507 5.80894V8.13247ZM668.676 5.80894C651.994 5.80894 638.471 19.3326 638.471 36.0148H640.794C640.794 20.6158 653.277 8.13247 668.676 8.13247V5.80894Z" fill="#2D2C2D" mask="url(#path-6-inside-2_555_10485)"/>
<circle cx="796.471" cy="10.4558" r="5.22794" stroke="#2D2C2D" stroke-width="1.16176"/>
<rect x="1262.08" y="0.580882" width="314.838" height="657.559" rx="34.2721" fill="black" stroke="#2D2C2D" stroke-width="1.16176"/>
<mask id="path-10-inside-3_555_10485" fill="white">
<path fill-rule="evenodd" clip-rule="evenodd" d="M1366.06 14.5221C1366.06 10.3516 1362.68 6.9707 1358.51 6.9707H1298.68C1282.64 6.9707 1269.63 19.9742 1269.63 36.0148V622.706C1269.63 638.747 1282.64 651.75 1298.68 651.75H1540.32C1556.36 651.75 1569.37 638.747 1569.37 622.706V36.0148C1569.37 19.9742 1556.36 6.9707 1540.32 6.9707H1496.76C1492.59 6.9707 1489.21 10.3516 1489.21 14.5221V14.5221C1489.21 18.6926 1485.82 22.0735 1481.65 22.0735H1373.61C1369.44 22.0735 1366.06 18.6926 1366.06 14.5221V14.5221Z"/>
</mask>
<path d="M1298.68 8.13247H1358.51V5.80894H1298.68V8.13247ZM1270.79 622.706V36.0148H1268.47V622.706H1270.79ZM1540.32 650.588H1298.68V652.912H1540.32V650.588ZM1568.21 36.0148V622.706H1570.53V36.0148H1568.21ZM1496.76 8.13247H1540.32V5.80894H1496.76V8.13247ZM1481.65 20.9118H1373.61V23.2353H1481.65V20.9118ZM1373.61 20.9118C1370.08 20.9118 1367.22 18.051 1367.22 14.5221H1364.9C1364.9 19.3343 1368.8 23.2353 1373.61 23.2353V20.9118ZM1488.04 14.5221C1488.04 18.051 1485.18 20.9118 1481.65 20.9118V23.2353C1486.47 23.2353 1490.37 19.3343 1490.37 14.5221H1488.04ZM1496.76 5.80894C1491.95 5.80894 1488.04 9.70996 1488.04 14.5221H1490.37C1490.37 10.9932 1493.23 8.13247 1496.76 8.13247V5.80894ZM1570.53 36.0148C1570.53 19.3326 1557.01 5.80894 1540.32 5.80894V8.13247C1555.72 8.13247 1568.21 20.6158 1568.21 36.0148H1570.53ZM1540.32 652.912C1557.01 652.912 1570.53 639.388 1570.53 622.706H1568.21C1568.21 638.105 1555.72 650.588 1540.32 650.588V652.912ZM1268.47 622.706C1268.47 639.388 1281.99 652.912 1298.68 652.912V650.588C1283.28 650.588 1270.79 638.105 1270.79 622.706H1268.47ZM1358.51 8.13247C1362.04 8.13247 1364.9 10.9932 1364.9 14.5221H1367.22C1367.22 9.70996 1363.32 5.80894 1358.51 5.80894V8.13247ZM1298.68 5.80894C1281.99 5.80894 1268.47 19.3326 1268.47 36.0148H1270.79C1270.79 20.6158 1283.28 8.13247 1298.68 8.13247V5.80894Z" fill="#2D2C2D" mask="url(#path-10-inside-3_555_10485)"/>
<circle cx="1426.47" cy="10.4558" r="5.22794" stroke="#2D2C2D" stroke-width="1.16176"/>
</svg>
