<svg width="333" height="198" viewBox="0 0 333 198" fill="none" xmlns="http://www.w3.org/2000/svg">
<path d="M0.999998 34.9119L91.2921 87.1055L150.045 53.1936" stroke="white" stroke-miterlimit="10" stroke-linecap="round" stroke-linejoin="round"/>
<path d="M138.601 46.6345L79.9883 80.5464" stroke="white" stroke-miterlimit="10" stroke-linecap="round" stroke-linejoin="round"/>
<path d="M127.437 40.0753L68.6842 74.1267" stroke="white" stroke-miterlimit="10" stroke-linecap="round" stroke-linejoin="round"/>
<path d="M116.272 33.5164L57.3801 67.5679" stroke="white" stroke-miterlimit="10" stroke-linecap="round" stroke-linejoin="round"/>
<path d="M104.829 27.2365L46.0767 61.0088" stroke="white" stroke-miterlimit="10" stroke-linecap="round" stroke-linejoin="round"/>
<path d="M93.6648 20.6774L34.7726 54.4497" stroke="white" stroke-miterlimit="10" stroke-linecap="round" stroke-linejoin="round"/>
<path d="M82.2212 14.1183L23.6082 47.8906" stroke="white" stroke-miterlimit="10" stroke-linecap="round" stroke-linejoin="round"/>
<path d="M71.0566 7.55935L12.1644 41.4712" stroke="white" stroke-miterlimit="10" stroke-linecap="round" stroke-linejoin="round"/>
<path d="M59.7526 1.00027L1 34.9121" stroke="white" stroke-miterlimit="10" stroke-linecap="round" stroke-linejoin="round"/>
<path d="M10.7688 29.33L100.921 81.384" stroke="white" stroke-miterlimit="10" stroke-linecap="round" stroke-linejoin="round"/>
<path d="M20.5377 23.6082L110.83 75.8018" stroke="white" stroke-miterlimit="10" stroke-linecap="round" stroke-linejoin="round"/>
<path d="M30.3065 18.0258L120.599 70.0798" stroke="white" stroke-miterlimit="10" stroke-linecap="round" stroke-linejoin="round"/>
<path d="M40.2151 12.304L130.507 64.4976" stroke="white" stroke-miterlimit="10" stroke-linecap="round" stroke-linejoin="round"/>
<path d="M49.8442 6.72165L140.136 58.7756" stroke="white" stroke-miterlimit="10" stroke-linecap="round" stroke-linejoin="round"/>
<path d="M59.7528 1.00005L150.045 53.1936" stroke="white" stroke-miterlimit="10" stroke-linecap="round" stroke-linejoin="round"/>
<path d="M182.701 139.857L272.993 191.911L331.746 158.139" stroke="white" stroke-miterlimit="10" stroke-linecap="round" stroke-linejoin="round"/>
<path d="M320.581 151.58L261.689 185.492" stroke="white" stroke-miterlimit="10" stroke-linecap="round" stroke-linejoin="round"/>
<path d="M309.138 145.021L250.525 178.933" stroke="white" stroke-miterlimit="10" stroke-linecap="round" stroke-linejoin="round"/>
<path d="M297.973 138.601L239.081 172.513" stroke="white" stroke-miterlimit="10" stroke-linecap="round" stroke-linejoin="round"/>
<path d="M286.669 132.042L227.917 165.954" stroke="white" stroke-miterlimit="10" stroke-linecap="round" stroke-linejoin="round"/>
<path d="M275.365 125.483L216.473 159.535" stroke="white" stroke-miterlimit="10" stroke-linecap="round" stroke-linejoin="round"/>
<path d="M264.061 118.924L205.308 152.975" stroke="white" stroke-miterlimit="10" stroke-linecap="round" stroke-linejoin="round"/>
<path d="M252.897 112.365L194.144 146.416" stroke="white" stroke-miterlimit="10" stroke-linecap="round" stroke-linejoin="round"/>
<path d="M241.453 106.085L182.701 139.857" stroke="white" stroke-miterlimit="10" stroke-linecap="round" stroke-linejoin="round"/>
<path d="M192.609 134.136L282.901 186.329" stroke="white" stroke-miterlimit="10" stroke-linecap="round" stroke-linejoin="round"/>
<path d="M202.239 128.693L292.531 180.747" stroke="white" stroke-miterlimit="10" stroke-linecap="round" stroke-linejoin="round"/>
<path d="M212.147 122.971L302.439 175.025" stroke="white" stroke-miterlimit="10" stroke-linecap="round" stroke-linejoin="round"/>
<path d="M221.916 117.249L312.208 169.303" stroke="white" stroke-miterlimit="10" stroke-linecap="round" stroke-linejoin="round"/>
<path d="M231.824 111.528L321.976 163.721" stroke="white" stroke-miterlimit="10" stroke-linecap="round" stroke-linejoin="round"/>
<path d="M241.454 106.085L331.746 158.139" stroke="white" stroke-miterlimit="10" stroke-linecap="round" stroke-linejoin="round"/>
<path d="M122.413 73.5686L143.904 85.989" stroke="white" stroke-miterlimit="10" stroke-linecap="round" stroke-linejoin="round"/>
<path d="M172.653 102.596L210.193 124.088" stroke="white" stroke-miterlimit="10" stroke-linecap="round" stroke-linejoin="round"/>
<path d="M126.599 71.1963L148.091 83.6167" stroke="white" stroke-miterlimit="10" stroke-linecap="round" stroke-linejoin="round"/>
<path d="M170.699 96.456L214.24 121.855" stroke="white" stroke-miterlimit="10" stroke-linecap="round" stroke-linejoin="round"/>
<path d="M85.7098 151.72L85.5702 152.557L85.4306 153.394L85.012 154.232L84.5933 154.929L84.0351 155.627L83.6164 156.185L82.9187 156.604L82.0813 157.023L81.244 157.162L80.4067 157.302L79.988 157.302L79.8484 157.302L79.7089 157.302L79.0111 157.302L78.3133 157.162L78.1738 157.162L76.9178 156.464L75.8013 155.627L74.6849 154.79L73.708 153.813L72.8707 152.557L72.1729 151.44L71.6147 150.324L71.196 148.928L70.7774 147.533L70.6378 146.137L70.6378 145.44L70.6378 145.3L70.6378 145.021L70.6378 144.881L70.6378 144.463L70.6378 143.904L70.6378 143.765L70.6378 142.928L71.0565 142.09L71.196 141.253L71.6147 140.555L72.1729 139.997L72.7311 139.439L73.2894 139.02L73.9871 138.741L74.8245 138.322L75.5222 138.183L76.0805 138.183L76.22 138.183L76.3596 138.183L77.1969 138.183L77.8947 138.601L78.0342 138.601L79.4298 139.16L80.5462 139.857L81.5231 140.834L82.5 141.951L83.3373 142.928L84.0351 144.044L84.7329 145.3L85.2911 146.556L85.5702 147.952L85.7098 149.208L85.7098 150.045L85.7098 150.324L85.7098 150.464L85.7098 151.161L85.7098 151.58L85.7098 151.72Z" fill="#34FCB4" stroke="white" stroke-miterlimit="10" stroke-linecap="round" stroke-linejoin="round"/>
<path d="M74.8245 138.043L76.22 137.485L77.7551 137.206L77.8947 137.206L78.0342 137.206L78.3133 137.206L79.7089 137.485L79.8484 137.764L80.2671 137.903L80.6858 138.043L81.9418 138.741L82.7791 139.578L83.756 140.415L84.5933 141.253L85.2911 142.23L85.8493 143.206L86.4075 144.462L86.9657 145.579L87.1053 146.695L87.3844 147.951L87.3844 149.207L87.3844 149.486L87.3844 149.626L87.3844 149.766L87.3844 150.324L87.3844 150.742L87.2448 151.58L87.1053 152.417L86.4075 153.813L85.4306 154.929L84.1746 155.766" stroke="white" stroke-miterlimit="10" stroke-linecap="round" stroke-linejoin="round"/>
<path d="M84.1747 155.767L82.5 156.604" stroke="white" stroke-miterlimit="10" stroke-linecap="round" stroke-linejoin="round"/>
<path d="M75.2435 137.903L73.1501 139.02" stroke="white" stroke-miterlimit="10" stroke-linecap="round" stroke-linejoin="round"/>
<path d="M77.0575 136.927L78.1739 136.369L79.7091 136.09L79.8486 136.09L79.9882 136.09L80.2673 136.09L80.5464 136.09L81.6628 136.369L81.9419 136.369L81.9419 136.508L82.221 136.508L82.9188 136.927L83.8957 137.485L84.8726 138.322L85.7099 139.16L86.5472 139.997L87.245 141.114L87.9428 142.09L88.3615 143.207L88.9197 144.463L89.1988 145.579L89.4779 146.696L89.4779 148.091L89.4779 148.231L89.4779 148.37L89.4779 148.65L89.4779 149.068L89.4779 149.626L89.1988 150.464L89.0592 151.162L88.3615 152.557L87.5241 153.813L86.2681 154.65" stroke="white" stroke-miterlimit="10" stroke-linecap="round" stroke-linejoin="round"/>
<path d="M86.2681 154.65L84.733 155.487" stroke="white" stroke-miterlimit="10" stroke-linecap="round" stroke-linejoin="round"/>
<path d="M77.3369 136.648L75.2435 137.904" stroke="white" stroke-miterlimit="10" stroke-linecap="round" stroke-linejoin="round"/>
<path d="M79.0111 135.671L80.2671 135.252L81.6626 134.833L81.9417 134.833L82.0813 134.833L82.2209 134.833L82.5 134.833L83.8955 135.252L84.0351 135.391L84.1746 135.391L84.8724 135.671L85.8493 136.368L86.9657 137.066L87.8031 137.903L88.6404 138.88L89.4777 139.857L89.8964 140.834L90.5942 142.09L90.8733 143.207L91.2919 144.463L91.4315 145.579L91.5711 146.975L91.5711 147.114L91.5711 147.254L91.5711 147.393L91.4315 147.951L91.4315 148.37L91.4315 149.207L91.1524 149.905L90.5942 151.44L89.6173 152.417L88.2217 153.394" stroke="white" stroke-miterlimit="10" stroke-linecap="round" stroke-linejoin="round"/>
<path d="M88.2217 153.394L86.6866 154.231" stroke="white" stroke-miterlimit="10" stroke-linecap="round" stroke-linejoin="round"/>
<path d="M79.4301 135.531L77.3368 136.647" stroke="white" stroke-miterlimit="10" stroke-linecap="round" stroke-linejoin="round"/>
<path d="M81.1044 134.554L82.3604 133.856L83.7559 133.717L83.8955 133.717L84.035 133.717L84.1746 133.717L84.5932 133.717L85.8492 133.996L86.1283 133.996L86.4075 134.135L86.9657 134.554L87.9426 135.252L88.9194 135.81L89.8963 136.647L90.7337 137.764L91.4314 138.741L92.1292 139.718L92.5479 140.834L92.9665 141.951L93.2456 143.207L93.3852 144.463L93.6643 145.579L93.6643 145.719L93.6643 145.858L93.6643 146.137L93.6643 146.277L93.6643 146.695L93.3852 147.254L93.3852 148.091L93.2456 148.789L92.5479 150.324L91.571 151.301L90.4545 152.278" stroke="white" stroke-miterlimit="10" stroke-linecap="round" stroke-linejoin="round"/>
<path d="M90.4546 152.278L88.7799 153.115" stroke="white" stroke-miterlimit="10" stroke-linecap="round" stroke-linejoin="round"/>
<path d="M81.3839 134.415L79.4302 135.531" stroke="white" stroke-miterlimit="10" stroke-linecap="round" stroke-linejoin="round"/>
<path d="M83.0587 133.298L84.4543 132.74L85.8498 132.461L86.1289 132.461L86.2685 132.461L86.5476 132.461L87.9431 132.879L88.0827 132.879L88.3618 133.019L88.92 133.298L90.0365 133.996L91.1529 134.694L91.9902 135.531L92.8276 136.508L93.3858 137.485L94.0836 138.601L94.6418 139.578L95.0605 140.695L95.3396 142.09L95.6187 143.207L95.6187 144.463L95.6187 144.602L95.6187 144.742L95.6187 145.021L95.6187 145.579L95.6187 146.137L95.4791 146.975L95.3396 147.533L94.6418 148.928L93.6649 150.045L92.4089 150.882" stroke="white" stroke-miterlimit="10" stroke-linecap="round" stroke-linejoin="round"/>
<path d="M92.4089 150.882L90.7343 151.999" stroke="white" stroke-miterlimit="10" stroke-linecap="round" stroke-linejoin="round"/>
<path d="M83.3376 133.159L81.3838 134.415" stroke="white" stroke-miterlimit="10" stroke-linecap="round" stroke-linejoin="round"/>
<path d="M76.2205 137.345L76.0809 135.392L76.0809 134.973L76.0809 134.833L76.0809 134.694L76.0809 134.415L76.0809 133.577L76.2205 132.042L76.2205 131.624L76.36 130.368L76.4996 129.112L76.6392 128.135L77.1974 127.018L77.7556 126.041L78.3138 125.204L79.0116 124.088L79.7094 123.25L80.5467 122.692L81.5236 121.994L82.5005 121.297L83.6169 121.017L84.5938 120.459L85.7102 120.32L86.9662 120.18L87.5244 120.18L87.9431 120.18L88.2222 120.18L88.7804 120.18L89.7573 120.18L91.9902 120.738L92.1298 120.738L93.1066 121.297L94.9209 122.273L96.5955 123.25L98.1306 124.506L99.6657 125.762L100.922 127.158L102.317 128.693L103.434 130.368L104.55 132.042L105.527 133.717L106.364 135.531L107.062 137.345L107.481 139.16L108.039 141.253L108.179 143.207L108.318 145.3L108.318 145.719L108.318 145.858L108.318 146.277L108.318 146.556L108.318 147.393L108.179 148.928L108.179 149.068L108.039 150.882L107.481 152.976L106.643 154.65L105.527 156.325L104.271 157.581L102.875 158.837L101.201 159.814L99.2471 160.512L97.2933 160.791L96.3164 160.93L95.7582 160.93L94.9209 160.93L93.3858 160.791L92.8275 160.651L92.4089 160.512L92.2693 160.512L91.5715 160.093L90.0364 159.255L87.3849 157.441L84.8729 155.488" stroke="white" stroke-miterlimit="10" stroke-linecap="round" stroke-linejoin="round"/>
<path d="M146.556 84.4539L147.812 83.6167L149.347 83.0584L150.882 82.7793L152.418 82.6398L152.697 82.6398L152.836 82.6398L153.115 82.6398L153.394 82.6398L154.092 82.6398L155.627 82.9189L156.883 83.3375L157.302 83.4771L157.86 83.7562L159.116 84.4539L161.21 85.8495L163.442 87.5242L165.257 89.1989L167.071 91.1526L168.606 93.1064L170.002 95.4788L171.118 97.8512L171.955 100.224L172.653 102.875L173.211 105.387L173.351 108.039L173.351 108.178L173.351 108.457L173.351 108.597L173.351 108.876L173.351 109.434L173.211 110.411L173.211 111.528L172.932 113.202L172.514 114.877L171.955 116.412L171.118 117.808L170.141 119.064L169.164 120.32L167.769 121.296L166.513 122.134" stroke="white" stroke-miterlimit="10" stroke-linecap="round" stroke-linejoin="round"/>
<path d="M166.512 122.134L162.884 124.088" stroke="white" stroke-miterlimit="10" stroke-linecap="round" stroke-linejoin="round"/>
<path d="M147.393 83.8956L143.067 86.4076L82.5 121.296" stroke="white" stroke-miterlimit="10" stroke-linecap="round" stroke-linejoin="round"/>
<path d="M162.884 124.088L101.619 159.535" stroke="white" stroke-miterlimit="10" stroke-linecap="round" stroke-linejoin="round"/>
<path d="M139.439 88.5011L140.834 87.8033L142.23 87.1055L143.625 86.8264L145.3 86.6868L145.719 86.6868L145.858 86.6868L146.417 86.6868L146.975 86.8264L148.37 86.966L149.905 87.5242L150.185 87.6637L150.743 87.8033L151.859 88.5011L154.232 90.0361L156.465 91.4317L158.279 93.3855L160.093 95.1997L161.628 97.293L162.884 99.5259L164.14 101.898L164.977 104.41L165.675 106.922L165.954 109.574L166.094 112.225L166.094 112.365L166.094 112.644L166.094 112.784L166.094 112.923L166.094 113.621L166.094 114.598L165.954 115.575L165.815 117.249L165.396 118.924L164.838 120.459L164.14 121.994L163.163 123.111L161.907 124.367L160.791 125.344L159.395 126.181" stroke="white" stroke-miterlimit="10" stroke-linecap="round" stroke-linejoin="round"/>
<path d="M159.395 126.181L155.906 128.135" stroke="white" stroke-miterlimit="10" stroke-linecap="round" stroke-linejoin="round"/>
<path d="M140.137 87.9427L135.81 90.5942" stroke="white" stroke-miterlimit="10" stroke-linecap="round" stroke-linejoin="round"/>
<path d="M88.9197 117.807L90.0361 116.97L91.5712 116.412L93.1063 116.133L94.6414 115.993L95.0601 115.993L95.3392 115.993L95.6183 115.993L96.4557 115.993L97.8512 116.272L99.1072 116.551L99.2468 116.551L99.5259 116.831L100.084 117.11L101.34 117.807L103.713 119.063L105.666 120.738L107.62 122.413L109.295 124.506L110.83 126.46L112.225 128.832L113.342 131.205L114.319 133.577L115.016 136.229L115.435 138.741L115.575 141.392L115.575 141.532L115.575 141.671L115.575 141.95L115.575 142.23L115.575 142.788L115.575 143.765L115.435 144.881L115.156 146.556L114.877 148.23L114.179 149.766L113.342 151.161L112.504 152.417L111.388 153.673L109.992 154.65L108.737 155.487" stroke="white" stroke-miterlimit="10" stroke-linecap="round" stroke-linejoin="round"/>
<path d="M108.737 155.488L105.388 157.441" stroke="white" stroke-miterlimit="10" stroke-linecap="round" stroke-linejoin="round"/>
<path d="M89.6172 117.249L85.291 119.761" stroke="white" stroke-miterlimit="10" stroke-linecap="round" stroke-linejoin="round"/>
<path d="M164.14 121.855L113.481 151.161" stroke="white" stroke-miterlimit="10" stroke-linecap="round" stroke-linejoin="round"/>
<path d="M165.954 115.575L115.435 144.881" stroke="white" stroke-miterlimit="10" stroke-linecap="round" stroke-linejoin="round"/>
<path d="M165.396 106.364L114.877 135.671" stroke="white" stroke-miterlimit="10" stroke-linecap="round" stroke-linejoin="round"/>
<path d="M161.209 96.8744L110.69 126.181" stroke="white" stroke-miterlimit="10" stroke-linecap="round" stroke-linejoin="round"/>
<path d="M152.417 88.7803L101.759 117.947" stroke="white" stroke-miterlimit="10" stroke-linecap="round" stroke-linejoin="round"/>
<path d="M145.3 86.6869L94.7812 115.993" stroke="white" stroke-miterlimit="10" stroke-linecap="round" stroke-linejoin="round"/>
<path d="M78.7325 148.789L78.5929 149.487L78.0347 149.766L77.7556 149.766L77.4765 149.766L77.3369 149.766L76.9183 149.626L76.4996 149.068L76.36 148.789L76.2205 148.231L76.0809 147.812L76.0809 147.533L76.0809 147.393L76.2205 146.975L76.6392 146.417L76.9183 146.417L77.0578 146.417L77.1974 146.417L77.3369 146.417L77.8952 146.696L78.1743 147.114L78.3138 147.393L78.5929 147.952L78.7325 148.37L78.7325 148.649L78.7325 148.789Z" stroke="white" stroke-miterlimit="10" stroke-linecap="round" stroke-linejoin="round"/>
<path d="M76.9177 146.416L77.1968 146.277L77.3364 146.277L77.755 146.277L78.3133 146.696L78.8715 147.533L79.011 148.37L79.011 148.649L78.8715 149.068L78.3133 149.626" stroke="white" stroke-miterlimit="10" stroke-linecap="round" stroke-linejoin="round"/>
<path d="M78.3133 149.627L78.1743 149.766" stroke="white" stroke-miterlimit="10" stroke-linecap="round" stroke-linejoin="round"/>
<path d="M76.9181 146.417L76.4994 146.556" stroke="white" stroke-miterlimit="10" stroke-linecap="round" stroke-linejoin="round"/>
<path d="M77.1971 146.277L77.7554 146.137L78.0345 146.137L78.7323 146.556L79.1509 147.254L79.43 148.091L79.43 148.37L79.1509 148.928L78.8718 149.208" stroke="white" stroke-miterlimit="10" stroke-linecap="round" stroke-linejoin="round"/>
<path d="M77.1968 146.137L76.9177 146.416" stroke="white" stroke-miterlimit="10" stroke-linecap="round" stroke-linejoin="round"/>
<path d="M77.4766 145.858L78.0348 145.719L78.1743 145.719L78.3139 145.858L79.0117 146.417L79.5699 147.114L79.7095 147.952L79.7095 148.091L79.7095 148.231L79.5699 148.789L79.1512 149.068" stroke="white" stroke-miterlimit="10" stroke-linecap="round" stroke-linejoin="round"/>
<path d="M77.4762 145.858L77.1971 146.137" stroke="white" stroke-miterlimit="10" stroke-linecap="round" stroke-linejoin="round"/>
<path d="M78.3134 149.626L79.1507 149.068" stroke="white" stroke-miterlimit="10" stroke-linecap="round" stroke-linejoin="round"/>
<path d="M77.3369 147.951L27.2367 176.7" stroke="white" stroke-miterlimit="10" stroke-linecap="round" stroke-linejoin="round"/>
<path d="M187.725 111.109L172.653 102.596" stroke="white" stroke-miterlimit="10" stroke-linecap="round" stroke-linejoin="round"/>
<path d="M182.561 61.0085L164.419 71.3356L183.678 82.5L201.68 72.0334L182.561 61.0085Z" fill="#34FCB4" stroke="white" stroke-miterlimit="10" stroke-linecap="round" stroke-linejoin="round"/>
<path d="M183.677 82.5002L187.724 93.6646" stroke="white" stroke-miterlimit="10" stroke-linecap="round" stroke-linejoin="round"/>
<path d="M201.68 72.0335L205.588 83.3375L187.725 93.6646" stroke="white" stroke-miterlimit="10" stroke-linecap="round" stroke-linejoin="round"/>
<path d="M164.419 71.336L158.418 76.7786L158.418 84.175" stroke="white" stroke-miterlimit="10" stroke-linecap="round" stroke-linejoin="round"/>
<circle cx="193.446" cy="90.3158" r="0.0833622" transform="rotate(-90 193.446 90.3158)" fill="black"/>
<path d="M187.725 106.364L187.725 93.6647" stroke="white" stroke-miterlimit="10" stroke-linecap="round" stroke-linejoin="round"/>
<path d="M191.772 108.737L205.588 100.642L205.588 83.3376" stroke="white" stroke-miterlimit="10" stroke-linecap="round" stroke-linejoin="round"/>
<path d="M196.796 105.945L196.796 88.5009" stroke="white" stroke-miterlimit="10" stroke-linecap="round" stroke-linejoin="round"/>
<path d="M201.261 103.433L201.261 85.8494" stroke="white" stroke-miterlimit="10" stroke-linecap="round" stroke-linejoin="round"/>
<path d="M192.19 108.597L192.19 91.0132" stroke="white" stroke-miterlimit="10" stroke-linecap="round" stroke-linejoin="round"/>
<path d="M185.771 88.0823L203.634 77.7552" stroke="white" stroke-miterlimit="10" stroke-linecap="round" stroke-linejoin="round"/>
<path d="M159.814 84.7332L159.814 84.1749" stroke="white" stroke-miterlimit="10" stroke-linecap="round" stroke-linejoin="round"/>
<path d="M161.21 81.6629C160.372 82.2212 159.814 83.0585 159.814 84.0354" stroke="white" stroke-miterlimit="10" stroke-linecap="round" stroke-linejoin="round"/>
<path d="M161.07 81.8022L166.792 78.4529" stroke="white" stroke-miterlimit="10" stroke-linecap="round" stroke-linejoin="round"/>
<path d="M162.326 86.4077L162.326 85.0122" stroke="white" stroke-miterlimit="10" stroke-linecap="round" stroke-linejoin="round"/>
<path d="M163.163 83.3377C162.605 83.6168 162.326 84.175 162.326 84.8728" stroke="white" stroke-miterlimit="10" stroke-linecap="round" stroke-linejoin="round"/>
<path d="M163.303 83.4773L167.769 80.8258" stroke="white" stroke-miterlimit="10" stroke-linecap="round" stroke-linejoin="round"/>
<path d="M167.768 80.8254C167.908 80.6859 168.187 80.4067 168.187 80.2672" stroke="white" stroke-miterlimit="10" stroke-linecap="round" stroke-linejoin="round"/>
<path d="M168.187 80.1277C168.466 79.4299 168.187 78.7321 167.629 78.453" stroke="white" stroke-miterlimit="10" stroke-linecap="round" stroke-linejoin="round"/>
<path d="M167.489 78.3135C167.21 78.1739 166.791 78.1739 166.512 78.3135" stroke="white" stroke-miterlimit="10" stroke-linecap="round" stroke-linejoin="round"/>
<path d="M166.792 81.2444C167.21 81.5235 167.629 81.5235 168.048 81.3839C168.466 81.2444 168.746 80.8257 168.885 80.407" stroke="white" stroke-miterlimit="10" stroke-linecap="round" stroke-linejoin="round"/>
<path d="M169.024 80.4067C169.443 79.4299 169.024 78.1739 168.048 77.6156" stroke="white" stroke-miterlimit="10" stroke-linecap="round" stroke-linejoin="round"/>
<path d="M167.908 77.6157C167.35 77.3366 166.792 77.3366 166.233 77.6157C165.675 77.8948 165.396 78.453 165.396 79.0112" stroke="white" stroke-miterlimit="10" stroke-linecap="round" stroke-linejoin="round"/>
<path d="M165.815 89.6174L165.815 87.6637" stroke="white" stroke-miterlimit="10" stroke-linecap="round" stroke-linejoin="round"/>
<path d="M167.07 85.1517C166.233 85.7099 165.675 86.5473 165.675 87.5242" stroke="white" stroke-miterlimit="10" stroke-linecap="round" stroke-linejoin="round"/>
<path d="M167.07 85.2913L172.792 81.9419" stroke="white" stroke-miterlimit="10" stroke-linecap="round" stroke-linejoin="round"/>
<path d="M168.326 92.8274L168.326 88.5012" stroke="white" stroke-miterlimit="10" stroke-linecap="round" stroke-linejoin="round"/>
<path d="M169.164 86.8265C168.605 87.1056 168.326 87.6638 168.326 88.3616" stroke="white" stroke-miterlimit="10" stroke-linecap="round" stroke-linejoin="round"/>
<path d="M169.303 86.9661L173.769 84.3145" stroke="white" stroke-miterlimit="10" stroke-linecap="round" stroke-linejoin="round"/>
<path d="M173.769 84.175C173.909 84.0355 174.188 83.7564 174.188 83.6168" stroke="white" stroke-miterlimit="10" stroke-linecap="round" stroke-linejoin="round"/>
<path d="M174.188 83.4773C174.467 82.7795 174.188 82.0817 173.63 81.8026" stroke="white" stroke-miterlimit="10" stroke-linecap="round" stroke-linejoin="round"/>
<path d="M173.49 81.9419C173.211 81.8023 172.792 81.8023 172.513 81.9419" stroke="white" stroke-miterlimit="10" stroke-linecap="round" stroke-linejoin="round"/>
<path d="M172.792 84.7331C173.211 85.0122 173.63 85.0122 174.048 84.8727C174.467 84.7331 174.746 84.3145 174.886 83.8958" stroke="white" stroke-miterlimit="10" stroke-linecap="round" stroke-linejoin="round"/>
<path d="M175.025 83.7563C175.444 82.7795 175.025 81.5235 174.048 80.9652" stroke="white" stroke-miterlimit="10" stroke-linecap="round" stroke-linejoin="round"/>
<path d="M173.909 81.1045C173.351 80.8253 172.792 80.8253 172.234 81.1045C171.676 81.3836 171.397 81.9418 171.397 82.5" stroke="white" stroke-miterlimit="10" stroke-linecap="round" stroke-linejoin="round"/>
<path d="M171.815 97.293L171.815 91.013" stroke="white" stroke-miterlimit="10" stroke-linecap="round" stroke-linejoin="round"/>
<path d="M173.072 88.5009C172.234 89.0591 171.676 89.8964 171.676 90.8733" stroke="white" stroke-miterlimit="10" stroke-linecap="round" stroke-linejoin="round"/>
<path d="M173.211 88.6406L178.793 85.4309" stroke="white" stroke-miterlimit="10" stroke-linecap="round" stroke-linejoin="round"/>
<path d="M174.328 98.8284L174.328 91.9902" stroke="white" stroke-miterlimit="10" stroke-linecap="round" stroke-linejoin="round"/>
<path d="M175.165 90.3155C174.607 90.5946 174.328 91.1528 174.328 91.8506" stroke="white" stroke-miterlimit="10" stroke-linecap="round" stroke-linejoin="round"/>
<path d="M175.304 90.4551L179.909 87.8035" stroke="white" stroke-miterlimit="10" stroke-linecap="round" stroke-linejoin="round"/>
<path d="M179.77 87.6638C179.91 87.5243 180.189 87.2452 180.189 87.1056" stroke="white" stroke-miterlimit="10" stroke-linecap="round" stroke-linejoin="round"/>
<path d="M180.328 87.1055C180.607 86.4077 180.328 85.7099 179.77 85.4308" stroke="white" stroke-miterlimit="10" stroke-linecap="round" stroke-linejoin="round"/>
<path d="M179.491 85.4309C179.212 85.2914 178.793 85.2914 178.514 85.4309" stroke="white" stroke-miterlimit="10" stroke-linecap="round" stroke-linejoin="round"/>
<path d="M178.793 88.2221C179.212 88.5013 179.63 88.5013 180.049 88.3617C180.467 88.2222 180.747 87.8035 180.886 87.3848" stroke="white" stroke-miterlimit="10" stroke-linecap="round" stroke-linejoin="round"/>
<path d="M181.026 87.3845C181.445 86.4076 181.026 85.1516 180.049 84.5934" stroke="white" stroke-miterlimit="10" stroke-linecap="round" stroke-linejoin="round"/>
<path d="M179.909 84.7331C179.351 84.454 178.793 84.454 178.235 84.7331C177.676 85.0122 177.397 85.5704 177.397 86.1287" stroke="white" stroke-miterlimit="10" stroke-linecap="round" stroke-linejoin="round"/>
<path d="M195.54 68.5448L197.075 68.4052L197.493 68.4052L197.912 68.5448L198.61 68.6843L198.889 68.6843L199.168 68.6843L199.308 68.8239L200.284 69.3821L201.261 70.0799L202.238 70.9172L203.076 71.615L203.773 72.5919L204.611 73.5688L205.169 74.5457L205.588 75.5225L206.146 76.7785L206.285 77.7554L206.704 79.151L206.704 80.2674L206.704 80.4069L206.704 80.5465L206.704 81.6629L206.704 81.9421L206.425 82.7794L206.285 83.4772L205.588 84.7332" stroke="white" stroke-miterlimit="10" stroke-linecap="round" stroke-linejoin="round"/>
<path d="M195.819 68.2657L197.075 67.7075L198.61 67.4284L198.75 67.4284L198.889 67.4284L199.308 67.568L200.564 67.8471L200.843 67.8471L201.122 67.9866L201.68 68.4053L202.797 68.824L203.634 69.6613L204.611 70.4986L205.448 71.3359L206.146 72.4524L206.844 73.4293L207.262 74.5457L207.681 75.8017L207.96 76.9181L208.379 78.0346L208.379 79.4301L208.379 79.5697L208.379 79.7092L208.379 80.1279L208.379 80.5466L208.1 81.1048L207.96 82.5003L207.541 83.6168L206.704 84.7332L205.588 85.5706" stroke="white" stroke-miterlimit="10" stroke-linecap="round" stroke-linejoin="round"/>
<path d="M196.098 67.9865L195.401 68.5447" stroke="white" stroke-miterlimit="10" stroke-linecap="round" stroke-linejoin="round"/>
<path d="M197.772 67.0097L199.168 66.591L200.564 66.1724L200.843 66.1724L200.982 66.1724L201.122 66.1724L201.401 66.3119L202.657 66.591L202.796 66.7306L203.076 66.8701L203.634 67.0097L204.75 67.7074L205.867 68.5448L206.704 69.3821L207.541 70.2194L208.1 71.1963L208.797 72.1732L209.356 73.4292L209.774 74.5457L210.193 75.8016L210.332 76.9181L210.332 78.3136L210.332 78.4532L210.332 78.5927L210.332 78.7323L210.332 79.2905L210.332 79.7092L210.193 80.5465L210.053 81.3838L209.356 82.7794L208.379 83.8958L207.123 84.7332" stroke="white" stroke-miterlimit="10" stroke-linecap="round" stroke-linejoin="round"/>
<path d="M207.123 84.7332L205.448 85.8496" stroke="white" stroke-miterlimit="10" stroke-linecap="round" stroke-linejoin="round"/>
<path d="M198.331 66.8701L196.098 67.9866" stroke="white" stroke-miterlimit="10" stroke-linecap="round" stroke-linejoin="round"/>
<path d="M200.005 65.8932L201.122 65.335L202.657 65.0559L202.797 65.0559L202.936 65.0559L203.076 65.0559L203.494 65.1954L204.75 65.335L205.029 65.4746L205.169 65.7536L205.867 65.8932L206.844 66.591L207.821 67.4283L208.658 68.2657L209.495 69.1029L210.333 70.0798L210.891 71.0568L211.309 72.1732L211.868 73.4292L212.147 74.5456L212.286 75.8016L212.286 77.0576L212.286 77.1972L212.286 77.4762L212.286 77.6158L212.286 78.0345L212.286 78.5927L212.286 79.43L212.007 80.2673L211.449 81.6629L210.472 82.7794L209.216 83.6167" stroke="white" stroke-miterlimit="10" stroke-linecap="round" stroke-linejoin="round"/>
<path d="M209.216 83.6168L207.681 84.4541" stroke="white" stroke-miterlimit="10" stroke-linecap="round" stroke-linejoin="round"/>
<path d="M200.284 65.7537L198.331 66.8701" stroke="white" stroke-miterlimit="10" stroke-linecap="round" stroke-linejoin="round"/>
<path d="M201.959 64.637L203.355 64.2183L204.611 63.7996L204.75 63.7996L205.029 63.7996L205.169 63.7996L205.448 63.7996L206.844 64.2183L206.983 64.3579L207.262 64.4974L207.82 64.637L208.797 65.3348L209.774 66.1721L210.891 67.0094L211.449 67.8467L212.286 68.8236L212.984 69.9401L213.542 71.0565L213.821 72.1729L214.24 73.4289L214.38 74.5454L214.519 75.9409L214.519 76.0805L214.519 76.22L214.519 76.3596L214.519 76.9178L214.38 77.476L214.38 78.3134L214.24 79.1507L213.542 80.4067L212.565 81.6627L211.309 82.5" stroke="white" stroke-miterlimit="10" stroke-linecap="round" stroke-linejoin="round"/>
<path d="M211.309 82.5003L209.635 83.3376" stroke="white" stroke-miterlimit="10" stroke-linecap="round" stroke-linejoin="round"/>
<path d="M202.239 64.4974L200.285 65.7534" stroke="white" stroke-miterlimit="10" stroke-linecap="round" stroke-linejoin="round"/>
<path d="M203.913 63.5206L205.308 62.9624L206.843 62.6833L206.983 62.6833L207.123 62.6833L207.541 62.6833L208.797 62.9624L208.937 63.2416L209.355 63.2416L209.774 63.5206L211.03 64.2184L211.867 65.0558L212.844 65.8931L213.682 66.7304L214.379 67.7073L215.077 68.6842L215.496 69.9402L216.054 71.0566L216.194 72.1731L216.473 73.4291L216.473 74.685L216.473 74.9642L216.473 75.1037L216.473 75.2433L216.473 75.8015L216.473 76.2202L216.333 77.0575L216.194 77.7553L215.496 79.2904L214.519 80.4068L213.403 81.2441" stroke="white" stroke-miterlimit="10" stroke-linecap="round" stroke-linejoin="round"/>
<path d="M213.403 81.2444L211.728 82.0818" stroke="white" stroke-miterlimit="10" stroke-linecap="round" stroke-linejoin="round"/>
<path d="M204.332 63.3811L202.239 64.4976" stroke="white" stroke-miterlimit="10" stroke-linecap="round" stroke-linejoin="round"/>
<path d="M212.147 65.1952L212.287 65.1952L212.705 65.3348L212.845 65.3348L212.984 65.3348L213.124 65.4744L213.682 65.893L214.659 66.7304L215.496 67.5677L216.055 68.6841L216.334 69.9401L216.473 71.0566L216.473 71.7543L216.473 71.8939L216.334 72.7312" stroke="white" stroke-miterlimit="10" stroke-linecap="round" stroke-linejoin="round"/>
<path d="M211.728 64.637L212.286 64.4974L212.705 64.4974L212.844 64.4974L213.124 64.4974L213.821 64.637L213.961 64.9161L215.077 65.4743L216.054 66.3116L216.752 67.149L217.171 68.405L217.589 69.5214L217.589 70.2192L217.589 70.3588L217.589 70.4983L217.589 71.0565L217.589 71.3356L217.589 71.8938L217.171 72.5916L216.892 73.0103L216.473 73.429" stroke="white" stroke-miterlimit="10" stroke-linecap="round" stroke-linejoin="round"/>
<path d="M212.286 64.358L212.984 64.079L213.682 63.7998L214.24 64.079L214.798 64.2185L215.077 64.2185L215.356 64.358L215.915 64.6372L216.752 65.4745L217.589 66.3118L218.008 67.5678L218.566 68.6843L218.566 69.9402L218.566 70.4985L218.566 70.7776L218.427 71.6149L218.008 72.1731L217.729 72.7313L217.031 73.2896" stroke="white" stroke-miterlimit="10" stroke-linecap="round" stroke-linejoin="round"/>
<path d="M217.031 73.2895L216.473 73.5686" stroke="white" stroke-miterlimit="10" stroke-linecap="round" stroke-linejoin="round"/>
<path d="M212.565 64.2188L211.728 64.6375" stroke="white" stroke-miterlimit="10" stroke-linecap="round" stroke-linejoin="round"/>
<path d="M213.403 63.6603L213.961 63.5207L214.659 63.3812L215.217 63.3812L215.915 63.5207L216.054 63.6603L216.334 63.6603L216.892 64.079L217.869 64.9163L218.566 65.8932L219.264 66.8701L219.543 67.9865L219.683 69.382L219.683 69.9403L219.543 70.0798L219.543 70.9172L219.264 71.6149L218.706 72.1731L218.008 72.5918" stroke="white" stroke-miterlimit="10" stroke-linecap="round" stroke-linejoin="round"/>
<path d="M218.008 72.5921L217.171 73.0107" stroke="white" stroke-miterlimit="10" stroke-linecap="round" stroke-linejoin="round"/>
<path d="M213.542 63.6603L212.565 64.2185" stroke="white" stroke-miterlimit="10" stroke-linecap="round" stroke-linejoin="round"/>
<path d="M214.379 63.2415L215.077 62.8228L215.914 62.6833L216.194 62.6833L216.891 62.8228L216.891 62.9624L217.031 62.9624L217.31 63.2415L217.868 63.5206L218.845 64.3579L219.543 65.1953L220.241 66.3117L220.52 67.5677L220.659 68.6841L220.659 69.2423L220.52 69.5215L220.52 70.3588L220.241 71.0566L219.682 71.6148L218.985 72.0334" stroke="white" stroke-miterlimit="10" stroke-linecap="round" stroke-linejoin="round"/>
<path d="M218.985 72.0335L218.148 72.4521" stroke="white" stroke-miterlimit="10" stroke-linecap="round" stroke-linejoin="round"/>
<path d="M214.519 62.9624L213.543 63.6602" stroke="white" stroke-miterlimit="10" stroke-linecap="round" stroke-linejoin="round"/>
<path d="M241.593 52.9144L219.823 65.4744" stroke="white" stroke-miterlimit="10" stroke-linecap="round" stroke-linejoin="round"/>
<path d="M0.999998 34.9121L0.999998 39.3779L91.2921 91.4319L150.045 57.6596L150.045 53.1938" stroke="white" stroke-miterlimit="10" stroke-linecap="round" stroke-linejoin="round"/>
<path d="M91.2924 87.1057L91.2924 91.4319" stroke="white" stroke-miterlimit="10" stroke-linecap="round" stroke-linejoin="round"/>
<path d="M182.701 139.858L182.701 144.463L272.993 196.517L331.746 162.465L331.746 158.139" stroke="white" stroke-miterlimit="10" stroke-linecap="round" stroke-linejoin="round"/>
<path d="M272.992 191.912L272.992 196.517" stroke="white" stroke-miterlimit="10" stroke-linecap="round" stroke-linejoin="round"/>
</svg>
