<svg width="48" height="48" viewBox="0 0 48 48" fill="none" xmlns="http://www.w3.org/2000/svg">
<g filter="url(#filter0_d_898_3653)">
<path fill-rule="evenodd" clip-rule="evenodd" d="M23.7869 0.191895C12.9061 0.191895 4.08545 9.01255 4.08545 19.8934C4.08545 30.7742 12.9061 39.5949 23.7869 39.5949V30.6399C23.7869 30.6399 23.7869 30.6399 23.7869 30.6399C17.8519 30.6399 13.0406 25.8286 13.0406 19.8936C13.0406 13.9586 17.8519 9.14735 23.7869 9.14735C23.7869 9.14735 23.7869 9.14735 23.7869 9.14735V0.191895ZM34.5332 36.4087C39.9246 32.8934 43.4884 26.8096 43.4884 19.8934C43.4884 12.9772 39.9246 6.89332 34.5332 3.37804V36.4087Z" fill="#34FCB4"/>
<path d="M23.7869 30.64C25.1982 30.64 26.5956 30.362 27.8994 29.822C29.2032 29.2819 30.3878 28.4904 31.3857 27.4925C32.3836 26.4946 33.1751 25.3099 33.7152 24.0061C34.2552 22.7024 34.5332 21.3049 34.5332 19.8937C34.5332 18.4825 34.2552 17.0851 33.7152 15.7813C33.1751 14.4775 32.3836 13.2929 31.3857 12.295C30.3878 11.2971 29.2032 10.5055 27.8994 9.96547C26.5956 9.42542 25.1982 9.14746 23.7869 9.14746L23.7869 19.8937L23.7869 30.64Z" fill="#34FCB4"/>
</g>
<defs>
<filter id="filter0_d_898_3653" x="0.0854492" y="0.191895" width="47.4031" height="47.4028" filterUnits="userSpaceOnUse" color-interpolation-filters="sRGB">
<feFlood flood-opacity="0" result="BackgroundImageFix"/>
<feColorMatrix in="SourceAlpha" type="matrix" values="0 0 0 0 0 0 0 0 0 0 0 0 0 0 0 0 0 0 127 0" result="hardAlpha"/>
<feOffset dy="4"/>
<feGaussianBlur stdDeviation="2"/>
<feComposite in2="hardAlpha" operator="out"/>
<feColorMatrix type="matrix" values="0 0 0 0 0 0 0 0 0 0 0 0 0 0 0 0 0 0 0.25 0"/>
<feBlend mode="normal" in2="BackgroundImageFix" result="effect1_dropShadow_898_3653"/>
<feBlend mode="normal" in="SourceGraphic" in2="effect1_dropShadow_898_3653" result="shape"/>
</filter>
</defs>
</svg>
