<svg width="44" height="34" viewBox="0 0 44 34" fill="none" xmlns="http://www.w3.org/2000/svg">
<g clip-path="url(#clip0_660_34)">
<path d="M7.99901 33.8309V31.5805C7.99901 30.7177 7.47067 30.1553 6.56506 30.1553C6.11234 30.1553 5.62181 30.3053 5.28218 30.7929C5.01818 30.3803 4.64092 30.1553 4.07493 30.1553C3.6975 30.1553 3.3204 30.2677 3.01842 30.6803V30.2303H2.22607V33.8309H3.01842V31.843C3.01842 31.2055 3.35804 30.9053 3.88639 30.9053C4.41439 30.9053 4.67873 31.2429 4.67873 31.843V33.8309H5.47107V31.843C5.47107 31.2055 5.84817 30.9053 6.3387 30.9053C6.86704 30.9053 7.13104 31.2429 7.13104 31.843V33.8309H7.99901ZM19.7331 30.2303H18.4504V29.1426H17.658V30.2303H16.9412V30.9427H17.6579V32.5932C17.6579 33.4184 17.9975 33.9059 18.9031 33.9059C19.2427 33.9059 19.6198 33.7934 19.8842 33.6434L19.6576 32.9682C19.4313 33.1182 19.1673 33.1558 18.9786 33.1558C18.6013 33.1558 18.4504 32.9308 18.4504 32.5556V30.9427H19.7331V30.2303ZM26.4493 30.1551C25.9966 30.1551 25.6947 30.3803 25.506 30.6803V30.2303H24.7137V33.8309H25.506V31.8055C25.506 31.2055 25.77 30.8679 26.2606 30.8679C26.4115 30.8679 26.6002 30.9055 26.7511 30.9429L26.9774 30.1929C26.8265 30.1553 26.6002 30.1553 26.4493 30.1553M16.2997 30.5305C15.9223 30.2679 15.3941 30.1554 14.8281 30.1554C13.9227 30.1554 13.3191 30.6055 13.3191 31.3181C13.3191 31.9183 13.7718 32.2558 14.5641 32.3683L14.9414 32.4059C15.3565 32.4808 15.5828 32.5934 15.5828 32.781C15.5828 33.0434 15.281 33.231 14.7527 33.231C14.2243 33.231 13.8094 33.0434 13.5452 32.856L13.168 33.456C13.5831 33.756 14.149 33.906 14.7149 33.906C15.7714 33.906 16.3752 33.4186 16.3752 32.7434C16.3752 32.1057 15.8846 31.7681 15.1299 31.6557L14.7527 31.6181C14.413 31.5805 14.149 31.5057 14.149 31.2807C14.149 31.0181 14.413 30.8681 14.8281 30.8681C15.281 30.8681 15.7337 31.0555 15.9601 31.1681L16.2997 30.5305ZM37.3535 30.1554C36.9007 30.1554 36.5988 30.3805 36.4101 30.6805V30.2304H35.6178V33.831H36.4101V31.8057C36.4101 31.2057 36.6743 30.8681 37.1646 30.8681C37.3157 30.8681 37.5044 30.9057 37.6554 30.9431L37.8817 30.193C37.7308 30.1554 37.5044 30.1554 37.3535 30.1554ZM27.2416 32.0307C27.2416 33.1184 27.9961 33.906 29.1659 33.906C29.6941 33.906 30.0714 33.7936 30.4486 33.4936L30.0714 32.856C29.7696 33.081 29.4677 33.1934 29.1281 33.1934C28.4867 33.1934 28.034 32.7434 28.034 32.0307C28.034 31.3557 28.4867 30.9055 29.1281 30.8681C29.4677 30.8681 29.7696 30.9805 30.0714 31.2057L30.4486 30.5681C30.0714 30.2679 29.6941 30.1554 29.1659 30.1554C27.9961 30.1554 27.2416 30.9431 27.2416 32.0307ZM34.5614 32.0307V30.2304H33.7691V30.6805C33.5049 30.343 33.1277 30.1554 32.6371 30.1554C31.6184 30.1554 30.8261 30.9431 30.8261 32.0307C30.8261 33.1184 31.6184 33.906 32.6371 33.906C33.1653 33.906 33.5427 33.7186 33.7691 33.381V33.831H34.5614V32.0307ZM31.6561 32.0307C31.6561 31.3931 32.0711 30.8681 32.7502 30.8681C33.3916 30.8681 33.8445 31.3557 33.8445 32.0307C33.8445 32.6684 33.3916 33.1934 32.7502 33.1934C32.0711 33.1558 31.6561 32.6684 31.6561 32.0307ZM22.1857 30.1554C21.1292 30.1554 20.3745 30.9055 20.3745 32.0307C20.3745 33.156 21.1291 33.906 22.2234 33.906C22.7516 33.906 23.2799 33.756 23.695 33.4186L23.3175 32.856C23.0157 33.081 22.6385 33.231 22.2612 33.231C21.7707 33.231 21.2801 33.006 21.1669 32.3682H23.8459V32.0683C23.8837 30.9055 23.2046 30.1554 22.1857 30.1554ZM22.1856 30.8305C22.6759 30.8305 23.0157 31.1307 23.091 31.6933H21.2045C21.28 31.2057 21.6196 30.8305 22.1856 30.8305ZM41.8433 32.0307V28.8052H41.0509V30.6805C40.7867 30.343 40.4095 30.1554 39.9189 30.1554C38.9002 30.1554 38.1079 30.9431 38.1079 32.0307C38.1079 33.1184 38.9002 33.906 39.9189 33.906C40.4473 33.906 40.8246 33.7186 41.0509 33.381V33.831H41.8433V32.0307ZM38.9381 32.0307C38.9381 31.3931 39.353 30.8681 40.0322 30.8681C40.6736 30.8681 41.1264 31.3557 41.1264 32.0307C41.1264 32.6684 40.6736 33.1934 40.0322 33.1934C39.353 33.1558 38.9381 32.6684 38.9381 32.0307ZM12.4509 32.0307V30.2304H11.6586V30.6805C11.3944 30.343 11.0171 30.1554 10.5266 30.1554C9.5079 30.1554 8.71556 30.9431 8.71556 32.0307C8.71556 33.1184 9.5079 33.906 10.5266 33.906C11.0549 33.906 11.4322 33.7186 11.6586 33.381V33.831H12.4509V32.0307ZM9.5079 32.0307C9.5079 31.3931 9.92298 30.8681 10.6021 30.8681C11.2435 30.8681 11.6964 31.3557 11.6964 32.0307C11.6964 32.6684 11.2435 33.1934 10.6021 33.1934C9.92298 33.1558 9.5079 32.6684 9.5079 32.0307Z" fill="white"/>
<path d="M16.0356 2.88782H27.9208V24.1166H16.0356V2.88782Z" fill="#FF5F00"/>
<path d="M16.7903 13.5024C16.7903 9.18923 18.8277 5.36346 21.9593 2.88795C19.6579 1.08766 16.7527 0 13.5833 0C6.07458 0 0 6.0385 0 13.5024C0 20.9664 6.07458 27.0049 13.5831 27.0049C16.7525 27.0049 19.6577 25.9172 21.9593 24.1168C18.8277 21.6788 16.7903 17.8157 16.7903 13.5024Z" fill="#EB001B"/>
<path d="M43.9563 13.5023C43.9563 20.9661 37.8818 27.0048 30.3732 27.0048C27.2039 27.0048 24.2986 25.9171 21.9971 24.1166C25.1664 21.6413 27.1662 17.8155 27.1662 13.5023C27.1662 9.1891 25.1286 5.36334 21.9971 2.88783C24.2985 1.08754 27.2039 -0.00012207 30.3732 -0.00012207C37.8818 -0.00012207 43.9563 6.07597 43.9563 13.5023Z" fill="#F79E1B"/>
</g>
<defs>
<clipPath id="clip0_660_34">
<rect width="44" height="34" fill="white"/>
</clipPath>
</defs>
</svg>
