<svg width="71" height="32" viewBox="0 0 71 32" fill="none" xmlns="http://www.w3.org/2000/svg">
<g clip-path="url(#clip0_660_32)">
<path d="M26.957 0.897018L17.6613 22.64H11.5969L7.02234 5.28705C6.745 4.22082 6.50399 3.82842 5.66003 3.37756C4.28052 2.64281 2.00242 1.95564 0 1.52817L0.135066 0.897018H9.89868C11.1412 0.897018 12.26 1.70818 12.5445 3.1127L14.9616 15.6957L20.9289 0.897018H26.957ZM35.1553 0.897018L30.4119 22.64H24.6742L29.4181 0.897018H35.1553ZM50.7187 15.541C50.7425 9.80354 42.6275 9.48511 42.6804 6.92162C42.6998 6.14227 43.457 5.31261 45.1144 5.10051C45.9353 4.99636 48.2035 4.91342 50.7725 6.07402L51.7776 1.46046C50.3972 0.970983 48.6209 0.5 46.4113 0.5C40.7396 0.5 36.75 3.4537 36.7181 7.68656C36.6809 10.8176 39.5678 12.5625 41.7388 13.6054C43.9751 14.6703 44.725 15.3547 44.7147 16.3065C44.6987 17.7654 42.9287 18.4112 41.2832 18.4351C38.3977 18.48 36.725 17.6705 35.3907 17.0611L34.3493 21.8275C35.6916 22.4306 38.1656 22.9546 40.7279 22.9813C46.7574 22.9813 50.7009 20.0613 50.7187 15.541ZM65.6953 22.6403H71L66.3656 0.897018H61.4713C60.3675 0.897018 59.4398 1.52518 59.0282 2.4908L50.4194 22.64H56.4442L57.6392 19.3921H64.9999L65.6953 22.6403ZM59.2914 14.9368L62.3122 6.77152L64.0476 14.9368H59.2914Z" fill="white"/>
</g>
<defs>
<clipPath id="clip0_660_32">
<rect width="71" height="31" fill="white" transform="translate(0 0.5)"/>
</clipPath>
</defs>
</svg>
