<svg width="313" height="312" viewBox="0 0 313 312" fill="none" xmlns="http://www.w3.org/2000/svg">
<mask id="path-1-inside-1_574_46" fill="white">
<path fill-rule="evenodd" clip-rule="evenodd" d="M156.5 5.32054e-10C156.5 5.32054e-10 156.5 0 156.5 0C70.3436 0 0.5 69.8436 0.5 156C0.5 242.156 70.3436 312 156.5 312C156.5 312 156.5 312 156.5 312V241.093C156.5 241.093 156.499 241.093 156.499 241.093C109.505 241.093 71.408 202.997 71.408 156.002C71.408 109.008 109.505 70.9115 156.499 70.9115C156.499 70.9115 156.5 70.9115 156.5 70.9115V5.32054e-10ZM241.591 286.771C284.281 258.937 312.5 210.764 312.5 156C312.5 101.236 284.281 53.0635 241.591 25.2287V286.771Z"/>
</mask>
<path d="M156.5 5.32054e-10H157.5V-1H156.5V5.32054e-10ZM156.5 312V313H157.5V312H156.5ZM156.5 241.093H157.5V240.093H156.5V241.093ZM156.5 70.9115V71.9115H157.5V70.9115H156.5ZM241.591 286.771H240.591V288.617L242.137 287.609L241.591 286.771ZM241.591 25.2287L242.137 24.3911L240.591 23.3829V25.2287H241.591ZM156.5 -1C156.5 -1 156.5 -1 156.5 -1C156.5 -1 156.5 -1 156.5 -1V1C156.5 1 156.5 1 156.5 1C156.5 1 156.5 1 156.5 1V-1ZM156.5 -1C69.7913 -1 -0.5 69.2913 -0.5 156H1.5C1.5 70.3959 70.8959 1 156.5 1V-1ZM-0.5 156C-0.5 242.709 69.7913 313 156.5 313V311C70.8959 311 1.5 241.604 1.5 156H-0.5ZM156.5 313H156.5H156.5H156.5H156.5H156.5C156.5 313 156.5 313 156.5 313C156.5 313 156.5 313 156.5 313C156.5 313 156.5 313 156.5 313C156.5 313 156.5 313 156.5 313C156.5 313 156.5 313 156.5 313C156.5 313 156.5 313 156.5 313C156.5 313 156.5 313 156.5 313C156.5 313 156.5 313 156.5 313C156.5 313 156.5 313 156.5 313C156.5 313 156.5 313 156.5 313C156.5 313 156.5 313 156.5 313C156.5 313 156.5 313 156.5 313C156.5 313 156.5 313 156.5 313C156.5 313 156.5 313 156.5 313C156.5 313 156.5 313 156.5 313C156.5 313 156.5 313 156.5 313C156.5 313 156.5 313 156.5 313C156.5 313 156.5 313 156.5 313H156.5H156.5H156.5H156.5V311H156.5H156.5H156.5H156.5C156.5 311 156.5 311 156.5 311C156.5 311 156.5 311 156.5 311C156.5 311 156.5 311 156.5 311C156.5 311 156.5 311 156.5 311C156.5 311 156.5 311 156.5 311C156.5 311 156.5 311 156.5 311C156.5 311 156.5 311 156.5 311C156.5 311 156.5 311 156.5 311C156.5 311 156.5 311 156.5 311C156.5 311 156.5 311 156.5 311C156.5 311 156.5 311 156.5 311C156.5 311 156.5 311 156.5 311C156.5 311 156.5 311 156.5 311C156.5 311 156.5 311 156.5 311C156.5 311 156.5 311 156.5 311C156.5 311 156.5 311 156.5 311C156.5 311 156.5 311 156.5 311C156.5 311 156.5 311 156.5 311H156.5H156.5H156.5H156.5H156.5V313ZM157.5 312V241.093H155.5V312H157.5ZM156.499 242.093H156.499C156.499 242.093 156.499 242.093 156.499 242.093C156.499 242.093 156.499 242.093 156.499 242.093C156.499 242.093 156.499 242.093 156.499 242.093C156.499 242.093 156.499 242.093 156.499 242.093H156.499C156.499 242.093 156.499 242.093 156.499 242.093C156.499 242.093 156.499 242.093 156.499 242.093C156.499 242.093 156.499 242.093 156.499 242.093C156.499 242.093 156.499 242.093 156.499 242.093H156.499C156.499 242.093 156.499 242.093 156.499 242.093C156.499 242.093 156.499 242.093 156.499 242.093C156.499 242.093 156.499 242.093 156.499 242.093C156.499 242.093 156.499 242.093 156.499 242.093H156.499C156.499 242.093 156.499 242.093 156.499 242.093C156.499 242.093 156.499 242.093 156.499 242.093C156.499 242.093 156.499 242.093 156.499 242.093H156.499H156.499C156.499 242.093 156.499 242.093 156.499 242.093C156.499 242.093 156.499 242.093 156.499 242.093C156.499 242.093 156.499 242.093 156.499 242.093H156.499C156.499 242.093 156.499 242.093 156.499 242.093C156.499 242.093 156.499 242.093 156.499 242.093C156.499 242.093 156.499 242.093 156.499 242.093H156.499C156.499 242.093 156.499 242.093 156.499 242.093C156.499 242.093 156.499 242.093 156.499 242.093C156.499 242.093 156.499 242.093 156.499 242.093H156.499H156.499C156.499 242.093 156.499 242.093 156.499 242.093C156.499 242.093 156.499 242.093 156.499 242.093H156.499H156.499C156.499 242.093 156.499 242.093 156.5 242.093C156.5 242.093 156.5 242.093 156.5 242.093H156.5H156.5C156.5 242.093 156.5 242.093 156.5 242.093C156.5 242.093 156.5 242.093 156.5 242.093H156.5H156.5C156.5 242.093 156.5 242.093 156.5 242.093C156.5 242.093 156.5 242.093 156.5 242.093H156.5H156.5C156.5 242.093 156.5 242.093 156.5 242.093C156.5 242.093 156.5 242.093 156.5 242.093H156.5H156.5C156.5 242.093 156.5 242.093 156.5 242.093C156.5 242.093 156.5 242.093 156.5 242.093H156.5H156.5C156.5 242.093 156.5 242.093 156.5 242.093C156.5 242.093 156.5 242.093 156.5 242.093H156.5H156.5C156.5 242.093 156.5 242.093 156.5 242.093C156.5 242.093 156.5 242.093 156.5 242.093H156.5H156.5C156.5 242.093 156.5 242.093 156.5 242.093C156.5 242.093 156.5 242.093 156.5 242.093C156.5 242.093 156.5 242.093 156.5 242.093H156.5C156.5 242.093 156.5 242.093 156.5 242.093C156.5 242.093 156.5 242.093 156.5 242.093C156.5 242.093 156.5 242.093 156.5 242.093H156.5C156.5 242.093 156.5 242.093 156.5 242.093C156.5 242.093 156.5 242.093 156.5 242.093C156.5 242.093 156.5 242.093 156.5 242.093H156.5H156.5C156.5 242.093 156.5 242.093 156.5 242.093C156.5 242.093 156.5 242.093 156.5 242.093C156.5 242.093 156.5 242.093 156.5 242.093H156.5C156.5 242.093 156.5 242.093 156.5 242.093C156.5 242.093 156.5 242.093 156.5 242.093C156.5 242.093 156.5 242.093 156.5 242.093C156.5 242.093 156.5 242.093 156.5 242.093H156.5C156.5 242.093 156.5 242.093 156.5 242.093C156.5 242.093 156.5 242.093 156.5 242.093C156.5 242.093 156.5 242.093 156.5 242.093C156.5 242.093 156.5 242.093 156.5 242.093H156.5C156.5 242.093 156.5 242.093 156.5 242.093C156.5 242.093 156.5 242.093 156.5 242.093C156.5 242.093 156.5 242.093 156.5 242.093C156.5 242.093 156.5 242.093 156.5 242.093H156.5V240.093H156.5C156.5 240.093 156.5 240.093 156.5 240.093C156.5 240.093 156.5 240.093 156.5 240.093C156.5 240.093 156.5 240.093 156.5 240.093C156.5 240.093 156.5 240.093 156.5 240.093H156.5C156.5 240.093 156.5 240.093 156.5 240.093C156.5 240.093 156.5 240.093 156.5 240.093C156.5 240.093 156.5 240.093 156.5 240.093C156.5 240.093 156.5 240.093 156.5 240.093H156.5C156.5 240.093 156.5 240.093 156.5 240.093C156.5 240.093 156.5 240.093 156.5 240.093C156.5 240.093 156.5 240.093 156.5 240.093C156.5 240.093 156.5 240.093 156.5 240.093H156.5C156.5 240.093 156.5 240.093 156.5 240.093C156.5 240.093 156.5 240.093 156.5 240.093C156.5 240.093 156.5 240.093 156.5 240.093H156.5H156.5C156.5 240.093 156.5 240.093 156.5 240.093C156.5 240.093 156.5 240.093 156.5 240.093C156.5 240.093 156.5 240.093 156.5 240.093H156.5C156.5 240.093 156.5 240.093 156.5 240.093C156.5 240.093 156.5 240.093 156.5 240.093C156.5 240.093 156.5 240.093 156.5 240.093H156.5C156.5 240.093 156.5 240.093 156.5 240.093C156.5 240.093 156.5 240.093 156.5 240.093C156.5 240.093 156.5 240.093 156.5 240.093H156.5H156.5C156.5 240.093 156.5 240.093 156.5 240.093C156.5 240.093 156.5 240.093 156.5 240.093H156.5H156.5C156.5 240.093 156.5 240.093 156.5 240.093C156.5 240.093 156.5 240.093 156.5 240.093H156.5H156.5C156.5 240.093 156.5 240.093 156.5 240.093C156.5 240.093 156.5 240.093 156.5 240.093H156.5H156.5C156.5 240.093 156.5 240.093 156.5 240.093C156.5 240.093 156.5 240.093 156.5 240.093H156.5H156.5C156.5 240.093 156.5 240.093 156.5 240.093C156.5 240.093 156.5 240.093 156.5 240.093H156.5H156.5C156.5 240.093 156.5 240.093 156.5 240.093C156.5 240.093 156.5 240.093 156.5 240.093H156.5H156.5C156.5 240.093 156.5 240.093 156.5 240.093C156.499 240.093 156.499 240.093 156.499 240.093H156.499H156.499C156.499 240.093 156.499 240.093 156.499 240.093C156.499 240.093 156.499 240.093 156.499 240.093H156.499H156.499C156.499 240.093 156.499 240.093 156.499 240.093C156.499 240.093 156.499 240.093 156.499 240.093C156.499 240.093 156.499 240.093 156.499 240.093H156.499C156.499 240.093 156.499 240.093 156.499 240.093C156.499 240.093 156.499 240.093 156.499 240.093C156.499 240.093 156.499 240.093 156.499 240.093H156.499C156.499 240.093 156.499 240.093 156.499 240.093C156.499 240.093 156.499 240.093 156.499 240.093C156.499 240.093 156.499 240.093 156.499 240.093H156.499H156.499C156.499 240.093 156.499 240.093 156.499 240.093C156.499 240.093 156.499 240.093 156.499 240.093C156.499 240.093 156.499 240.093 156.499 240.093H156.499C156.499 240.093 156.499 240.093 156.499 240.093C156.499 240.093 156.499 240.093 156.499 240.093C156.499 240.093 156.499 240.093 156.499 240.093C156.499 240.093 156.499 240.093 156.499 240.093H156.499C156.499 240.093 156.499 240.093 156.499 240.093C156.499 240.093 156.499 240.093 156.499 240.093C156.499 240.093 156.499 240.093 156.499 240.093C156.499 240.093 156.499 240.093 156.499 240.093H156.499C156.499 240.093 156.499 240.093 156.499 240.093C156.499 240.093 156.499 240.093 156.499 240.093C156.499 240.093 156.499 240.093 156.499 240.093C156.499 240.093 156.499 240.093 156.499 240.093H156.499V242.093ZM70.408 156.002C70.408 203.549 108.952 242.093 156.499 242.093V240.093C110.057 240.093 72.408 202.444 72.408 156.002H70.408ZM156.499 69.9115C108.952 69.9115 70.408 108.456 70.408 156.002H72.408C72.408 109.56 110.057 71.9115 156.499 71.9115V69.9115ZM156.5 69.9115H156.5C156.5 69.9115 156.5 69.9115 156.5 69.9115C156.5 69.9115 156.5 69.9115 156.5 69.9115C156.5 69.9115 156.5 69.9115 156.5 69.9115C156.5 69.9115 156.5 69.9115 156.5 69.9115H156.5C156.5 69.9115 156.5 69.9115 156.5 69.9115C156.5 69.9115 156.5 69.9115 156.5 69.9115C156.5 69.9115 156.5 69.9115 156.5 69.9115C156.5 69.9115 156.5 69.9115 156.5 69.9115H156.5C156.5 69.9115 156.5 69.9115 156.5 69.9115C156.5 69.9115 156.5 69.9115 156.5 69.9115C156.5 69.9115 156.5 69.9115 156.5 69.9115C156.5 69.9115 156.5 69.9115 156.5 69.9115H156.5C156.5 69.9115 156.5 69.9115 156.5 69.9115C156.5 69.9115 156.5 69.9115 156.5 69.9115C156.5 69.9115 156.5 69.9115 156.5 69.9115H156.5H156.5C156.5 69.9115 156.5 69.9115 156.5 69.9115C156.5 69.9115 156.5 69.9115 156.5 69.9115C156.5 69.9115 156.5 69.9115 156.5 69.9115H156.5C156.5 69.9115 156.5 69.9115 156.5 69.9115C156.5 69.9115 156.5 69.9115 156.5 69.9115C156.5 69.9115 156.5 69.9115 156.5 69.9115H156.5C156.5 69.9115 156.5 69.9115 156.5 69.9115C156.5 69.9115 156.5 69.9115 156.5 69.9115C156.5 69.9115 156.5 69.9115 156.5 69.9115H156.5H156.5C156.5 69.9115 156.5 69.9115 156.5 69.9115C156.5 69.9115 156.5 69.9115 156.5 69.9115H156.5H156.5C156.5 69.9115 156.5 69.9115 156.5 69.9115C156.5 69.9115 156.5 69.9115 156.5 69.9115H156.5H156.5C156.5 69.9115 156.5 69.9115 156.5 69.9115C156.5 69.9115 156.5 69.9115 156.5 69.9115H156.5H156.5C156.5 69.9115 156.5 69.9115 156.5 69.9115C156.5 69.9115 156.5 69.9115 156.5 69.9115H156.5H156.5C156.5 69.9115 156.5 69.9115 156.5 69.9115C156.5 69.9115 156.5 69.9115 156.5 69.9115H156.5H156.5C156.5 69.9115 156.5 69.9115 156.5 69.9115C156.5 69.9115 156.5 69.9115 156.5 69.9115H156.5H156.5C156.5 69.9115 156.5 69.9115 156.5 69.9115C156.499 69.9115 156.499 69.9115 156.499 69.9115H156.499H156.499C156.499 69.9115 156.499 69.9115 156.499 69.9115C156.499 69.9115 156.499 69.9115 156.499 69.9115H156.499H156.499C156.499 69.9115 156.499 69.9115 156.499 69.9115C156.499 69.9115 156.499 69.9115 156.499 69.9115C156.499 69.9115 156.499 69.9115 156.499 69.9115H156.499C156.499 69.9115 156.499 69.9115 156.499 69.9115C156.499 69.9115 156.499 69.9115 156.499 69.9115C156.499 69.9115 156.499 69.9115 156.499 69.9115H156.499C156.499 69.9115 156.499 69.9115 156.499 69.9115C156.499 69.9115 156.499 69.9115 156.499 69.9115C156.499 69.9115 156.499 69.9115 156.499 69.9115H156.499H156.499C156.499 69.9115 156.499 69.9115 156.499 69.9115C156.499 69.9115 156.499 69.9115 156.499 69.9115C156.499 69.9115 156.499 69.9115 156.499 69.9115H156.499C156.499 69.9115 156.499 69.9115 156.499 69.9115C156.499 69.9115 156.499 69.9115 156.499 69.9115C156.499 69.9115 156.499 69.9115 156.499 69.9115C156.499 69.9115 156.499 69.9115 156.499 69.9115H156.499C156.499 69.9115 156.499 69.9115 156.499 69.9115C156.499 69.9115 156.499 69.9115 156.499 69.9115C156.499 69.9115 156.499 69.9115 156.499 69.9115C156.499 69.9115 156.499 69.9115 156.499 69.9115H156.499C156.499 69.9115 156.499 69.9115 156.499 69.9115C156.499 69.9115 156.499 69.9115 156.499 69.9115C156.499 69.9115 156.499 69.9115 156.499 69.9115C156.499 69.9115 156.499 69.9115 156.499 69.9115H156.499V71.9115H156.499C156.499 71.9115 156.499 71.9115 156.499 71.9115C156.499 71.9115 156.499 71.9115 156.499 71.9115C156.499 71.9115 156.499 71.9115 156.499 71.9115C156.499 71.9115 156.499 71.9115 156.499 71.9115H156.499C156.499 71.9115 156.499 71.9115 156.499 71.9115C156.499 71.9115 156.499 71.9115 156.499 71.9115C156.499 71.9115 156.499 71.9115 156.499 71.9115C156.499 71.9115 156.499 71.9115 156.499 71.9115H156.499C156.499 71.9115 156.499 71.9115 156.499 71.9115C156.499 71.9115 156.499 71.9115 156.499 71.9115C156.499 71.9115 156.499 71.9115 156.499 71.9115C156.499 71.9115 156.499 71.9115 156.499 71.9115H156.499C156.499 71.9115 156.499 71.9115 156.499 71.9115C156.499 71.9115 156.499 71.9115 156.499 71.9115C156.499 71.9115 156.499 71.9115 156.499 71.9115H156.499H156.499C156.499 71.9115 156.499 71.9115 156.499 71.9115C156.499 71.9115 156.499 71.9115 156.499 71.9115C156.499 71.9115 156.499 71.9115 156.499 71.9115H156.499C156.499 71.9115 156.499 71.9115 156.499 71.9115C156.499 71.9115 156.499 71.9115 156.499 71.9115C156.499 71.9115 156.499 71.9115 156.499 71.9115H156.499C156.499 71.9115 156.499 71.9115 156.499 71.9115C156.499 71.9115 156.499 71.9115 156.499 71.9115C156.499 71.9115 156.499 71.9115 156.499 71.9115H156.499H156.499C156.499 71.9115 156.499 71.9115 156.499 71.9115C156.499 71.9115 156.499 71.9115 156.499 71.9115H156.499H156.499C156.499 71.9115 156.499 71.9115 156.5 71.9115C156.5 71.9115 156.5 71.9115 156.5 71.9115H156.5H156.5C156.5 71.9115 156.5 71.9115 156.5 71.9115C156.5 71.9115 156.5 71.9115 156.5 71.9115H156.5H156.5C156.5 71.9115 156.5 71.9115 156.5 71.9115C156.5 71.9115 156.5 71.9115 156.5 71.9115H156.5H156.5C156.5 71.9115 156.5 71.9115 156.5 71.9115C156.5 71.9115 156.5 71.9115 156.5 71.9115H156.5H156.5C156.5 71.9115 156.5 71.9115 156.5 71.9115C156.5 71.9115 156.5 71.9115 156.5 71.9115H156.5H156.5C156.5 71.9115 156.5 71.9115 156.5 71.9115C156.5 71.9115 156.5 71.9115 156.5 71.9115H156.5H156.5C156.5 71.9115 156.5 71.9115 156.5 71.9115C156.5 71.9115 156.5 71.9115 156.5 71.9115H156.5H156.5C156.5 71.9115 156.5 71.9115 156.5 71.9115C156.5 71.9115 156.5 71.9115 156.5 71.9115C156.5 71.9115 156.5 71.9115 156.5 71.9115H156.5C156.5 71.9115 156.5 71.9115 156.5 71.9115C156.5 71.9115 156.5 71.9115 156.5 71.9115C156.5 71.9115 156.5 71.9115 156.5 71.9115H156.5C156.5 71.9115 156.5 71.9115 156.5 71.9115C156.5 71.9115 156.5 71.9115 156.5 71.9115C156.5 71.9115 156.5 71.9115 156.5 71.9115H156.5H156.5C156.5 71.9115 156.5 71.9115 156.5 71.9115C156.5 71.9115 156.5 71.9115 156.5 71.9115C156.5 71.9115 156.5 71.9115 156.5 71.9115H156.5C156.5 71.9115 156.5 71.9115 156.5 71.9115C156.5 71.9115 156.5 71.9115 156.5 71.9115C156.5 71.9115 156.5 71.9115 156.5 71.9115C156.5 71.9115 156.5 71.9115 156.5 71.9115H156.5C156.5 71.9115 156.5 71.9115 156.5 71.9115C156.5 71.9115 156.5 71.9115 156.5 71.9115C156.5 71.9115 156.5 71.9115 156.5 71.9115C156.5 71.9115 156.5 71.9115 156.5 71.9115H156.5C156.5 71.9115 156.5 71.9115 156.5 71.9115C156.5 71.9115 156.5 71.9115 156.5 71.9115C156.5 71.9115 156.5 71.9115 156.5 71.9115C156.5 71.9115 156.5 71.9115 156.5 71.9115H156.5V69.9115ZM157.5 70.9115V5.32054e-10H155.5V70.9115H157.5ZM242.137 287.609C285.099 259.597 313.5 211.116 313.5 156H311.5C311.5 210.412 283.464 258.276 241.045 285.934L242.137 287.609ZM313.5 156C313.5 100.884 285.099 52.4025 242.137 24.3911L241.045 26.0664C283.464 53.7244 311.5 101.588 311.5 156H313.5ZM240.591 25.2287V286.771H242.591V25.2287H240.591Z" fill="#2D2C2D" mask="url(#path-1-inside-1_574_46)"/>
<mask id="path-3-inside-2_574_46" fill="white">
<path d="M156.5 241.093C167.674 241.093 178.739 238.892 189.063 234.616C199.387 230.34 208.767 224.072 216.668 216.171C224.57 208.269 230.838 198.889 235.114 188.565C239.39 178.242 241.591 167.177 241.591 156.003C241.591 144.828 239.39 133.763 235.114 123.44C230.838 113.116 224.57 103.736 216.668 95.8342C208.767 87.9327 199.387 81.665 189.063 77.3888C178.739 73.1126 167.674 70.9116 156.5 70.9116L156.5 156.003L156.5 241.093Z"/>
</mask>
<path d="M156.5 241.093C167.674 241.093 178.739 238.892 189.063 234.616C199.387 230.34 208.767 224.072 216.668 216.171C224.57 208.269 230.838 198.889 235.114 188.565C239.39 178.242 241.591 167.177 241.591 156.003C241.591 144.828 239.39 133.763 235.114 123.44C230.838 113.116 224.57 103.736 216.668 95.8342C208.767 87.9327 199.387 81.665 189.063 77.3888C178.739 73.1126 167.674 70.9116 156.5 70.9116L156.5 156.003L156.5 241.093Z" stroke="#2D2C2D" stroke-width="2" mask="url(#path-3-inside-2_574_46)"/>
</svg>
