<svg width="835" height="641" viewBox="0 0 835 641" fill="none" xmlns="http://www.w3.org/2000/svg">
<mask id="mask0_627_573" style="mask-type:alpha" maskUnits="userSpaceOnUse" x="0" y="0" width="835" height="641">
<rect width="834.336" height="639.74" transform="matrix(1 0 0 -1 0.0976562 640.346)" fill="black"/>
</mask>
<g mask="url(#mask0_627_573)">
<rect x="-0.361798" y="0.208807" width="417.01" height="751.286" rx="42.2024" transform="matrix(-3.78482e-08 1 -0.865865 -0.500278 762.895 376.446)" fill="black" stroke="white" stroke-width="0.83569"/>
<rect x="-0.361798" y="0.208807" width="417.01" height="751.286" rx="42.2024" transform="matrix(-3.78482e-08 1 -0.865865 -0.500278 662.883 397.169)" fill="black" stroke="white" stroke-width="0.83569"/>
<path d="M110.937 71.1195L761.022 447.84M663.461 489.376L761.022 543.469" stroke="white"/>
<path d="M81.1689 351.851V350.927L77.93 343.724V365.523C77.93 366.024 77.7749 366.365 77.4647 366.544C77.1668 366.716 76.8008 366.676 76.3664 366.425C75.9321 366.174 75.5598 365.78 75.2496 365.243C74.9517 364.712 74.8028 364.203 74.8028 363.716V336.951L78.8421 339.285L82.6952 347.982L86.66 343.802L90.6248 346.093V372.858C90.6248 373.359 90.4635 373.696 90.1409 373.868C89.8306 374.033 89.4584 373.989 89.024 373.739C88.6021 373.495 88.236 373.104 87.9258 372.567C87.6156 372.029 87.4604 371.517 87.4604 371.029V349.317L84.296 352.648V353.658C84.296 354.145 84.1409 354.479 83.8307 354.658C83.5205 354.837 83.1544 354.804 82.7325 354.561C82.2981 354.31 81.9258 353.915 81.6156 353.378C81.3178 352.847 81.1689 352.339 81.1689 351.851ZM97.9216 377.074V359.94C97.9216 359.438 98.0705 359.094 98.3683 358.908C98.6786 358.715 99.0508 358.744 99.4852 358.994C99.9195 359.245 100.286 359.636 100.583 360.166C100.894 360.704 101.049 361.231 101.049 361.747V364.004L103.599 362.962C104.654 362.54 105.684 362.619 106.689 363.2L108.978 364.522C110.269 365.268 111.373 366.436 112.292 368.028C113.21 369.619 113.669 371.16 113.669 372.65V373.617C113.669 374.133 113.514 374.481 113.204 374.66C112.906 374.846 112.54 374.814 112.106 374.563C111.671 374.312 111.299 373.925 110.989 373.402C110.691 372.871 110.542 372.355 110.542 371.854V370.843C110.542 370.342 110.387 369.829 110.077 369.306C109.779 368.776 109.413 368.385 108.978 368.134L106.949 366.962C106.515 366.711 106.031 366.696 105.498 366.918L101.049 368.798V378.88C101.049 379.382 100.894 379.722 100.583 379.901C100.273 380.066 99.9071 380.027 99.4852 379.783C99.0508 379.532 98.6786 379.145 98.3683 378.622C98.0705 378.091 97.9216 377.575 97.9216 377.074ZM147.547 378.981L155.681 383.681C156.674 384.255 157.611 385.283 158.492 386.767C159.385 388.243 159.832 389.67 159.832 391.045C159.832 391.561 159.671 391.905 159.348 392.077C159.038 392.256 158.69 392.235 158.306 392.012C157.772 391.704 157.406 391.356 157.208 390.969C157.009 390.568 156.817 389.934 156.631 389.067C156.457 388.207 156.06 387.597 155.439 387.239L147.714 382.776C147.342 382.561 147.156 382.589 147.156 382.861C147.156 383.033 147.237 383.281 147.398 383.603L158.995 407.437C159.553 408.591 159.832 409.641 159.832 410.587C159.832 411.662 159.491 412.41 158.808 412.833C158.138 413.263 157.387 413.237 156.556 412.757L148.124 407.885C147.007 407.24 146.033 406.19 145.201 404.735C144.382 403.273 143.973 401.954 143.973 400.779C143.973 399.432 144.519 399.073 145.611 399.704C146.033 399.948 146.393 400.335 146.691 400.866C146.988 401.382 147.137 401.876 147.137 402.349C147.137 402.736 147.249 403.123 147.472 403.51C147.708 403.904 148 404.202 148.347 404.403L156.128 408.898C156.463 409.092 156.631 409.038 156.631 408.737C156.631 408.594 156.55 408.361 156.389 408.038L144.811 384.215C144.265 383.083 143.992 382.036 143.992 381.076C143.992 379.958 144.339 379.192 145.034 378.776C145.729 378.346 146.566 378.415 147.547 378.981ZM171.708 408.484L177.832 412.022C178.167 412.216 178.651 412.581 179.284 413.119L179.247 410.539C179.247 410.038 179.092 409.525 178.781 409.002C178.484 408.472 178.117 408.081 177.683 407.83L171.745 404.399C171.323 404.156 170.957 403.765 170.647 403.227C170.337 402.69 170.182 402.177 170.182 401.69C170.182 401.188 170.331 400.852 170.628 400.68C170.939 400.501 171.311 400.537 171.745 400.788L177.683 404.218C178.974 404.964 180.072 406.122 180.978 407.691C181.896 409.268 182.374 410.827 182.411 412.368L182.802 426.116C182.802 426.617 182.647 426.957 182.337 427.137C182.026 427.301 181.66 427.262 181.238 427.018C180.792 426.76 180.413 426.369 180.103 425.846C179.793 425.308 179.638 424.789 179.638 424.287L176.994 424.566L171.708 421.511C170.393 420.751 169.276 419.576 168.357 417.985C167.439 416.394 166.98 414.839 166.98 413.319V411.213C166.98 409.708 167.439 408.69 168.357 408.16C169.288 407.623 170.405 407.731 171.708 408.484ZM179.526 420.031L179.433 418.451C179.42 417.927 179.265 417.408 178.967 416.892C178.67 416.376 178.304 415.992 177.869 415.741L171.708 412.181C171.274 411.931 170.901 411.895 170.591 412.074C170.293 412.246 170.144 412.582 170.144 413.084V415.105C170.144 415.592 170.299 416.104 170.61 416.642C170.92 417.179 171.286 417.57 171.708 417.814L176.12 420.363L179.526 420.031ZM201.081 438.483L197.954 436.676C196.663 435.93 195.553 434.758 194.622 433.16C193.691 431.562 193.226 430.017 193.226 428.527V416.81L191.625 415.885C191.191 415.635 190.818 415.247 190.508 414.724C190.21 414.208 190.061 413.692 190.061 413.176C190.061 412.675 190.21 412.338 190.508 412.166C190.818 411.987 191.191 412.023 191.625 412.274L193.263 413.22V408.792C193.263 408.29 193.412 407.953 193.71 407.781C194.02 407.602 194.392 407.638 194.827 407.889C195.236 408.126 195.596 408.513 195.906 409.051C196.229 409.595 196.39 410.111 196.39 410.599V415.027L202.682 418.662C203.104 418.906 203.47 419.297 203.78 419.834C204.09 420.372 204.245 420.884 204.245 421.371C204.245 421.873 204.09 422.213 203.78 422.392C203.47 422.557 203.104 422.518 202.682 422.274L196.353 418.617V430.333C196.353 430.821 196.508 431.333 196.818 431.871C197.141 432.415 197.52 432.813 197.954 433.064L201.007 434.828C201.838 435.308 202.39 435.111 202.663 434.237C202.936 433.349 203.464 433.13 204.245 433.582C204.705 433.847 205.077 434.242 205.362 434.765C205.66 435.281 205.809 435.804 205.809 436.334C205.809 437.424 205.362 438.255 204.469 438.828C203.588 439.393 202.458 439.278 201.081 438.483ZM228.891 440.319V447.951C228.891 449.57 228.227 450.684 226.899 451.293C225.583 451.909 224.225 451.811 222.822 451.001L219.155 448.883C217.728 448.058 216.363 446.574 215.06 444.431C213.757 442.274 213.106 440.407 213.106 438.83V431.199C213.106 429.622 213.739 428.505 215.004 427.846C216.283 427.18 217.666 427.277 219.155 428.137L222.822 430.256C224.225 431.037 225.583 432.496 226.899 434.632C228.227 436.775 228.891 438.671 228.891 440.319ZM216.27 433.178V440.487C216.27 441.146 216.475 441.787 216.884 442.411L218.057 444.249C218.318 444.658 218.684 444.998 219.155 445.271L222.785 447.368C223.319 447.676 223.803 447.734 224.237 447.541L225.186 447.122C225.571 447 225.763 446.631 225.763 446.015V438.705C225.763 437.989 225.571 437.347 225.186 436.781L224.088 435.136C223.716 434.563 223.281 434.133 222.785 433.846L219.546 431.975C218.839 431.566 218.293 431.444 217.908 431.609L216.847 432.049C216.463 432.199 216.27 432.576 216.27 433.178ZM240.562 440.548L247.728 444.689C248.845 445.334 249.831 446.291 250.688 447.56C251.544 448.814 251.972 449.807 251.972 450.538C251.972 451.054 251.811 451.383 251.488 451.526C251.178 451.677 250.83 451.641 250.446 451.419C249.949 451.132 249.496 450.612 249.087 449.86C248.677 449.107 248.249 448.602 247.802 448.344L240.729 444.257C240.034 443.855 239.687 443.991 239.687 444.665C239.687 445.138 239.916 445.629 240.375 446.138L248.696 455.202C249.54 456.119 250.229 457.212 250.762 458.481C251.308 459.742 251.581 460.953 251.581 462.114C251.581 463.662 251.103 464.697 250.148 465.22C249.205 465.75 248.131 465.667 246.928 464.972L240.599 461.315C239.507 460.684 238.489 459.716 237.546 458.412C236.615 457.115 236.15 456.108 236.15 455.391C236.15 454.918 236.299 454.589 236.597 454.402C236.907 454.209 237.304 454.252 237.788 454.532C238.185 454.761 238.607 455.263 239.054 456.037C239.513 456.818 240.171 457.456 241.027 457.951L246.853 461.317C247.312 461.582 247.697 461.604 248.007 461.382C248.317 461.146 248.473 460.762 248.473 460.232C248.473 459.415 248.125 458.627 247.43 457.867L239.035 448.652C238.229 447.771 237.608 446.81 237.174 445.771C236.74 444.732 236.522 443.804 236.522 442.987C236.522 441.697 236.907 440.802 237.676 440.3C238.458 439.806 239.42 439.889 240.562 440.548ZM259.194 470.253V445.295C259.194 444.807 259.343 444.478 259.641 444.306C259.951 444.141 260.324 444.184 260.758 444.435C261.192 444.686 261.558 445.077 261.856 445.607C262.166 446.13 262.322 446.643 262.322 447.144V456.259L264.834 455.819C265.976 455.648 266.994 455.82 267.887 456.336L269.823 457.455C271.101 458.193 272.199 459.358 273.118 460.949C274.036 462.526 274.514 464.078 274.551 465.604L274.942 479.352C274.954 479.861 274.805 480.205 274.495 480.384C274.185 480.548 273.813 480.505 273.378 480.254C272.944 480.003 272.578 479.613 272.28 479.082C271.982 478.538 271.827 478.025 271.815 477.545L271.424 463.754C271.411 463.26 271.25 462.744 270.94 462.206C270.63 461.669 270.257 461.274 269.823 461.023L268.073 460.013C267.676 459.783 267.242 459.711 266.77 459.797L262.322 460.58V472.06C262.322 472.562 262.166 472.902 261.856 473.081C261.558 473.253 261.192 473.214 260.758 472.963C260.324 472.712 259.951 472.325 259.641 471.801C259.343 471.271 259.194 470.755 259.194 470.253ZM288.53 458.847L290.168 459.794C290.603 460.045 290.969 460.436 291.266 460.966C291.577 461.489 291.732 462.002 291.732 462.503V464.051C291.732 464.553 291.577 464.9 291.266 465.093C290.969 465.28 290.603 465.247 290.168 464.996L288.493 464.028C288.046 463.77 287.668 463.365 287.358 462.813C287.06 462.269 286.917 461.771 286.929 461.319L286.967 459.75C286.967 459.248 287.116 458.912 287.413 458.74C287.724 458.561 288.096 458.597 288.53 458.847ZM294.896 492.644L285.366 487.137C284.931 486.887 284.559 486.499 284.249 485.976C283.951 485.446 283.802 484.93 283.802 484.428C283.802 483.941 283.951 483.604 284.249 483.418C284.559 483.239 284.931 483.275 285.366 483.526L288.567 485.376V471.897L285.403 470.068C284.969 469.817 284.596 469.423 284.286 468.886C283.988 468.355 283.839 467.846 283.839 467.359C283.839 466.857 283.988 466.514 284.286 466.327C284.596 466.134 284.969 466.163 285.403 466.414L290.168 469.167C290.603 469.418 290.969 469.816 291.266 470.36C291.577 470.898 291.732 471.418 291.732 471.919V487.204L294.859 489.011C295.293 489.262 295.666 489.656 295.976 490.194C296.299 490.724 296.46 491.24 296.46 491.742C296.46 492.243 296.305 492.583 295.994 492.763C295.684 492.927 295.318 492.888 294.896 492.644Z" fill="white"/>
<path d="M149.574 77.7102C148.937 77.342 148.388 76.9072 147.926 76.4057C147.473 75.8989 147.127 75.3468 146.887 74.7494C146.656 74.1466 146.54 73.4933 146.54 72.7893V72.3093L147.857 73.0697V73.6297C147.857 74.2057 148.004 74.7337 148.3 75.2138C148.595 75.6833 149.02 76.0781 149.574 76.3982C150.138 76.7237 150.567 76.7639 150.863 76.5186C151.168 76.2787 151.32 75.7481 151.32 74.9268V67.5508L152.636 68.3112V75.6072C152.636 76.4712 152.516 77.1218 152.276 77.5591C152.036 77.9964 151.685 78.2256 151.223 78.2468C150.77 78.2626 150.221 78.0838 149.574 77.7102ZM157.743 82.4296C157.004 82.0027 156.38 81.4878 155.872 80.885C155.374 80.2768 154.99 79.5701 154.722 78.7646C154.464 77.9646 154.335 77.0632 154.335 76.0605C154.335 75.0472 154.464 74.2952 154.722 73.8046C154.99 73.3087 155.374 73.0502 155.872 73.029C156.38 73.0025 157.004 73.2027 157.743 73.6296C158.481 74.0565 159.1 74.574 159.599 75.1822C160.107 75.785 160.49 76.4865 160.749 77.2866C161.007 78.076 161.137 78.9774 161.137 79.9907C161.137 80.9934 161.007 81.7453 160.749 82.2466C160.49 82.7478 160.107 83.0117 159.599 83.0382C159.1 83.0594 158.481 82.8565 157.743 82.4296ZM157.743 81.2456C158.214 81.5178 158.606 81.6379 158.92 81.606C159.234 81.5741 159.47 81.3795 159.627 81.0222C159.793 80.6596 159.876 80.1316 159.876 79.4383V79.0863C159.876 78.3823 159.793 77.7583 159.627 77.2142C159.47 76.6755 159.234 76.2087 158.92 75.814C158.606 75.4192 158.214 75.0858 157.743 74.8136C157.272 74.5415 156.874 74.4187 156.551 74.4452C156.237 74.4771 156.002 74.6717 155.845 75.029C155.688 75.3863 155.609 75.9169 155.609 76.6209V76.9729C155.609 77.6663 155.688 78.2876 155.845 78.837C156.002 79.3757 156.237 79.8425 156.551 80.2372C156.874 80.6373 157.272 80.9735 157.743 81.2456ZM162.651 75.0737V73.5057L163.87 74.2101V75.7781L162.651 75.0737ZM162.651 85.0737V76.6577L163.87 77.3621V85.7781L162.651 85.0737ZM165.763 86.8716V78.4555L166.746 79.0239L166.857 80.3519L166.954 80.4079C167.148 80.1787 167.365 80.0267 167.605 79.9521C167.855 79.8829 168.127 79.8856 168.423 79.9604C168.728 80.0298 169.051 80.1633 169.393 80.3607C169.854 80.6275 170.256 80.9503 170.598 81.3291C170.949 81.7132 171.221 82.164 171.415 82.6814C171.618 83.2041 171.72 83.8121 171.72 84.5055V90.3135L170.501 89.6091V83.9931C170.501 83.6411 170.459 83.3291 170.376 83.057C170.302 82.7903 170.196 82.553 170.058 82.3449C169.928 82.1422 169.767 81.9582 169.573 81.7928C169.388 81.6327 169.18 81.486 168.949 81.3526C168.608 81.1551 168.284 81.0644 167.979 81.0803C167.675 81.0962 167.43 81.2321 167.245 81.488C167.07 81.7493 166.982 82.1306 166.982 82.6319V87.5759L165.763 86.8716ZM178.168 94.2312C177.79 94.0124 177.494 93.7617 177.282 93.4789C177.069 93.1855 176.917 92.8788 176.825 92.5588C176.732 92.2281 176.686 91.9081 176.686 91.5987V85.9507L175.744 85.4064V84.2224L176.714 84.7827L176.935 82.5588L177.905 83.1191V85.4711L179.277 86.2636V87.4476L177.905 86.6551V92.0951C177.905 92.3618 177.947 92.5885 178.03 92.7752C178.113 92.9512 178.27 93.1059 178.501 93.2393L179.277 93.6876V94.6156C179.184 94.6155 179.074 94.5942 178.944 94.5515C178.815 94.5088 178.681 94.458 178.542 94.3993C178.413 94.3566 178.288 94.3006 178.168 94.2312ZM180.577 95.431V83.863L181.796 84.5674V88.7754L181.893 88.8314C182.078 88.6501 182.286 88.5355 182.517 88.4876C182.748 88.4397 183.002 88.4531 183.279 88.5279C183.565 88.5973 183.874 88.728 184.207 88.9201C184.669 89.187 185.071 89.5098 185.412 89.8885C185.763 90.2726 186.036 90.7234 186.23 91.2408C186.433 91.7635 186.534 92.3716 186.534 93.0649V98.8729L185.315 98.1685V92.5525C185.315 92.2005 185.274 91.8885 185.191 91.6165C185.117 91.3498 185.01 91.1124 184.872 90.9044C184.743 90.7017 184.581 90.5176 184.387 90.3522C184.202 90.1921 183.995 90.0454 183.764 89.912C183.422 89.7146 183.099 89.6238 182.794 89.6397C182.489 89.6449 182.244 89.7755 182.06 90.0315C181.884 90.2821 181.796 90.6687 181.796 91.1914V96.1354L180.577 95.431ZM191.293 101.814C190.572 101.398 189.963 100.891 189.464 100.294C188.975 99.6908 188.601 98.9894 188.342 98.1893C188.093 97.3945 187.968 96.4958 187.968 95.4932C187.968 94.4798 188.093 93.7252 188.342 93.2293C188.601 92.728 188.979 92.4668 189.478 92.4457C189.977 92.4138 190.6 92.614 191.348 93.0463C192.032 93.4411 192.604 93.9267 193.066 94.5028C193.528 95.0683 193.874 95.7217 194.105 96.4631C194.345 97.1992 194.465 98.0206 194.465 98.9273V99.5993L189.229 96.5736C189.247 97.2562 189.33 97.8589 189.478 98.3817C189.635 98.899 189.866 99.3471 190.171 99.7259C190.476 100.094 190.859 100.411 191.321 100.678C191.635 100.86 191.907 100.974 192.138 101.023C192.378 101.065 192.577 101.047 192.734 100.967C192.9 100.892 193.025 100.761 193.108 100.575C193.191 100.388 193.237 100.159 193.246 99.8869L194.438 100.575C194.428 101.018 194.355 101.391 194.216 101.695C194.078 101.988 193.874 102.191 193.606 102.303C193.339 102.415 193.011 102.433 192.623 102.359C192.235 102.284 191.792 102.102 191.293 101.814ZM189.256 95.5336L193.205 97.8148C193.205 97.3455 193.159 96.9242 193.066 96.5508C192.974 96.1774 192.84 95.8387 192.664 95.5347C192.498 95.236 192.3 94.9772 192.069 94.7585C191.847 94.5344 191.593 94.3397 191.307 94.1742C190.882 93.9288 190.522 93.8113 190.226 93.8219C189.931 93.8325 189.704 93.9791 189.547 94.2617C189.39 94.5443 189.293 94.9683 189.256 95.5336ZM201.639 107.792C200.937 107.387 200.346 106.89 199.866 106.304C199.395 105.712 199.035 105.018 198.786 104.223C198.545 103.423 198.425 102.527 198.425 101.535C198.425 100.543 198.545 99.7912 198.786 99.2793C199.035 98.7727 199.4 98.4982 199.88 98.4557C200.369 98.4185 200.97 98.6054 201.681 99.0163C202.18 99.3044 202.609 99.6272 202.969 99.9847C203.339 100.347 203.644 100.742 203.884 101.169C204.124 101.596 204.299 102.044 204.41 102.513C204.53 102.988 204.59 103.487 204.59 104.009L203.357 103.297C203.357 102.806 203.297 102.371 203.177 101.993C203.066 101.609 202.886 101.27 202.637 100.977C202.388 100.672 202.06 100.403 201.653 100.168C201.247 99.9334 200.896 99.8373 200.6 99.8799C200.305 99.9118 200.079 100.106 199.922 100.464C199.765 100.821 199.686 101.368 199.686 102.104V102.44C199.686 103.133 199.76 103.752 199.908 104.296C200.065 104.845 200.291 105.312 200.587 105.696C200.882 106.08 201.242 106.395 201.667 106.64C202.083 106.88 202.415 106.987 202.665 106.961C202.923 106.939 203.108 106.801 203.219 106.545C203.339 106.294 203.399 105.945 203.399 105.497L204.59 106.185C204.59 106.655 204.53 107.057 204.41 107.393C204.299 107.734 204.124 107.985 203.884 108.145C203.644 108.305 203.339 108.363 202.969 108.321C202.6 108.267 202.157 108.091 201.639 107.792ZM208.311 111.647C207.609 111.241 207.045 110.708 206.621 110.046C206.196 109.385 205.983 108.537 205.983 107.502V101.694L207.202 102.398V108.014C207.202 108.366 207.239 108.676 207.313 108.942C207.387 109.209 207.493 109.447 207.632 109.655C207.771 109.863 207.932 110.047 208.117 110.207C208.311 110.372 208.519 110.519 208.74 110.647C209.091 110.85 209.414 110.941 209.71 110.919C210.006 110.898 210.246 110.759 210.43 110.503C210.624 110.242 210.721 109.866 210.721 109.376V104.432L211.941 105.136V113.552L210.957 112.984L210.846 111.656L210.749 111.6C210.555 111.829 210.333 111.978 210.084 112.047C209.844 112.122 209.572 112.119 209.267 112.039C208.971 111.975 208.653 111.844 208.311 111.647ZM216.381 116.31C215.882 116.021 215.444 115.709 215.065 115.373C214.686 115.037 214.372 114.685 214.123 114.317C213.873 113.949 213.684 113.573 213.555 113.189C213.426 112.805 213.361 112.415 213.361 112.021C213.361 111.967 213.361 111.919 213.361 111.877C213.361 111.823 213.365 111.783 213.375 111.757L214.58 112.453C214.571 112.49 214.566 112.525 214.566 112.557C214.566 112.589 214.566 112.621 214.566 112.653C214.575 113.032 214.658 113.373 214.816 113.677C214.982 113.986 215.208 114.267 215.494 114.517C215.781 114.768 216.099 114.995 216.45 115.198C216.755 115.374 217.037 115.494 217.295 115.558C217.554 115.611 217.757 115.59 217.905 115.494C218.062 115.393 218.14 115.198 218.14 114.91C218.14 114.558 218.039 114.233 217.836 113.934C217.642 113.63 217.383 113.331 217.06 113.038C216.737 112.744 216.399 112.438 216.049 112.117C215.753 111.851 215.457 111.573 215.162 111.285C214.866 110.997 214.598 110.698 214.358 110.389C214.127 110.085 213.938 109.757 213.79 109.405C213.652 109.047 213.583 108.661 213.583 108.245C213.583 107.871 213.647 107.578 213.776 107.365C213.915 107.157 214.109 107.024 214.358 106.965C214.608 106.906 214.908 106.93 215.259 107.037C215.619 107.139 216.016 107.315 216.45 107.566C216.912 107.832 217.314 108.123 217.656 108.438C218.007 108.758 218.297 109.092 218.528 109.438C218.759 109.785 218.93 110.129 219.041 110.47C219.152 110.801 219.207 111.121 219.207 111.43C219.207 111.494 219.207 111.558 219.207 111.622C219.207 111.676 219.203 111.716 219.193 111.742L218.002 111.054V110.878C218.002 110.665 217.951 110.433 217.85 110.182C217.757 109.926 217.591 109.67 217.351 109.414C217.12 109.152 216.797 108.902 216.381 108.662C216.113 108.507 215.882 108.4 215.688 108.341C215.494 108.272 215.333 108.253 215.203 108.285C215.074 108.307 214.977 108.368 214.912 108.469C214.848 108.56 214.816 108.69 214.816 108.861C214.816 109.138 214.894 109.397 215.051 109.637C215.208 109.877 215.416 110.12 215.674 110.365C215.942 110.616 216.229 110.888 216.533 111.182C216.857 111.475 217.185 111.777 217.517 112.086C217.859 112.39 218.168 112.707 218.445 113.038C218.732 113.374 218.958 113.74 219.124 114.134C219.3 114.524 219.387 114.959 219.387 115.439C219.387 115.887 219.313 116.233 219.166 116.478C219.018 116.724 218.805 116.873 218.528 116.926C218.26 116.985 217.942 116.955 217.572 116.838C217.212 116.737 216.815 116.56 216.381 116.31ZM222.598 119.902C222.219 119.683 221.924 119.432 221.711 119.149C221.499 118.856 221.347 118.549 221.254 118.229C221.162 117.899 221.116 117.579 221.116 117.269V111.621L220.174 111.077V109.893L221.143 110.453L221.365 108.229L222.335 108.79V111.142L223.706 111.934V113.118L222.335 112.326V117.766C222.335 118.032 222.376 118.259 222.46 118.446C222.543 118.622 222.7 118.776 222.931 118.91L223.706 119.358V120.286C223.614 120.286 223.503 120.265 223.374 120.222C223.245 120.179 223.111 120.129 222.972 120.07C222.843 120.027 222.718 119.971 222.598 119.902ZM227.999 123.022C227.261 122.596 226.637 122.081 226.129 121.478C225.63 120.87 225.247 120.163 224.979 119.357C224.721 118.557 224.591 117.656 224.591 116.653C224.591 115.64 224.721 114.888 224.979 114.397C225.247 113.902 225.63 113.643 226.129 113.622C226.637 113.595 227.261 113.796 227.999 114.222C228.738 114.649 229.357 115.167 229.856 115.775C230.364 116.378 230.747 117.079 231.006 117.879C231.264 118.669 231.394 119.57 231.394 120.584C231.394 121.586 231.264 122.338 231.006 122.839C230.747 123.341 230.364 123.605 229.856 123.631C229.357 123.652 228.738 123.449 227.999 123.022ZM227.999 121.838C228.47 122.111 228.863 122.231 229.177 122.199C229.491 122.167 229.726 121.972 229.884 121.615C230.05 121.252 230.133 120.724 230.133 120.031V119.679C230.133 118.975 230.05 118.351 229.884 117.807C229.726 117.268 229.491 116.802 229.177 116.407C228.863 116.012 228.47 115.679 227.999 115.406C227.528 115.134 227.131 115.011 226.808 115.038C226.494 115.07 226.258 115.265 226.101 115.622C225.944 115.979 225.866 116.51 225.866 117.214V117.566C225.866 118.259 225.944 118.88 226.101 119.43C226.258 119.969 226.494 120.435 226.808 120.83C227.131 121.23 227.528 121.566 227.999 121.838ZM232.908 125.667V117.251L233.892 117.819L234.002 119.147L234.099 119.203C234.284 118.968 234.492 118.811 234.723 118.731C234.954 118.651 235.208 118.643 235.485 118.707C235.762 118.761 236.062 118.881 236.385 119.068C236.856 119.34 237.263 119.687 237.604 120.108C237.946 120.519 238.2 121.039 238.366 121.668L238.45 121.716C238.625 121.476 238.828 121.322 239.059 121.252C239.29 121.173 239.549 121.162 239.835 121.221C240.121 121.279 240.426 121.402 240.749 121.589C241.193 121.845 241.58 122.16 241.913 122.533C242.245 122.896 242.504 123.334 242.689 123.846C242.883 124.352 242.98 124.942 242.98 125.614V131.486L241.761 130.781V125.133C241.761 124.792 241.724 124.488 241.65 124.221C241.585 123.96 241.488 123.733 241.359 123.541C241.23 123.339 241.077 123.16 240.902 123.005C240.735 122.856 240.555 122.725 240.361 122.613C240.038 122.426 239.738 122.349 239.461 122.381C239.193 122.418 238.976 122.57 238.81 122.836C238.643 123.103 238.56 123.487 238.56 123.988V128.932L237.341 128.228V122.58C237.341 122.239 237.304 121.935 237.23 121.668C237.156 121.401 237.06 121.175 236.939 120.988C236.819 120.79 236.672 120.614 236.496 120.46C236.33 120.31 236.154 120.182 235.97 120.075C235.637 119.883 235.328 119.801 235.041 119.827C234.764 119.859 234.543 120.008 234.376 120.275C234.21 120.542 234.127 120.926 234.127 121.427V126.371L232.908 125.667ZM247.736 134.426C247.016 134.01 246.406 133.503 245.908 132.905C245.418 132.303 245.044 131.601 244.786 130.801C244.536 130.006 244.412 129.108 244.412 128.105C244.412 127.092 244.536 126.337 244.786 125.841C245.044 125.34 245.423 125.079 245.922 125.057C246.42 125.026 247.044 125.226 247.792 125.658C248.475 126.053 249.048 126.538 249.51 127.115C249.972 127.68 250.318 128.334 250.549 129.075C250.789 129.811 250.909 130.632 250.909 131.539V132.211L245.672 129.185C245.691 129.868 245.774 130.471 245.922 130.993C246.079 131.511 246.31 131.959 246.614 132.338C246.919 132.706 247.302 133.023 247.764 133.29C248.078 133.472 248.351 133.586 248.582 133.634C248.822 133.677 249.02 133.658 249.177 133.579C249.344 133.504 249.468 133.373 249.551 133.187C249.634 133 249.681 132.771 249.69 132.499L250.881 133.187C250.872 133.63 250.798 134.003 250.66 134.307C250.521 134.6 250.318 134.803 250.05 134.915C249.782 135.027 249.454 135.045 249.066 134.971C248.679 134.896 248.235 134.714 247.736 134.426ZM245.7 128.145L249.648 130.427C249.648 129.957 249.602 129.536 249.51 129.163C249.417 128.789 249.283 128.451 249.108 128.147C248.942 127.848 248.743 127.589 248.512 127.37C248.291 127.146 248.037 126.952 247.75 126.786C247.325 126.541 246.965 126.423 246.67 126.434C246.374 126.444 246.148 126.591 245.991 126.874C245.834 127.156 245.737 127.58 245.7 128.145ZM252.417 136.938V128.522L253.401 129.091L253.511 130.547L253.608 130.603C253.682 130.379 253.784 130.187 253.913 130.027C254.043 129.856 254.218 129.76 254.44 129.739C254.661 129.707 254.934 129.785 255.257 129.971C255.396 130.051 255.52 130.139 255.631 130.235C255.751 130.326 255.839 130.403 255.894 130.468V131.764L255.437 131.499C255.123 131.318 254.851 131.225 254.62 131.219C254.398 131.208 254.213 131.272 254.066 131.411C253.918 131.55 253.807 131.752 253.733 132.019C253.668 132.291 253.636 132.603 253.636 132.955V137.643L252.417 136.938ZM262.191 142.777C261.692 142.489 261.253 142.177 260.875 141.841C260.496 141.505 260.182 141.153 259.932 140.785C259.683 140.417 259.494 140.041 259.364 139.656C259.235 139.272 259.171 138.883 259.171 138.488C259.171 138.435 259.171 138.387 259.171 138.344C259.171 138.291 259.175 138.251 259.184 138.224L260.39 138.921C260.38 138.958 260.376 138.993 260.376 139.025C260.376 139.057 260.376 139.089 260.376 139.121C260.385 139.499 260.468 139.841 260.625 140.145C260.791 140.454 261.018 140.734 261.304 140.985C261.59 141.236 261.909 141.463 262.26 141.665C262.565 141.842 262.846 141.962 263.105 142.026C263.364 142.079 263.567 142.058 263.715 141.962C263.872 141.861 263.95 141.666 263.95 141.378C263.95 141.026 263.849 140.701 263.645 140.402C263.451 140.098 263.193 139.799 262.87 139.506C262.546 139.212 262.209 138.905 261.858 138.585C261.563 138.319 261.267 138.041 260.972 137.753C260.676 137.465 260.408 137.166 260.168 136.857C259.937 136.553 259.748 136.225 259.6 135.873C259.461 135.515 259.392 135.129 259.392 134.713C259.392 134.339 259.457 134.046 259.586 133.833C259.725 133.625 259.919 133.491 260.168 133.433C260.417 133.374 260.718 133.398 261.069 133.505C261.429 133.606 261.826 133.783 262.26 134.033C262.722 134.3 263.123 134.591 263.465 134.906C263.816 135.226 264.107 135.559 264.338 135.906C264.569 136.253 264.74 136.597 264.851 136.938C264.961 137.269 265.017 137.589 265.017 137.898C265.017 137.962 265.017 138.026 265.017 138.09C265.017 138.144 265.012 138.184 265.003 138.21L263.812 137.522V137.346C263.812 137.133 263.761 136.901 263.659 136.65C263.567 136.394 263.401 136.138 263.16 135.882C262.93 135.62 262.606 135.37 262.191 135.129C261.923 134.975 261.692 134.868 261.498 134.809C261.304 134.74 261.142 134.721 261.013 134.753C260.884 134.774 260.787 134.836 260.722 134.937C260.658 135.028 260.625 135.158 260.625 135.329C260.625 135.606 260.704 135.865 260.861 136.105C261.018 136.345 261.226 136.588 261.484 136.833C261.752 137.084 262.038 137.356 262.343 137.649C262.666 137.943 262.994 138.244 263.327 138.554C263.668 138.858 263.978 139.175 264.255 139.506C264.541 139.842 264.767 140.208 264.934 140.602C265.109 140.992 265.197 141.426 265.197 141.906C265.197 142.354 265.123 142.701 264.975 142.946C264.828 143.192 264.615 143.341 264.338 143.394C264.07 143.453 263.752 143.423 263.382 143.306C263.022 143.204 262.625 143.028 262.191 142.777ZM268.962 146.69C268.26 146.284 267.697 145.751 267.272 145.089C266.847 144.428 266.635 143.58 266.635 142.545V136.737L267.854 137.441V143.057C267.854 143.409 267.891 143.719 267.964 143.985C268.038 144.252 268.145 144.489 268.283 144.697C268.422 144.906 268.583 145.09 268.768 145.25C268.962 145.415 269.17 145.562 269.391 145.69C269.742 145.893 270.066 145.983 270.361 145.962C270.657 145.941 270.897 145.802 271.082 145.546C271.276 145.285 271.373 144.909 271.373 144.418V139.474L272.592 140.179V148.595L271.608 148.027L271.497 146.699L271.4 146.642C271.206 146.872 270.985 147.021 270.735 147.09C270.495 147.165 270.223 147.162 269.918 147.082C269.622 147.018 269.304 146.887 268.962 146.69ZM274.483 152.456V141.272L275.453 141.832L275.577 143.104L275.674 143.16C275.924 142.835 276.242 142.672 276.63 142.672C277.018 142.662 277.457 142.798 277.946 143.081C278.556 143.433 279.073 143.886 279.498 144.441C279.923 144.996 280.251 145.671 280.482 146.466C280.713 147.25 280.828 148.164 280.828 149.21C280.828 150.191 280.708 150.938 280.468 151.45C280.237 151.956 279.909 152.241 279.484 152.305C279.059 152.369 278.565 152.238 278.002 151.913C277.688 151.731 277.392 151.518 277.115 151.272C276.838 151.027 276.589 150.75 276.367 150.44C276.145 150.12 275.952 149.768 275.785 149.384L275.702 149.336V153.16L274.483 152.456ZM277.614 150.457C278.067 150.718 278.436 150.83 278.722 150.793C279.009 150.745 279.221 150.543 279.36 150.185C279.498 149.817 279.567 149.287 279.567 148.593V148.257C279.567 147.521 279.494 146.892 279.346 146.369C279.198 145.836 278.981 145.39 278.695 145.033C278.418 144.681 278.071 144.385 277.656 144.145C277.203 143.883 276.829 143.784 276.533 143.848C276.247 143.907 276.035 144.125 275.896 144.504C275.767 144.888 275.702 145.411 275.702 146.072V146.312C275.702 146.899 275.748 147.416 275.841 147.864C275.942 148.307 276.081 148.696 276.256 149.032C276.441 149.374 276.649 149.659 276.88 149.888C277.111 150.118 277.355 150.307 277.614 150.457ZM282.343 156.997V145.813L283.313 146.374L283.438 147.646L283.535 147.702C283.784 147.376 284.103 147.214 284.491 147.214C284.879 147.203 285.317 147.34 285.807 147.622C286.416 147.975 286.934 148.428 287.359 148.983C287.783 149.538 288.111 150.212 288.342 151.007C288.573 151.791 288.689 152.706 288.689 153.751C288.689 154.733 288.568 155.479 288.328 155.991C288.097 156.498 287.77 156.783 287.345 156.847C286.92 156.911 286.426 156.78 285.862 156.454C285.548 156.273 285.253 156.06 284.976 155.814C284.699 155.569 284.449 155.291 284.228 154.982C284.006 154.662 283.812 154.31 283.646 153.926L283.563 153.878V157.702L282.343 156.997ZM285.474 154.998C285.927 155.26 286.296 155.372 286.583 155.335C286.869 155.287 287.081 155.084 287.22 154.727C287.359 154.359 287.428 153.828 287.428 153.135V152.799C287.428 152.063 287.354 151.434 287.206 150.911C287.058 150.377 286.841 149.932 286.555 149.575C286.278 149.222 285.932 148.926 285.516 148.686C285.063 148.425 284.689 148.326 284.394 148.39C284.108 148.448 283.895 148.667 283.757 149.046C283.627 149.43 283.563 149.952 283.563 150.614V150.854C283.563 151.44 283.609 151.958 283.701 152.406C283.803 152.848 283.941 153.238 284.117 153.574C284.301 153.915 284.509 154.201 284.74 154.43C284.971 154.659 285.216 154.849 285.474 154.998ZM293.196 160.692C292.457 160.265 291.834 159.75 291.326 159.147C290.827 158.539 290.444 157.832 290.176 157.027C289.918 156.227 289.788 155.325 289.788 154.323C289.788 153.309 289.918 152.557 290.176 152.067C290.444 151.571 290.827 151.312 291.326 151.291C291.834 151.265 292.457 151.465 293.196 151.892C293.935 152.319 294.554 152.836 295.053 153.444C295.561 154.047 295.944 154.749 296.203 155.549C296.461 156.338 296.591 157.24 296.591 158.253C296.591 159.256 296.461 160.007 296.203 160.509C295.944 161.01 295.561 161.274 295.053 161.3C294.554 161.322 293.935 161.119 293.196 160.692ZM293.196 159.508C293.667 159.78 294.06 159.9 294.374 159.868C294.688 159.836 294.923 159.642 295.08 159.284C295.247 158.922 295.33 158.394 295.33 157.7V157.348C295.33 156.644 295.247 156.02 295.08 155.476C294.923 154.938 294.688 154.471 294.374 154.076C294.06 153.681 293.667 153.348 293.196 153.076C292.725 152.804 292.328 152.681 292.005 152.707C291.691 152.739 291.455 152.934 291.298 153.291C291.141 153.648 291.063 154.179 291.063 154.883V155.235C291.063 155.928 291.141 156.55 291.298 157.099C291.455 157.638 291.691 158.105 292.005 158.499C292.328 158.899 292.725 159.236 293.196 159.508ZM298.105 163.336V154.92L299.089 155.488L299.199 156.944L299.296 157C299.37 156.776 299.472 156.584 299.601 156.424C299.73 156.254 299.906 156.158 300.128 156.136C300.349 156.105 300.622 156.182 300.945 156.369C301.083 156.449 301.208 156.537 301.319 156.633C301.439 156.724 301.527 156.801 301.582 156.865V158.161L301.125 157.897C300.811 157.715 300.539 157.622 300.308 157.617C300.086 157.606 299.901 157.67 299.754 157.808C299.606 157.947 299.495 158.15 299.421 158.416C299.356 158.688 299.324 159 299.324 159.352V164.04L298.105 163.336ZM304.409 167.17C304.03 166.951 303.735 166.701 303.522 166.418C303.31 166.124 303.157 165.818 303.065 165.498C302.973 165.167 302.926 164.847 302.926 164.538V158.89L301.984 158.345V157.161L302.954 157.722L303.176 155.498L304.146 156.058V158.41L305.517 159.202V160.386L304.146 159.594V165.034C304.146 165.301 304.187 165.527 304.27 165.714C304.353 165.89 304.51 166.045 304.741 166.178L305.517 166.626V167.554C305.425 167.554 305.314 167.533 305.185 167.49C305.055 167.448 304.921 167.397 304.783 167.338C304.654 167.296 304.529 167.239 304.409 167.17ZM312.484 171.836C311.782 171.43 311.191 170.934 310.71 170.347C310.239 169.755 309.879 169.061 309.63 168.267C309.39 167.467 309.27 166.571 309.27 165.579C309.27 164.587 309.39 163.835 309.63 163.323C309.879 162.816 310.244 162.542 310.724 162.499C311.214 162.462 311.814 162.649 312.525 163.06C313.024 163.348 313.453 163.671 313.814 164.028C314.183 164.391 314.488 164.786 314.728 165.212C314.968 165.639 315.144 166.087 315.254 166.556C315.375 167.031 315.435 167.53 315.435 168.053L314.202 167.34C314.202 166.849 314.142 166.415 314.021 166.036C313.911 165.652 313.731 165.313 313.481 165.02C313.232 164.716 312.904 164.446 312.498 164.212C312.091 163.977 311.74 163.881 311.445 163.923C311.149 163.955 310.923 164.15 310.766 164.507C310.609 164.864 310.53 165.411 310.53 166.147V166.483C310.53 167.176 310.604 167.795 310.752 168.339C310.909 168.888 311.135 169.355 311.431 169.739C311.726 170.123 312.087 170.438 312.511 170.684C312.927 170.924 313.259 171.031 313.509 171.004C313.767 170.983 313.952 170.844 314.063 170.588C314.183 170.337 314.243 169.988 314.243 169.54L315.435 170.229C315.435 170.698 315.375 171.101 315.254 171.436C315.144 171.778 314.968 172.028 314.728 172.188C314.488 172.348 314.183 172.407 313.814 172.364C313.444 172.311 313.001 172.134 312.484 171.836ZM316.897 174.193V162.625L318.116 163.33V167.538L318.213 167.594C318.398 167.413 318.606 167.298 318.836 167.25C319.067 167.202 319.321 167.216 319.598 167.29C319.885 167.36 320.194 167.49 320.527 167.683C320.988 167.949 321.39 168.272 321.732 168.651C322.083 169.035 322.355 169.486 322.549 170.003C322.752 170.526 322.854 171.134 322.854 171.827V177.635L321.635 176.931V171.315C321.635 170.963 321.593 170.651 321.51 170.379C321.436 170.112 321.33 169.875 321.192 169.667C321.062 169.464 320.901 169.28 320.707 169.115C320.522 168.955 320.314 168.808 320.083 168.674C319.742 168.477 319.418 168.386 319.114 168.402C318.809 168.407 318.564 168.538 318.379 168.794C318.204 169.045 318.116 169.431 318.116 169.954V174.898L316.897 174.193ZM326.532 179.952C326.264 179.798 325.996 179.606 325.728 179.376C325.461 179.147 325.211 178.88 324.98 178.576C324.749 178.272 324.565 177.93 324.426 177.552C324.288 177.162 324.218 176.738 324.218 176.28C324.218 175.704 324.338 175.298 324.579 175.064C324.819 174.829 325.151 174.733 325.576 174.776C326.01 174.814 326.523 174.966 327.114 175.233C327.705 175.489 328.347 175.817 329.039 176.217V175.257C329.039 174.948 328.993 174.654 328.901 174.377C328.809 174.1 328.642 173.833 328.402 173.577C328.171 173.316 327.839 173.059 327.405 172.809C326.989 172.568 326.657 172.44 326.407 172.424C326.167 172.403 325.996 172.459 325.895 172.592C325.802 172.731 325.756 172.917 325.756 173.152V173.392L324.579 172.712C324.569 172.653 324.565 172.597 324.565 172.544C324.565 172.49 324.565 172.426 324.565 172.352C324.565 171.84 324.685 171.482 324.925 171.28C325.174 171.072 325.521 171.011 325.964 171.096C326.407 171.171 326.915 171.374 327.488 171.705C328.097 172.057 328.605 172.452 329.012 172.889C329.427 173.332 329.737 173.799 329.94 174.289C330.152 174.786 330.259 175.295 330.259 175.818V180.378C330.259 180.58 330.3 180.748 330.383 180.882C330.466 181.004 330.568 181.1 330.688 181.17L331.228 181.482V182.41C331.099 182.399 330.956 182.37 330.799 182.322C330.642 182.284 330.462 182.207 330.259 182.09C330.018 181.951 329.82 181.777 329.663 181.569C329.506 181.372 329.386 181.153 329.303 180.913C329.22 180.663 329.164 180.407 329.136 180.145L329.039 180.089C328.873 180.26 328.661 180.372 328.402 180.425C328.153 180.473 327.871 180.459 327.557 180.385C327.243 180.31 326.901 180.166 326.532 179.952ZM326.837 178.944C327.132 179.115 327.409 179.222 327.668 179.265C327.936 179.313 328.171 179.3 328.374 179.225C328.578 179.14 328.739 178.993 328.859 178.785C328.979 178.577 329.039 178.308 329.039 177.977V177.273C328.291 176.841 327.654 176.521 327.128 176.313C326.601 176.104 326.195 176.04 325.908 176.12C325.631 176.205 325.493 176.472 325.493 176.92C325.493 177.208 325.548 177.475 325.659 177.72C325.77 177.965 325.927 178.195 326.13 178.408C326.333 178.611 326.569 178.79 326.837 178.944ZM333.956 184.242C333.578 184.023 333.282 183.773 333.07 183.49C332.857 183.196 332.705 182.89 332.613 182.57C332.52 182.239 332.474 181.919 332.474 181.61V175.962L331.532 175.417V174.233L332.502 174.794L332.723 172.57L333.693 173.13V175.482L335.065 176.274V177.458L333.693 176.666V182.106C333.693 182.373 333.735 182.599 333.818 182.786C333.901 182.962 334.058 183.117 334.289 183.25L335.065 183.698V184.626C334.972 184.626 334.862 184.605 334.732 184.562C334.603 184.52 334.469 184.469 334.331 184.41C334.201 184.368 334.077 184.311 333.956 184.242ZM341.089 188.363C340.821 188.209 340.554 188.016 340.286 187.787C340.018 187.558 339.769 187.291 339.538 186.987C339.307 186.683 339.122 186.341 338.983 185.963C338.845 185.573 338.776 185.149 338.776 184.691C338.776 184.115 338.896 183.709 339.136 183.475C339.376 183.24 339.708 183.144 340.133 183.187C340.567 183.224 341.08 183.377 341.671 183.643C342.262 183.9 342.904 184.228 343.597 184.628V183.668C343.597 183.359 343.551 183.065 343.458 182.788C343.366 182.511 343.2 182.244 342.96 181.988C342.729 181.726 342.396 181.47 341.962 181.22C341.546 180.979 341.214 180.851 340.965 180.835C340.724 180.814 340.554 180.87 340.452 181.003C340.36 181.142 340.313 181.328 340.313 181.563V181.803L339.136 181.123C339.127 181.064 339.122 181.008 339.122 180.955C339.122 180.901 339.122 180.837 339.122 180.763C339.122 180.251 339.242 179.893 339.482 179.691C339.732 179.483 340.078 179.422 340.521 179.507C340.965 179.582 341.473 179.785 342.045 180.116C342.655 180.468 343.163 180.863 343.569 181.3C343.985 181.743 344.294 182.21 344.497 182.7C344.71 183.196 344.816 183.706 344.816 184.228V188.788C344.816 188.991 344.858 189.159 344.941 189.292C345.024 189.415 345.125 189.511 345.245 189.581L345.786 189.893V190.821C345.656 190.81 345.513 190.781 345.356 190.733C345.199 190.695 345.019 190.618 344.816 190.5C344.576 190.362 344.377 190.188 344.22 189.98C344.063 189.783 343.943 189.564 343.86 189.324C343.777 189.073 343.721 188.817 343.694 188.556L343.597 188.5C343.431 188.671 343.218 188.783 342.96 188.836C342.71 188.884 342.428 188.87 342.114 188.796C341.8 188.721 341.459 188.577 341.089 188.363ZM341.394 187.355C341.69 187.526 341.967 187.633 342.225 187.676C342.493 187.724 342.729 187.71 342.932 187.636C343.135 187.551 343.297 187.404 343.417 187.196C343.537 186.988 343.597 186.719 343.597 186.388V185.684C342.849 185.252 342.211 184.932 341.685 184.723C341.159 184.515 340.752 184.451 340.466 184.531C340.189 184.616 340.05 184.883 340.05 185.331C340.05 185.619 340.106 185.886 340.216 186.131C340.327 186.376 340.484 186.606 340.688 186.819C340.891 187.022 341.126 187.201 341.394 187.355ZM348.514 192.653C348.135 192.434 347.84 192.183 347.627 191.901C347.415 191.607 347.262 191.301 347.17 190.981C347.078 190.65 347.031 190.33 347.031 190.021V184.373L346.089 183.828V182.644L347.059 183.205L347.281 180.981L348.251 181.541V183.893L349.622 184.685V185.869L348.251 185.077V190.517C348.251 190.784 348.292 191.01 348.375 191.197C348.458 191.373 348.615 191.528 348.846 191.661L349.622 192.109V193.037C349.53 193.037 349.419 193.016 349.29 192.973C349.16 192.931 349.026 192.88 348.888 192.821C348.759 192.778 348.634 192.722 348.514 192.653ZM355.217 196.334L353.014 186.645L354.275 187.374L355.383 192.638C355.439 192.894 355.49 193.169 355.536 193.462C355.591 193.75 355.642 194.02 355.688 194.27C355.744 194.516 355.781 194.702 355.799 194.83L355.882 194.878C355.919 194.697 355.961 194.492 356.007 194.262C356.062 194.038 356.108 193.82 356.145 193.606C356.192 193.398 356.228 193.238 356.256 193.126L357.254 189.095L358.57 189.855L359.581 195.047C359.618 195.25 359.66 195.487 359.706 195.759C359.752 196.021 359.798 196.282 359.844 196.544C359.9 196.81 359.937 197.04 359.955 197.232L360.038 197.28C360.075 197.13 360.117 196.957 360.163 196.76C360.209 196.552 360.26 196.346 360.315 196.144C360.371 195.93 360.422 195.746 360.468 195.592L361.562 191.584L362.726 192.256L360.537 199.408L359.29 198.687L358.348 193.791C358.311 193.567 358.265 193.306 358.21 193.007C358.154 192.698 358.099 192.388 358.043 192.079C357.997 191.764 357.956 191.49 357.919 191.255L357.836 191.207C357.817 191.356 357.785 191.54 357.739 191.759C357.702 191.983 357.655 192.228 357.6 192.495C357.545 192.751 357.48 193.001 357.406 193.247L356.464 197.054L355.217 196.334ZM365.229 202.118L363.026 192.43L364.287 193.158L365.395 198.423C365.45 198.679 365.501 198.953 365.547 199.247C365.603 199.535 365.654 199.804 365.7 200.055C365.755 200.3 365.792 200.487 365.811 200.615L365.894 200.663C365.931 200.481 365.972 200.276 366.018 200.047C366.074 199.823 366.12 199.604 366.157 199.391C366.203 199.183 366.24 199.023 366.268 198.911L367.265 194.879L368.581 195.64L369.593 200.832C369.63 201.035 369.671 201.272 369.717 201.544C369.764 201.805 369.81 202.067 369.856 202.328C369.911 202.595 369.948 202.824 369.967 203.016L370.05 203.064C370.087 202.915 370.128 202.741 370.175 202.544C370.221 202.336 370.272 202.131 370.327 201.928C370.382 201.715 370.433 201.531 370.479 201.376L371.574 197.369L372.737 198.041L370.549 205.192L369.302 204.472L368.36 199.575C368.323 199.351 368.277 199.09 368.221 198.791C368.166 198.482 368.11 198.173 368.055 197.863C368.009 197.549 367.967 197.274 367.93 197.039L367.847 196.991C367.829 197.141 367.796 197.325 367.75 197.543C367.713 197.767 367.667 198.013 367.612 198.279C367.556 198.535 367.492 198.786 367.418 199.031L366.476 202.839L365.229 202.118ZM375.24 207.903L373.038 198.214L374.298 198.943L375.407 204.207C375.462 204.463 375.513 204.738 375.559 205.031C375.614 205.319 375.665 205.588 375.711 205.839C375.767 206.084 375.804 206.271 375.822 206.399L375.905 206.447C375.942 206.266 375.984 206.061 376.03 205.831C376.085 205.607 376.132 205.389 376.168 205.175C376.215 204.967 376.252 204.807 376.279 204.695L377.277 200.664L378.593 201.424L379.604 206.616C379.641 206.819 379.683 207.056 379.729 207.328C379.775 207.59 379.821 207.851 379.867 208.112C379.923 208.379 379.96 208.608 379.978 208.8L380.061 208.848C380.098 208.699 380.14 208.526 380.186 208.329C380.232 208.121 380.283 207.915 380.338 207.713C380.394 207.499 380.445 207.315 380.491 207.161L381.585 203.153L382.749 203.825L380.56 210.977L379.313 210.256L378.371 205.36C378.334 205.136 378.288 204.875 378.233 204.576C378.177 204.267 378.122 203.957 378.066 203.648C378.02 203.333 377.979 203.058 377.942 202.824L377.859 202.776C377.84 202.925 377.808 203.109 377.762 203.328C377.725 203.552 377.679 203.797 377.623 204.064C377.568 204.32 377.503 204.57 377.429 204.816L376.487 208.623L375.24 207.903ZM382.466 212.078V210.398L383.823 211.182V212.862L382.466 212.078ZM386.031 214.137V202.569L387.25 203.274V214.842L386.031 214.137ZM391.401 217.432C390.699 217.027 390.135 216.493 389.711 215.832C389.286 215.17 389.073 214.322 389.073 213.287V207.479L390.292 208.184V213.8C390.292 214.152 390.329 214.461 390.403 214.728C390.477 214.994 390.583 215.232 390.722 215.44C390.86 215.648 391.022 215.832 391.207 215.992C391.401 216.157 391.608 216.304 391.83 216.432C392.181 216.635 392.504 216.726 392.8 216.705C393.095 216.683 393.336 216.545 393.52 216.289C393.714 216.027 393.811 215.652 393.811 215.161V210.217L395.03 210.921V219.337L394.047 218.769L393.936 217.441L393.839 217.385C393.645 217.614 393.423 217.763 393.174 217.833C392.934 217.907 392.661 217.904 392.357 217.824C392.061 217.76 391.742 217.63 391.401 217.432ZM396.922 220.43V212.014L397.905 212.582L398.016 213.91L398.113 213.966C398.307 213.737 398.524 213.585 398.764 213.511C399.014 213.441 399.286 213.444 399.582 213.519C399.886 213.588 400.21 213.722 400.551 213.919C401.013 214.186 401.415 214.509 401.757 214.888C402.108 215.272 402.38 215.722 402.574 216.24C402.777 216.763 402.879 217.371 402.879 218.064V223.872L401.66 223.168V217.552C401.66 217.2 401.618 216.888 401.535 216.616C401.461 216.349 401.355 216.111 401.216 215.903C401.087 215.701 400.926 215.517 400.732 215.351C400.547 215.191 400.339 215.044 400.108 214.911C399.766 214.714 399.443 214.623 399.138 214.639C398.834 214.655 398.589 214.791 398.404 215.047C398.229 215.308 398.141 215.689 398.141 216.19V221.134L396.922 220.43ZM407.637 226.813C406.917 226.397 406.307 225.89 405.809 225.293C405.319 224.69 404.945 223.988 404.687 223.188C404.437 222.394 404.312 221.495 404.312 220.492C404.312 219.479 404.437 218.724 404.687 218.228C404.945 217.727 405.324 217.466 405.823 217.445C406.321 217.413 406.945 217.613 407.693 218.045C408.376 218.44 408.949 218.926 409.411 219.502C409.872 220.067 410.219 220.721 410.45 221.462C410.69 222.198 410.81 223.02 410.81 223.926V224.598L405.573 221.573C405.592 222.255 405.675 222.858 405.823 223.381C405.98 223.898 406.21 224.346 406.515 224.725C406.82 225.093 407.203 225.41 407.665 225.677C407.979 225.859 408.252 225.973 408.482 226.022C408.723 226.064 408.921 226.046 409.078 225.966C409.244 225.891 409.369 225.76 409.452 225.574C409.535 225.387 409.582 225.158 409.591 224.886L410.782 225.574C410.773 226.017 410.699 226.39 410.561 226.694C410.422 226.988 410.219 227.19 409.951 227.302C409.683 227.414 409.355 227.432 408.967 227.358C408.579 227.283 408.136 227.101 407.637 226.813ZM405.601 220.533L409.549 222.814C409.549 222.345 409.503 221.923 409.411 221.55C409.318 221.176 409.184 220.838 409.009 220.534C408.843 220.235 408.644 219.976 408.413 219.758C408.192 219.533 407.938 219.339 407.651 219.173C407.226 218.928 406.866 218.81 406.571 218.821C406.275 218.832 406.049 218.978 405.892 219.261C405.735 219.543 405.638 219.967 405.601 220.533ZM411.515 228.862L414.134 226.071L411.64 220.518L413.109 221.366L414.882 225.399L414.951 225.439L416.724 223.456L418.11 224.256L415.616 226.879L418.248 232.752L416.794 231.912L414.882 227.559L414.813 227.519L412.901 229.662L411.515 228.862ZM421.929 235.071C421.431 234.783 420.992 234.47 420.613 234.134C420.234 233.798 419.92 233.446 419.671 233.078C419.422 232.71 419.232 232.334 419.103 231.95C418.974 231.566 418.909 231.176 418.909 230.782C418.909 230.728 418.909 230.68 418.909 230.638C418.909 230.584 418.914 230.544 418.923 230.518L420.128 231.214C420.119 231.252 420.114 231.286 420.114 231.318C420.114 231.35 420.114 231.382 420.114 231.414C420.124 231.793 420.207 232.134 420.364 232.438C420.53 232.748 420.756 233.028 421.043 233.279C421.329 233.529 421.648 233.756 421.999 233.959C422.303 234.135 422.585 234.255 422.844 234.319C423.102 234.373 423.305 234.351 423.453 234.255C423.61 234.154 423.689 233.959 423.689 233.671C423.689 233.319 423.587 232.994 423.384 232.695C423.19 232.391 422.931 232.092 422.608 231.799C422.285 231.506 421.948 231.199 421.597 230.879C421.301 230.612 421.006 230.335 420.71 230.046C420.415 229.758 420.147 229.46 419.907 229.15C419.676 228.846 419.486 228.518 419.339 228.166C419.2 227.809 419.131 227.422 419.131 227.006C419.131 226.633 419.195 226.339 419.325 226.126C419.463 225.918 419.657 225.785 419.907 225.726C420.156 225.668 420.456 225.692 420.807 225.798C421.167 225.9 421.564 226.076 421.999 226.327C422.46 226.594 422.862 226.884 423.204 227.199C423.555 227.519 423.846 227.853 424.077 228.199C424.307 228.546 424.478 228.89 424.589 229.232C424.7 229.562 424.755 229.882 424.755 230.192C424.755 230.256 424.755 230.32 424.755 230.384C424.755 230.437 424.751 230.477 424.742 230.504L423.55 229.815V229.639C423.55 229.426 423.499 229.194 423.398 228.943C423.305 228.687 423.139 228.431 422.899 228.175C422.668 227.914 422.345 227.663 421.929 227.423C421.661 227.268 421.431 227.161 421.237 227.103C421.043 227.033 420.881 227.014 420.752 227.046C420.622 227.068 420.525 227.129 420.461 227.23C420.396 227.321 420.364 227.452 420.364 227.622C420.364 227.9 420.442 228.158 420.599 228.398C420.756 228.638 420.964 228.881 421.223 229.127C421.491 229.377 421.777 229.649 422.082 229.943C422.405 230.236 422.733 230.538 423.065 230.847C423.407 231.151 423.716 231.469 423.993 231.799C424.28 232.136 424.506 232.501 424.672 232.896C424.848 233.285 424.936 233.72 424.936 234.2C424.936 234.648 424.862 234.994 424.714 235.24C424.566 235.485 424.354 235.634 424.077 235.687C423.809 235.746 423.49 235.717 423.121 235.599C422.76 235.498 422.363 235.322 421.929 235.071ZM428.701 238.983C427.999 238.578 427.435 238.044 427.01 237.383C426.586 236.721 426.373 235.873 426.373 234.838V229.03L427.592 229.735V235.351C427.592 235.703 427.629 236.012 427.703 236.279C427.777 236.545 427.883 236.783 428.022 236.991C428.16 237.199 428.322 237.383 428.507 237.543C428.701 237.708 428.908 237.855 429.13 237.983C429.481 238.186 429.804 238.277 430.1 238.256C430.395 238.234 430.635 238.096 430.82 237.84C431.014 237.579 431.111 237.203 431.111 236.712V231.768L432.33 232.472V240.888L431.347 240.32L431.236 238.992L431.139 238.936C430.945 239.165 430.723 239.314 430.474 239.384C430.234 239.458 429.961 239.455 429.656 239.375C429.361 239.311 429.042 239.181 428.701 238.983ZM434.222 244.749V233.565L435.191 234.125L435.316 235.397L435.413 235.453C435.662 235.128 435.981 234.966 436.369 234.966C436.757 234.955 437.196 235.091 437.685 235.374C438.295 235.726 438.812 236.18 439.237 236.735C439.662 237.289 439.989 237.964 440.22 238.759C440.451 239.543 440.567 240.458 440.567 241.503C440.567 242.484 440.447 243.231 440.206 243.743C439.976 244.25 439.648 244.535 439.223 244.599C438.798 244.663 438.304 244.532 437.74 244.206C437.426 244.025 437.131 243.811 436.854 243.566C436.577 243.32 436.327 243.043 436.106 242.734C435.884 242.414 435.69 242.062 435.524 241.677L435.441 241.629V245.453L434.222 244.749ZM437.353 242.75C437.805 243.012 438.175 243.124 438.461 243.086C438.747 243.039 438.96 242.836 439.098 242.479C439.237 242.111 439.306 241.58 439.306 240.887V240.551C439.306 239.815 439.232 239.185 439.084 238.663C438.937 238.129 438.719 237.684 438.433 237.326C438.156 236.974 437.81 236.678 437.394 236.438C436.942 236.177 436.568 236.078 436.272 236.142C435.986 236.2 435.773 236.419 435.635 236.798C435.505 237.181 435.441 237.704 435.441 238.365V238.605C435.441 239.192 435.487 239.709 435.579 240.157C435.681 240.6 435.819 240.99 435.995 241.326C436.18 241.667 436.387 241.952 436.618 242.182C436.849 242.411 437.094 242.601 437.353 242.75ZM442.082 249.291V238.107L443.052 238.667L443.176 239.939L443.273 239.995C443.523 239.67 443.841 239.507 444.229 239.507C444.617 239.497 445.056 239.633 445.545 239.916C446.155 240.268 446.672 240.721 447.097 241.276C447.522 241.831 447.85 242.506 448.081 243.301C448.312 244.085 448.427 244.999 448.427 246.045C448.427 247.026 448.307 247.773 448.067 248.285C447.836 248.791 447.508 249.076 447.083 249.14C446.658 249.204 446.164 249.073 445.601 248.748C445.287 248.566 444.991 248.353 444.714 248.107C444.437 247.862 444.188 247.585 443.966 247.275C443.744 246.955 443.551 246.603 443.384 246.219L443.301 246.171V249.995L442.082 249.291ZM445.213 247.292C445.666 247.553 446.035 247.665 446.321 247.628C446.608 247.58 446.82 247.377 446.959 247.02C447.097 246.652 447.166 246.122 447.166 245.428V245.092C447.166 244.356 447.093 243.727 446.945 243.204C446.797 242.671 446.58 242.225 446.294 241.868C446.017 241.516 445.67 241.22 445.255 240.98C444.802 240.718 444.428 240.619 444.132 240.683C443.846 240.742 443.634 240.96 443.495 241.339C443.366 241.723 443.301 242.246 443.301 242.907V243.147C443.301 243.734 443.347 244.251 443.44 244.699C443.541 245.142 443.68 245.531 443.855 245.867C444.04 246.209 444.248 246.494 444.479 246.723C444.71 246.953 444.954 247.142 445.213 247.292ZM452.935 252.985C452.196 252.558 451.573 252.043 451.065 251.441C450.566 250.832 450.183 250.126 449.915 249.32C449.656 248.52 449.527 247.619 449.527 246.616C449.527 245.603 449.656 244.851 449.915 244.36C450.183 243.864 450.566 243.606 451.065 243.585C451.573 243.558 452.196 243.758 452.935 244.185C453.674 244.612 454.293 245.13 454.791 245.738C455.299 246.341 455.683 247.042 455.941 247.842C456.2 248.632 456.329 249.533 456.329 250.546C456.329 251.549 456.2 252.301 455.941 252.802C455.683 253.303 455.299 253.567 454.791 253.594C454.293 253.615 453.674 253.412 452.935 252.985ZM452.935 251.801C453.406 252.073 453.798 252.193 454.112 252.162C454.426 252.13 454.662 251.935 454.819 251.578C454.985 251.215 455.068 250.687 455.068 249.994V249.642C455.068 248.938 454.985 248.314 454.819 247.77C454.662 247.231 454.426 246.764 454.112 246.37C453.798 245.975 453.406 245.641 452.935 245.369C452.464 245.097 452.067 244.974 451.743 245.001C451.429 245.033 451.194 245.227 451.037 245.585C450.88 245.942 450.801 246.472 450.801 247.176V247.528C450.801 248.222 450.88 248.843 451.037 249.393C451.194 249.931 451.429 250.398 451.743 250.793C452.067 251.193 452.464 251.529 452.935 251.801ZM457.843 255.629V247.213L458.827 247.782L458.938 249.238L459.035 249.294C459.109 249.07 459.21 248.878 459.34 248.718C459.469 248.547 459.644 248.451 459.866 248.43C460.088 248.398 460.36 248.475 460.684 248.662C460.822 248.742 460.947 248.83 461.058 248.926C461.178 249.017 461.265 249.094 461.321 249.158V250.454L460.864 250.19C460.55 250.009 460.277 249.915 460.046 249.91C459.825 249.899 459.64 249.963 459.492 250.102C459.344 250.24 459.233 250.443 459.16 250.71C459.095 250.982 459.063 251.294 459.063 251.646V256.334L457.843 255.629ZM464.147 259.464C463.769 259.245 463.473 258.994 463.261 258.711C463.048 258.418 462.896 258.111 462.804 257.791C462.711 257.46 462.665 257.14 462.665 256.831V251.183L461.723 250.639V249.455L462.693 250.015L462.914 247.791L463.884 248.351V250.703L465.256 251.496V252.68L463.884 251.887V257.327C463.884 257.594 463.926 257.821 464.009 258.007C464.092 258.184 464.249 258.338 464.48 258.472L465.256 258.92V259.848C465.163 259.848 465.053 259.826 464.923 259.784C464.794 259.741 464.66 259.69 464.521 259.632C464.392 259.589 464.267 259.533 464.147 259.464ZM466.293 260.511V260.047C466.293 259.599 466.367 259.231 466.515 258.943C466.672 258.65 466.875 258.421 467.124 258.255C467.383 258.085 467.674 257.949 467.997 257.848C468.32 257.747 468.648 257.653 468.981 257.568C469.433 257.467 469.849 257.344 470.228 257.2C470.615 257.062 470.925 256.851 471.156 256.569C471.387 256.276 471.502 255.868 471.502 255.345C471.502 255.014 471.433 254.676 471.294 254.329C471.165 253.977 470.966 253.643 470.699 253.329C470.431 253.014 470.089 252.736 469.673 252.496C469.184 252.213 468.791 252.083 468.496 252.104C468.2 252.125 467.983 252.256 467.845 252.496C467.715 252.741 467.651 253.056 467.651 253.44V254.096L466.445 253.399C466.436 253.341 466.427 253.255 466.418 253.143C466.408 253.021 466.404 252.885 466.404 252.735C466.404 251.946 466.556 251.399 466.861 251.095C467.166 250.781 467.572 250.658 468.08 250.728C468.588 250.787 469.138 250.987 469.729 251.328C470.255 251.632 470.708 251.979 471.086 252.369C471.465 252.748 471.779 253.153 472.029 253.585C472.278 254.017 472.463 254.455 472.583 254.897C472.703 255.329 472.763 255.748 472.763 256.153C472.763 256.655 472.684 257.068 472.527 257.393C472.379 257.724 472.167 257.99 471.89 258.193C471.622 258.39 471.303 258.547 470.934 258.665C470.574 258.787 470.181 258.896 469.756 258.992C469.461 259.046 469.17 259.117 468.884 259.208C468.597 259.288 468.353 259.397 468.149 259.536C467.946 259.674 467.817 259.845 467.762 260.048L472.818 262.969V264.281L466.293 260.511ZM478.268 267.43V264.742L473.849 262.189V261.005C474.237 260.461 474.588 259.89 474.902 259.293C475.225 258.701 475.511 258.067 475.761 257.389C476.019 256.717 476.232 255.981 476.398 255.182L477.7 255.934C477.58 256.451 477.432 256.969 477.257 257.486C477.081 257.992 476.887 258.472 476.675 258.926C476.462 259.379 476.25 259.795 476.038 260.173C475.834 260.557 475.64 260.877 475.456 261.133C475.28 261.394 475.137 261.578 475.026 261.685L478.268 263.558V260.07C478.323 259.931 478.379 259.787 478.434 259.638C478.499 259.484 478.559 259.326 478.614 259.166C478.67 258.996 478.721 258.838 478.767 258.694C478.813 258.54 478.85 258.39 478.878 258.246L479.487 258.598V264.262L480.748 264.991V266.175L479.487 265.446V268.134L478.268 267.43ZM483.154 270.253C483.154 269.261 483.265 268.371 483.487 267.581C483.708 266.792 483.995 266.088 484.346 265.47C484.706 264.856 485.098 264.32 485.523 263.862C485.948 263.403 486.364 263.009 486.77 262.678L481.686 259.741V258.429L488.377 262.295V263.175C488.035 263.436 487.68 263.743 487.31 264.095C486.95 264.441 486.604 264.833 486.271 265.27C485.939 265.697 485.639 266.169 485.371 266.686C485.103 267.203 484.89 267.763 484.733 268.366C484.576 268.958 484.498 269.595 484.498 270.278V271.03L483.154 270.253ZM488.372 273.268V271.588L489.729 272.372V274.052L488.372 273.268ZM494.708 277.121C494.006 276.715 493.415 276.219 492.934 275.632C492.463 275.04 492.103 274.346 491.854 273.552C491.614 272.752 491.494 271.856 491.494 270.864C491.494 269.872 491.614 269.12 491.854 268.608C492.103 268.101 492.468 267.827 492.948 267.784C493.438 267.747 494.038 267.934 494.749 268.345C495.248 268.633 495.677 268.956 496.038 269.313C496.407 269.676 496.712 270.071 496.952 270.497C497.192 270.924 497.368 271.372 497.478 271.841C497.599 272.316 497.659 272.815 497.659 273.338L496.426 272.625C496.426 272.134 496.366 271.7 496.245 271.321C496.135 270.937 495.955 270.598 495.705 270.305C495.456 270.001 495.128 269.731 494.722 269.497C494.315 269.262 493.964 269.166 493.669 269.208C493.373 269.24 493.147 269.435 492.99 269.792C492.833 270.149 492.754 270.696 492.754 271.432V271.768C492.754 272.461 492.828 273.08 492.976 273.624C493.133 274.173 493.359 274.64 493.655 275.024C493.95 275.408 494.311 275.723 494.735 275.969C495.151 276.209 495.484 276.315 495.733 276.289C495.991 276.268 496.176 276.129 496.287 275.873C496.407 275.622 496.467 275.273 496.467 274.825L497.659 275.514C497.659 275.983 497.599 276.385 497.478 276.721C497.368 277.063 497.192 277.313 496.952 277.473C496.712 277.633 496.407 277.692 496.038 277.649C495.668 277.596 495.225 277.419 494.708 277.121ZM502.113 281.399C501.374 280.972 500.751 280.458 500.243 279.855C499.744 279.247 499.361 278.54 499.093 277.734C498.835 276.934 498.705 276.033 498.705 275.03C498.705 274.017 498.835 273.265 499.093 272.774C499.361 272.278 499.744 272.02 500.243 271.999C500.751 271.972 501.374 272.172 502.113 272.599C502.852 273.026 503.471 273.544 503.97 274.152C504.478 274.755 504.861 275.456 505.12 276.256C505.378 277.046 505.508 277.947 505.508 278.96C505.508 279.963 505.378 280.715 505.12 281.216C504.861 281.718 504.478 281.981 503.97 282.008C503.471 282.029 502.852 281.826 502.113 281.399ZM502.113 280.215C502.584 280.488 502.977 280.608 503.291 280.576C503.605 280.544 503.84 280.349 503.997 279.992C504.164 279.629 504.247 279.101 504.247 278.408V278.056C504.247 277.352 504.164 276.728 503.997 276.184C503.84 275.645 503.605 275.179 503.291 274.784C502.977 274.389 502.584 274.056 502.113 273.783C501.642 273.511 501.245 273.388 500.922 273.415C500.608 273.447 500.372 273.641 500.215 273.999C500.058 274.356 499.98 274.887 499.98 275.591V275.943C499.98 276.636 500.058 277.257 500.215 277.807C500.372 278.345 500.608 278.812 500.922 279.207C501.245 279.607 501.642 279.943 502.113 280.215ZM507.022 284.043V275.627L508.006 276.196L508.116 277.524L508.213 277.58C508.398 277.345 508.606 277.188 508.837 277.108C509.068 277.028 509.322 277.02 509.599 277.084C509.876 277.138 510.176 277.258 510.499 277.445C510.97 277.717 511.377 278.064 511.718 278.485C512.06 278.896 512.314 279.416 512.48 280.045L512.563 280.093C512.739 279.853 512.942 279.699 513.173 279.629C513.404 279.549 513.663 279.539 513.949 279.598C514.235 279.656 514.54 279.779 514.863 279.966C515.307 280.222 515.694 280.537 516.027 280.91C516.359 281.273 516.618 281.711 516.803 282.223C516.997 282.729 517.094 283.319 517.094 283.991V289.863L515.875 289.158V283.51C515.875 283.169 515.838 282.865 515.764 282.598C515.699 282.337 515.602 282.11 515.473 281.918C515.343 281.715 515.191 281.537 515.016 281.382C514.849 281.233 514.669 281.102 514.475 280.99C514.152 280.803 513.852 280.726 513.575 280.758C513.307 280.795 513.09 280.947 512.924 281.213C512.757 281.48 512.674 281.864 512.674 282.365V287.309L511.455 286.605V280.957C511.455 280.616 511.418 280.312 511.344 280.045C511.27 279.778 511.173 279.551 511.053 279.365C510.933 279.167 510.786 278.991 510.61 278.837C510.444 278.687 510.268 278.559 510.084 278.452C509.751 278.26 509.442 278.178 509.155 278.204C508.878 278.236 508.657 278.385 508.49 278.652C508.324 278.919 508.241 279.303 508.241 279.804V284.748L507.022 284.043Z" fill="white" fill-opacity="0.9"/>
<path d="M75.3275 420.64V396.035C75.3275 394.958 75.6666 394.224 76.345 393.832C77.0233 393.441 77.8289 393.514 78.7616 394.053L89.8696 400.471C90.7882 401.002 91.5797 401.851 92.2439 403.018C92.9222 404.193 93.2614 405.32 93.2614 406.397V431.002C93.2614 432.095 92.9222 432.838 92.2439 433.229C91.5797 433.613 90.7741 433.531 89.8272 432.984L78.7616 426.59C77.8006 426.035 76.988 425.182 76.3238 424.031C75.6596 422.864 75.3275 421.734 75.3275 420.64ZM89.7425 428.822V404.56L78.8888 398.289V422.551L89.7425 428.822ZM101.571 435.803V411.198C101.571 410.121 101.91 409.387 102.589 408.995C103.267 408.604 104.073 408.677 105.005 409.216L116.113 415.634C117.032 416.165 117.823 417.014 118.488 418.181C119.166 419.357 119.505 420.483 119.505 421.56V446.165C119.505 447.258 119.166 448.001 118.488 448.393C117.823 448.776 117.018 448.694 116.071 448.147L105.005 441.753C104.044 441.198 103.232 440.345 102.568 439.194C101.903 438.027 101.571 436.897 101.571 435.803ZM115.986 443.985V419.723L105.133 413.452V437.714L115.986 443.985ZM127.815 450.966V426.361C127.815 425.284 128.154 424.55 128.833 424.158C129.511 423.767 130.316 423.84 131.249 424.379L142.357 430.797C143.276 431.328 144.067 432.177 144.731 433.344C145.41 434.52 145.749 435.646 145.749 436.723V461.328C145.749 462.422 145.41 463.164 144.731 463.556C144.067 463.939 143.262 463.857 142.315 463.31L131.249 456.917C130.288 456.361 129.476 455.508 128.811 454.357C128.147 453.19 127.815 452.06 127.815 450.966ZM142.23 459.148V434.886L131.376 428.615V452.877L142.23 459.148ZM155.797 466.987L161.266 470.147V445.885L155.882 442.774C155.387 442.488 154.963 442.047 154.61 441.451C154.271 440.847 154.101 440.259 154.101 439.688C154.101 439.117 154.271 438.733 154.61 438.538C154.963 438.334 155.387 438.375 155.882 438.66L164.828 443.829V472.204L168.389 474.262V465.693C168.389 465.138 168.559 464.755 168.898 464.543C169.251 464.339 169.675 464.38 170.17 464.665C170.664 464.951 171.081 465.396 171.42 466C171.774 466.596 171.95 467.18 171.95 467.751V478.376C171.95 478.947 171.774 479.335 171.42 479.539C171.081 479.735 170.664 479.69 170.17 479.404L155.797 471.1C155.302 470.814 154.878 470.365 154.525 469.753C154.186 469.132 154.016 468.537 154.016 467.965C154.016 467.41 154.186 467.035 154.525 466.839C154.878 466.652 155.302 466.701 155.797 466.987ZM222.784 509.803L206.589 500.446V486.246C206.589 485.104 206.935 484.324 207.627 483.908C208.334 483.501 209.175 483.578 210.15 484.142L220.961 490.388V480.375L208.242 473.026C207.733 472.732 207.309 472.291 206.97 471.704C206.631 471.1 206.461 470.512 206.461 469.941C206.461 469.37 206.631 468.986 206.97 468.79C207.309 468.578 207.733 468.619 208.242 468.913L220.961 476.262C221.95 476.834 222.798 477.731 223.505 478.956C224.212 480.164 224.565 481.331 224.565 482.457V492.47C224.565 493.629 224.212 494.413 223.505 494.82C222.798 495.212 221.95 495.122 220.961 494.55L210.15 488.304V498.391L222.784 505.69C223.265 505.968 223.682 506.413 224.035 507.025C224.388 507.621 224.565 508.205 224.565 508.776C224.565 509.347 224.388 509.735 224.035 509.939C223.682 510.126 223.265 510.081 222.784 509.803ZM249.028 524.967L232.832 515.609V501.409C232.832 500.267 233.179 499.487 233.871 499.071C234.578 498.664 235.419 498.741 236.394 499.305L247.205 505.551V495.538L234.486 488.189C233.977 487.895 233.553 487.454 233.214 486.867C232.875 486.263 232.705 485.675 232.705 485.104C232.705 484.533 232.875 484.149 233.214 483.953C233.553 483.741 233.977 483.782 234.486 484.076L247.205 491.425C248.194 491.997 249.042 492.895 249.749 494.119C250.455 495.327 250.809 496.494 250.809 497.62V507.634C250.809 508.792 250.455 509.576 249.749 509.984C249.042 510.375 248.194 510.285 247.205 509.713L236.394 503.467V513.554L249.028 520.853C249.509 521.131 249.925 521.576 250.279 522.188C250.632 522.784 250.809 523.368 250.809 523.939C250.809 524.51 250.632 524.898 250.279 525.102C249.925 525.289 249.509 525.244 249.028 524.967ZM260.772 527.639L266.241 530.799V506.537L260.857 503.426C260.362 503.14 259.938 502.699 259.585 502.103C259.246 501.499 259.076 500.912 259.076 500.34C259.076 499.769 259.246 499.386 259.585 499.19C259.938 498.986 260.362 499.027 260.857 499.313L269.803 504.481V532.857L273.364 534.914V526.345C273.364 525.79 273.534 525.407 273.873 525.195C274.226 524.991 274.65 525.032 275.145 525.318C275.639 525.603 276.056 526.048 276.395 526.652C276.749 527.248 276.925 527.832 276.925 528.403V539.028C276.925 539.6 276.749 539.987 276.395 540.191C276.056 540.387 275.639 540.342 275.145 540.056L260.772 531.752C260.277 531.466 259.853 531.017 259.5 530.405C259.161 529.785 258.991 529.189 258.991 528.618C258.991 528.063 259.161 527.687 259.5 527.492C259.853 527.304 260.277 527.353 260.772 527.639ZM297 550.627V542.058L286.274 535.861V516.055C286.274 515.483 286.45 515.096 286.804 514.892C287.171 514.68 287.602 514.717 288.097 515.002C288.577 515.28 288.994 515.733 289.348 516.362C289.701 516.974 289.878 517.566 289.878 518.137V533.781L297 537.896V525.851C297 525.28 297.17 524.888 297.509 524.676C297.862 524.456 298.286 524.489 298.781 524.774C299.276 525.06 299.692 525.513 300.032 526.134C300.385 526.746 300.562 527.337 300.562 527.909V539.954C301.056 540.24 301.473 540.685 301.812 541.289C302.166 541.885 302.342 542.468 302.342 543.039C302.342 543.611 302.166 543.998 301.812 544.202C301.473 544.398 301.056 544.353 300.562 544.067V552.685C300.562 553.256 300.385 553.644 300.032 553.848C299.678 554.035 299.261 553.99 298.781 553.713C298.286 553.427 297.862 552.986 297.509 552.39C297.17 551.786 297 551.199 297 550.627ZM344.358 575.933L352.604 580.697V570.611L341.835 564.389V546.1L354.385 553.351C354.865 553.629 355.282 554.074 355.635 554.686C355.989 555.298 356.165 555.881 356.165 556.436C356.165 557.008 355.989 557.395 355.635 557.599C355.296 557.795 354.879 557.75 354.385 557.464L345.439 552.295V562.358L352.604 566.498C353.565 567.053 354.399 567.943 355.105 569.167C355.812 570.391 356.165 571.558 356.165 572.668V582.755C356.165 583.881 355.812 584.648 355.105 585.056C354.413 585.456 353.579 585.374 352.604 584.81L344.358 580.046C343.623 579.621 342.839 578.964 342.005 578.074L339.313 575.221C338.592 574.462 338.231 573.601 338.231 572.638C338.231 572.067 338.394 571.679 338.719 571.475C339.044 571.255 339.44 571.28 339.906 571.549C340.259 571.753 340.669 572.112 341.136 572.627L343.489 575.137C343.771 575.496 344.061 575.761 344.358 575.933ZM370.601 591.096L378.848 595.86V585.774L368.079 579.552V561.263L380.628 568.514C381.109 568.792 381.526 569.237 381.879 569.849C382.232 570.461 382.409 571.044 382.409 571.599C382.409 572.171 382.232 572.558 381.879 572.762C381.54 572.958 381.123 572.913 380.628 572.627L371.683 567.458V577.521L378.848 581.661C379.809 582.216 380.643 583.106 381.349 584.33C382.056 585.554 382.409 586.721 382.409 587.831V597.918C382.409 599.044 382.056 599.811 381.349 600.219C380.657 600.619 379.823 600.537 378.848 599.973L370.601 595.209C369.867 594.784 369.082 594.127 368.248 593.237L365.556 590.384C364.835 589.625 364.475 588.764 364.475 587.801C364.475 587.23 364.638 586.842 364.963 586.638C365.288 586.418 365.683 586.443 366.15 586.712C366.503 586.916 366.913 587.275 367.379 587.79L369.732 590.3C370.015 590.659 370.305 590.924 370.601 591.096ZM401.975 611.28V602.711L391.249 596.513V576.707C391.249 576.136 391.425 575.748 391.779 575.544C392.146 575.332 392.577 575.369 393.072 575.655C393.552 575.932 393.969 576.385 394.323 577.014C394.676 577.626 394.853 578.218 394.853 578.789V594.433L401.975 598.549V586.503C401.975 585.932 402.145 585.54 402.484 585.328C402.837 585.108 403.261 585.141 403.756 585.427C404.251 585.712 404.667 586.165 405.007 586.786C405.36 587.398 405.537 587.99 405.537 588.561V600.606C406.031 600.892 406.448 601.337 406.787 601.941C407.141 602.537 407.317 603.12 407.317 603.692C407.317 604.263 407.141 604.651 406.787 604.854C406.448 605.05 406.031 605.005 405.537 604.719V613.337C405.537 613.908 405.36 614.296 405.007 614.5C404.653 614.688 404.236 614.643 403.756 614.365C403.261 614.079 402.837 613.638 402.484 613.042C402.145 612.438 401.975 611.851 401.975 611.28ZM416.454 617.539V607.502C416.454 606.375 416.807 605.617 417.514 605.225C418.22 604.817 419.068 604.899 420.058 605.471V593.352C420.058 592.781 420.227 592.397 420.566 592.201C420.906 591.989 421.33 592.03 421.838 592.324L429.088 596.513C429.583 596.799 430 597.244 430.339 597.848C430.692 598.444 430.869 599.027 430.869 599.598V611.717C431.83 612.272 432.664 613.154 433.37 614.362C434.077 615.554 434.43 616.729 434.43 617.888V627.975C434.43 629.101 434.077 629.868 433.37 630.276C432.664 630.667 431.83 630.585 430.869 630.03L420.058 623.784C419.054 623.204 418.199 622.286 417.493 621.029C416.8 619.78 416.454 618.617 416.454 617.539ZM423.619 597.466V607.528L427.308 609.66V599.597L423.619 597.466ZM420.058 609.584V619.671L430.869 625.917V615.83L420.058 609.584ZM470.892 620.666L472.672 621.695C473.167 621.981 473.584 622.426 473.923 623.03C474.276 623.642 474.453 624.225 474.453 624.78C474.453 625.352 474.276 625.739 473.923 625.943C473.584 626.139 473.167 626.094 472.672 625.808V639.396L485.222 646.647C485.702 646.924 486.119 647.377 486.473 648.006C486.826 648.618 487.002 649.21 487.002 649.781V660.406C487.002 660.978 486.819 661.361 486.451 661.557C486.098 661.744 485.674 661.695 485.179 661.41L470.892 653.154C470.397 652.869 469.966 652.416 469.599 651.795C469.245 651.183 469.069 650.599 469.069 650.045V621.669C469.069 621.098 469.245 620.719 469.599 620.531C469.952 620.327 470.383 620.372 470.892 620.666ZM472.63 643.533V650.046L483.399 656.268V649.755L472.63 643.533ZM497.135 635.829L498.916 636.858C499.411 637.144 499.828 637.589 500.167 638.193C500.52 638.805 500.697 639.388 500.697 639.943C500.697 640.515 500.52 640.902 500.167 641.106C499.828 641.302 499.411 641.257 498.916 640.971V654.559L511.466 661.81C511.946 662.087 512.363 662.54 512.716 663.169C513.07 663.781 513.246 664.373 513.246 664.944V675.569C513.246 676.141 513.063 676.524 512.695 676.72C512.342 676.908 511.918 676.858 511.423 676.573L497.135 668.317C496.641 668.032 496.21 667.579 495.842 666.958C495.489 666.346 495.312 665.763 495.312 665.208V636.832C495.312 636.261 495.489 635.882 495.842 635.694C496.196 635.49 496.627 635.535 497.135 635.829ZM498.874 658.696V665.209L509.643 671.431V664.918L498.874 658.696ZM537.709 691.711L535.929 690.682C535.448 690.405 535.031 689.968 534.678 689.372C534.325 688.76 534.148 688.168 534.148 687.597C534.148 687.026 534.318 686.642 534.657 686.446C535.01 686.243 535.434 686.284 535.929 686.569V672.982L523.379 665.731C522.899 665.453 522.482 665.008 522.128 664.396C521.775 663.784 521.598 663.2 521.598 662.645V651.971C521.598 651.416 521.775 651.037 522.128 650.833C522.482 650.629 522.899 650.666 523.379 650.943L537.709 659.223C538.19 659.501 538.607 659.945 538.96 660.558C539.313 661.17 539.49 661.753 539.49 662.308V690.684C539.49 691.255 539.313 691.642 538.96 691.846C538.621 692.042 538.204 691.997 537.709 691.711ZM535.971 668.844V662.381L525.16 656.134V662.598L535.971 668.844ZM549.453 694.433L554.923 697.593V673.33L549.538 670.219C549.043 669.934 548.62 669.493 548.266 668.897C547.927 668.293 547.757 667.705 547.757 667.134C547.757 666.563 547.927 666.179 548.266 665.984C548.62 665.78 549.043 665.821 549.538 666.106L558.484 671.275V699.65L562.045 701.708V693.139C562.045 692.584 562.215 692.201 562.554 691.988C562.907 691.785 563.331 691.826 563.826 692.111C564.321 692.397 564.737 692.842 565.077 693.446C565.43 694.042 565.607 694.625 565.607 695.197V705.822C565.607 706.393 565.43 706.781 565.077 706.985C564.737 707.181 564.321 707.136 563.826 706.85L549.453 698.546C548.959 698.26 548.535 697.811 548.181 697.199C547.842 696.578 547.673 695.983 547.673 695.411C547.673 694.856 547.842 694.481 548.181 694.285C548.535 694.098 548.959 694.147 549.453 694.433Z" fill="#2D2C2D"/>
<path d="M135.114 183.272V153.069L140.794 156.351V180.962L153.984 188.583V194.174L135.114 183.272ZM163.66 200.293C161.627 199.119 160.014 197.541 158.819 195.559C157.625 193.577 157.027 191.148 157.027 188.272V172.774L162.326 175.836V190.321C162.326 191.084 162.402 191.774 162.555 192.39C162.707 192.977 162.923 193.513 163.203 193.997C163.508 194.496 163.877 194.944 164.309 195.341C164.741 195.737 165.223 196.089 165.757 196.398C166.545 196.853 167.257 197.044 167.892 196.971C168.527 196.897 169.023 196.582 169.379 196.025C169.735 195.438 169.912 194.66 169.912 193.691V180.219L175.211 183.281V206.439L170.865 203.928L170.484 200.538L170.217 200.384C169.735 200.838 169.163 201.154 168.502 201.33C167.867 201.52 167.142 201.527 166.329 201.351C165.516 201.204 164.626 200.851 163.66 200.293ZM180.075 209.249V186.091L184.459 188.624L184.879 192.036L185.145 192.19C185.603 191.691 186.149 191.347 186.785 191.156C187.445 190.98 188.182 190.98 188.996 191.157C189.809 191.333 190.698 191.7 191.664 192.258C192.986 193.022 194.142 193.969 195.133 195.099C196.124 196.229 196.887 197.551 197.421 199.062C197.98 200.589 198.259 202.321 198.259 204.258V219.755L192.96 216.694V202.165C192.96 201.431 192.884 200.771 192.732 200.184C192.579 199.567 192.35 199.009 192.045 198.51C191.766 197.997 191.41 197.541 190.978 197.145C190.546 196.749 190.063 196.396 189.529 196.088C188.742 195.633 188.03 195.442 187.395 195.515C186.759 195.588 186.264 195.903 185.908 196.461C185.552 197.019 185.374 197.796 185.374 198.794V212.311L180.075 209.249ZM212.119 228.292C209.908 227.014 208.053 225.517 206.553 223.799C205.054 222.052 203.923 220.063 203.16 217.832C202.398 215.601 202.017 213.106 202.017 210.347C202.017 207.559 202.398 205.504 203.16 204.184C203.923 202.834 205.041 202.159 206.515 202.16C208.014 202.145 209.844 202.762 212.004 204.01C214.038 205.185 215.753 206.602 217.151 208.261C218.549 209.89 219.603 211.791 220.315 213.963C221.027 216.106 221.382 218.557 221.382 221.316V222.901L207.392 214.818C207.443 216.197 207.62 217.445 207.925 218.56C208.256 219.69 208.751 220.681 209.412 221.532C210.098 222.369 211.001 223.111 212.119 223.757C212.729 224.109 213.275 224.337 213.758 224.44C214.266 224.557 214.698 224.543 215.054 224.396C215.41 224.249 215.69 223.971 215.893 223.56C216.096 223.149 216.198 222.606 216.198 221.931L221.382 224.926C221.382 226.394 221.154 227.539 220.696 228.36C220.239 229.182 219.603 229.725 218.79 229.989C217.977 230.223 216.998 230.201 215.855 229.922C214.737 229.628 213.491 229.084 212.119 228.292ZM207.468 210.987L215.931 215.877C215.931 214.997 215.829 214.175 215.626 213.411C215.448 212.663 215.194 211.988 214.864 211.386C214.533 210.784 214.127 210.256 213.644 209.801C213.186 209.331 212.665 208.927 212.081 208.589C211.115 208.031 210.302 207.752 209.641 207.752C209.006 207.737 208.51 208.008 208.154 208.566C207.824 209.109 207.595 209.916 207.468 210.987ZM222.987 234.043L230.269 226.23L223.521 211.193L229.887 214.871L233.7 224.03L233.89 224.14L237.741 219.408L243.726 222.867L236.94 230.041L244.107 246.245L237.855 242.633L233.509 232.241L233.318 232.131L228.973 237.501L222.987 234.043Z" fill="white"/>
<path fill-rule="evenodd" clip-rule="evenodd" d="M85.2551 108.47C70.846 100.145 59.1652 106.886 59.1652 123.527C59.1652 140.169 70.846 160.408 85.2551 168.733V155.037C85.255 155.037 85.2549 155.037 85.2548 155.037C77.3952 150.496 71.0238 139.456 71.0238 130.379C71.0238 121.302 77.3952 117.625 85.2548 122.166C85.2549 122.166 85.255 122.166 85.2551 122.166V108.47ZM99.4861 172.083C106.626 170.832 111.345 164.254 111.345 153.676C111.345 143.098 106.626 131.067 99.4861 121.565V172.083Z" fill="white"/>
<path d="M85.2552 155.037C87.124 156.117 88.9745 156.761 90.7011 156.933C92.4277 157.105 93.9965 156.8 95.3179 156.038C96.6394 155.275 97.6876 154.069 98.4028 152.488C99.118 150.907 99.4861 148.983 99.4861 146.824C99.4861 144.666 99.118 142.316 98.4028 139.909C97.6876 137.502 96.6394 135.084 95.3179 132.794C93.9965 130.505 92.4277 128.388 90.7011 126.564C88.9745 124.741 87.124 123.246 85.2551 122.166L85.2552 138.602L85.2552 155.037Z" fill="white"/>
<mask id="path-11-inside-1_627_573" fill="white">
<path fill-rule="evenodd" clip-rule="evenodd" d="M488.144 323.638C404.854 275.516 337.335 314.484 337.335 410.676C337.335 506.869 404.854 623.86 488.144 671.983V592.816C488.144 592.816 488.143 592.816 488.143 592.815C442.712 566.567 405.883 502.753 405.883 450.285C405.883 397.816 442.712 376.561 488.143 402.809C488.143 402.81 488.144 402.81 488.144 402.81V323.638ZM570.404 691.344C611.674 684.112 638.954 646.089 638.954 584.945C638.954 523.802 611.674 454.255 570.404 399.333V691.344Z"/>
</mask>
<path d="M488.144 323.638L489.876 324.639V322.639L488.144 321.638V323.638ZM488.144 671.983V673.983L489.876 674.983V672.983L488.144 671.983ZM488.144 592.816L489.876 593.816V591.816L488.144 590.816V592.816ZM488.144 402.81V404.81L489.876 405.81V403.81L488.144 402.81ZM570.404 691.344L568.672 690.343V694.035L571.35 693.566L570.404 691.344ZM570.404 399.333L571.35 398.204L568.672 394.641V398.333L570.404 399.333ZM488.144 321.638C403.898 272.963 335.603 312.379 335.603 409.676L339.067 411.677C339.067 316.589 405.811 278.068 488.144 325.638V321.638ZM335.603 409.676C335.603 506.973 403.898 625.307 488.144 673.983V669.983C405.811 622.412 339.067 506.765 339.067 411.677L335.603 409.676ZM489.876 672.983V593.816L486.412 591.815V670.982L489.876 672.983ZM488.143 594.815C488.143 594.815 488.143 594.815 488.143 594.815C488.143 594.815 488.143 594.815 488.143 594.815L488.143 594.815C488.143 594.815 488.143 594.815 488.143 594.815C488.143 594.815 488.143 594.815 488.143 594.815C488.143 594.815 488.143 594.815 488.143 594.815C488.143 594.815 488.143 594.815 488.143 594.816C488.143 594.816 488.143 594.816 488.143 594.816C488.143 594.816 488.143 594.816 488.143 594.816C488.143 594.816 488.143 594.816 488.143 594.816C488.143 594.816 488.143 594.816 488.143 594.816C488.143 594.816 488.143 594.816 488.143 594.816L488.143 594.816C488.143 594.816 488.143 594.816 488.143 594.816L488.143 594.816C488.143 594.816 488.143 594.816 488.143 594.816C488.143 594.816 488.143 594.816 488.143 594.816L488.143 594.816C488.143 594.816 488.143 594.816 488.144 594.816C488.144 594.816 488.144 594.816 488.144 594.816L488.144 594.816C488.144 594.816 488.144 594.816 488.144 594.816C488.144 594.816 488.144 594.816 488.144 594.816L488.144 594.816C488.144 594.816 488.144 594.816 488.144 594.816L488.144 594.816C488.144 594.816 488.144 594.816 488.144 594.816C488.144 594.816 488.144 594.816 488.144 594.816L488.144 594.816C488.144 594.816 488.144 594.816 488.144 594.816C488.144 594.816 488.144 594.816 488.144 594.816L488.144 594.816C488.144 594.816 488.144 594.816 488.144 594.816C488.144 594.816 488.144 594.816 488.144 594.816L488.144 594.816C488.144 594.816 488.144 594.816 488.144 594.816L488.144 594.816C488.144 594.816 488.144 594.816 488.144 594.816C488.144 594.816 488.144 594.816 488.144 594.816C488.144 594.816 488.144 594.816 488.144 594.816C488.144 594.816 488.144 594.816 488.144 594.816C488.144 594.816 488.144 594.816 488.144 594.816C488.144 594.816 488.144 594.816 488.144 594.816C488.144 594.816 488.144 594.816 488.144 594.816C488.144 594.816 488.144 594.816 488.144 594.816C488.144 594.816 488.144 594.816 488.144 594.816L488.144 594.816C488.144 594.816 488.144 594.816 488.144 594.816C488.144 594.816 488.144 594.816 488.144 594.816V590.816C488.144 590.816 488.144 590.816 488.144 590.816C488.144 590.816 488.144 590.816 488.144 590.816L488.144 590.816C488.144 590.816 488.144 590.816 488.144 590.816C488.144 590.816 488.144 590.816 488.144 590.816C488.144 590.816 488.144 590.816 488.144 590.816C488.144 590.816 488.144 590.816 488.144 590.816C488.144 590.816 488.144 590.816 488.144 590.816C488.144 590.816 488.144 590.816 488.144 590.816C488.144 590.816 488.144 590.816 488.144 590.816C488.144 590.816 488.144 590.816 488.144 590.816C488.144 590.816 488.144 590.816 488.144 590.816L488.144 590.816C488.144 590.816 488.144 590.816 488.144 590.816L488.144 590.816C488.144 590.816 488.144 590.816 488.144 590.816C488.144 590.816 488.144 590.816 488.144 590.816L488.144 590.816C488.144 590.816 488.144 590.816 488.144 590.816C488.144 590.816 488.144 590.816 488.144 590.816L488.144 590.816C488.144 590.816 488.144 590.816 488.144 590.816C488.144 590.816 488.144 590.816 488.144 590.816L488.144 590.816C488.144 590.816 488.144 590.816 488.144 590.816L488.144 590.816C488.144 590.816 488.144 590.816 488.144 590.816C488.144 590.816 488.144 590.816 488.144 590.816L488.144 590.816C488.144 590.816 488.144 590.816 488.144 590.816C488.143 590.816 488.143 590.816 488.143 590.816L488.143 590.816C488.143 590.816 488.143 590.816 488.143 590.816C488.143 590.816 488.143 590.816 488.143 590.816L488.143 590.816C488.143 590.816 488.143 590.816 488.143 590.816L488.143 590.816C488.143 590.816 488.143 590.816 488.143 590.816C488.143 590.816 488.143 590.816 488.143 590.816C488.143 590.816 488.143 590.816 488.143 590.816C488.143 590.816 488.143 590.816 488.143 590.816C488.143 590.816 488.143 590.816 488.143 590.816C488.143 590.815 488.143 590.815 488.143 590.815C488.143 590.815 488.143 590.815 488.143 590.815C488.143 590.815 488.143 590.815 488.143 590.815C488.143 590.815 488.143 590.815 488.143 590.815L488.143 590.815C488.143 590.815 488.143 590.815 488.143 590.815C488.143 590.815 488.143 590.815 488.143 590.815V594.815ZM404.152 449.284C404.152 502.857 441.756 568.014 488.143 594.815V590.815C443.669 565.119 407.615 502.649 407.615 451.285L404.152 449.284ZM488.143 400.809C441.756 374.008 404.152 395.711 404.152 449.284L407.615 451.285C407.615 399.921 443.669 379.113 488.143 404.809V400.809ZM488.144 400.81C488.144 400.81 488.144 400.81 488.144 400.81C488.144 400.81 488.144 400.81 488.144 400.81L488.144 400.81C488.144 400.81 488.144 400.81 488.144 400.81C488.144 400.81 488.144 400.81 488.144 400.81C488.144 400.81 488.144 400.81 488.144 400.81C488.144 400.81 488.144 400.81 488.144 400.81C488.144 400.81 488.144 400.81 488.144 400.81C488.144 400.81 488.144 400.81 488.144 400.81C488.144 400.81 488.144 400.81 488.144 400.81C488.144 400.81 488.144 400.81 488.144 400.81C488.144 400.81 488.144 400.81 488.144 400.81L488.144 400.81C488.144 400.81 488.144 400.81 488.144 400.81L488.144 400.81C488.144 400.81 488.144 400.81 488.144 400.81C488.144 400.81 488.144 400.81 488.144 400.81L488.144 400.81C488.144 400.81 488.144 400.81 488.144 400.81C488.144 400.81 488.144 400.81 488.144 400.81L488.144 400.81C488.144 400.81 488.144 400.81 488.144 400.81C488.144 400.81 488.144 400.81 488.144 400.81L488.144 400.81C488.144 400.81 488.144 400.81 488.144 400.81L488.144 400.81C488.144 400.81 488.144 400.81 488.144 400.81C488.144 400.81 488.144 400.81 488.144 400.81L488.144 400.81C488.144 400.81 488.144 400.81 488.144 400.81C488.143 400.81 488.143 400.81 488.143 400.81L488.143 400.81C488.143 400.81 488.143 400.81 488.143 400.81C488.143 400.81 488.143 400.81 488.143 400.81L488.143 400.81C488.143 400.81 488.143 400.81 488.143 400.81L488.143 400.81C488.143 400.81 488.143 400.81 488.143 400.81C488.143 400.81 488.143 400.81 488.143 400.81C488.143 400.81 488.143 400.81 488.143 400.809C488.143 400.809 488.143 400.809 488.143 400.809C488.143 400.809 488.143 400.809 488.143 400.809C488.143 400.809 488.143 400.809 488.143 400.809C488.143 400.809 488.143 400.809 488.143 400.809C488.143 400.809 488.143 400.809 488.143 400.809C488.143 400.809 488.143 400.809 488.143 400.809L488.143 400.809C488.143 400.809 488.143 400.809 488.143 400.809C488.143 400.809 488.143 400.809 488.143 400.809V404.809C488.143 404.809 488.143 404.809 488.143 404.809C488.143 404.809 488.143 404.809 488.143 404.809L488.143 404.809C488.143 404.809 488.143 404.809 488.143 404.809C488.143 404.809 488.143 404.809 488.143 404.809C488.143 404.809 488.143 404.809 488.143 404.809C488.143 404.809 488.143 404.809 488.143 404.809C488.143 404.809 488.143 404.809 488.143 404.809C488.143 404.809 488.143 404.809 488.143 404.809C488.143 404.81 488.143 404.81 488.143 404.81C488.143 404.81 488.143 404.81 488.143 404.81C488.143 404.81 488.143 404.81 488.143 404.81L488.143 404.81C488.143 404.81 488.143 404.81 488.143 404.81L488.143 404.81C488.143 404.81 488.143 404.81 488.143 404.81C488.143 404.81 488.143 404.81 488.143 404.81L488.143 404.81C488.143 404.81 488.143 404.81 488.144 404.81C488.144 404.81 488.144 404.81 488.144 404.81L488.144 404.81C488.144 404.81 488.144 404.81 488.144 404.81C488.144 404.81 488.144 404.81 488.144 404.81L488.144 404.81C488.144 404.81 488.144 404.81 488.144 404.81L488.144 404.81C488.144 404.81 488.144 404.81 488.144 404.81C488.144 404.81 488.144 404.81 488.144 404.81L488.144 404.81C488.144 404.81 488.144 404.81 488.144 404.81C488.144 404.81 488.144 404.81 488.144 404.81L488.144 404.81C488.144 404.81 488.144 404.81 488.144 404.81C488.144 404.81 488.144 404.81 488.144 404.81L488.144 404.81C488.144 404.81 488.144 404.81 488.144 404.81L488.144 404.81C488.144 404.81 488.144 404.81 488.144 404.81C488.144 404.81 488.144 404.81 488.144 404.81C488.144 404.81 488.144 404.81 488.144 404.81C488.144 404.81 488.144 404.81 488.144 404.81C488.144 404.81 488.144 404.81 488.144 404.81C488.144 404.81 488.144 404.81 488.144 404.81C488.144 404.81 488.144 404.81 488.144 404.81C488.144 404.81 488.144 404.81 488.144 404.81C488.144 404.81 488.144 404.81 488.144 404.81L488.144 404.81C488.144 404.81 488.144 404.81 488.144 404.81C488.144 404.81 488.144 404.81 488.144 404.81V400.81ZM489.876 403.81V324.639L486.412 322.638V401.809L489.876 403.81ZM571.35 693.566C613.089 686.251 640.686 647.793 640.686 585.946L637.222 583.945C637.222 644.384 610.259 681.972 569.458 689.122L571.35 693.566ZM640.686 585.946C640.686 524.098 613.089 453.751 571.35 398.204L569.458 400.462C610.259 454.759 637.222 523.505 637.222 583.945L640.686 585.946ZM568.672 398.333V690.343L572.135 692.344V400.334L568.672 398.333Z" fill="#2D2C2D" mask="url(#path-11-inside-1_627_573)"/>
<mask id="path-13-inside-2_627_573" fill="white">
<path d="M488.145 592.817C498.947 599.059 509.644 602.782 519.624 603.774C529.604 604.766 538.672 603.007 546.311 598.599C553.949 594.19 560.009 587.218 564.143 578.08C568.277 568.943 570.404 557.818 570.404 545.342C570.404 532.866 568.277 519.283 564.143 505.368C560.009 491.453 553.949 477.479 546.311 464.244C538.672 451.009 529.604 438.772 519.624 428.231C509.644 417.69 498.947 409.053 488.145 402.811L488.145 497.814L488.145 592.817Z"/>
</mask>
<path d="M488.145 592.817C498.947 599.059 509.644 602.782 519.624 603.774C529.604 604.766 538.672 603.007 546.311 598.599C553.949 594.19 560.009 587.218 564.143 578.08C568.277 568.943 570.404 557.818 570.404 545.342C570.404 532.866 568.277 519.283 564.143 505.368C560.009 491.453 553.949 477.479 546.311 464.244C538.672 451.009 529.604 438.772 519.624 428.231C509.644 417.69 498.947 409.053 488.145 402.811L488.145 497.814L488.145 592.817Z" stroke="#2D2C2D" stroke-width="4" mask="url(#path-13-inside-2_627_573)"/>
<g clip-path="url(#clip0_627_573)">
<path d="M71.2843 273.046V240.871C71.2843 237.654 73.835 236.495 76.9525 238.297L119.464 262.859C122.581 264.66 125.132 268.766 125.132 271.983V304.157C125.132 307.375 122.581 308.534 119.464 306.732L76.9525 282.17C73.835 280.369 71.2843 276.263 71.2843 273.046Z" fill="#936523"/>
<path d="M125.132 283.683V280.758L108.127 270.933C106.569 270.033 105.293 267.979 105.293 266.371C105.293 264.762 106.569 264.183 108.127 265.083L109.544 265.902V262.977L108.127 262.158C105.01 260.357 102.459 261.516 102.459 264.733C102.459 267.951 105.01 272.057 108.127 273.858L112.378 276.314V285.089L108.127 282.633C104.16 280.34 101.042 281.757 101.042 285.851C101.042 289.946 104.16 294.965 108.127 297.257L110.961 298.895V295.97L108.127 294.333C105.718 292.941 103.876 289.975 103.876 287.489C103.876 285.003 105.718 284.166 108.127 285.558L125.132 295.383V292.458L115.213 286.727V277.952L125.132 283.683ZM88.2888 271.171L84.0377 268.714V259.94L88.2888 262.396C91.4063 264.197 93.9569 263.038 93.9569 259.821C93.9569 256.604 91.4063 252.497 88.2888 250.696L84.0377 248.24V251.165L88.2888 253.621C89.8475 254.522 91.1229 256.575 91.1229 258.183C91.1229 259.792 89.8475 260.372 88.2888 259.471L71.2843 249.646V252.571L81.2036 258.302V267.077L71.2843 261.346V264.271L88.2888 274.095C90.6978 275.487 92.5399 278.453 92.5399 280.939C92.5399 283.425 90.6978 284.262 88.2888 282.87L85.4547 281.233V284.158L88.2888 285.795C92.2565 288.088 95.374 286.671 95.374 282.577C95.374 278.482 92.2565 273.463 88.2888 271.171Z" fill="black"/>
</g>
</g>
<defs>
<clipPath id="clip0_627_573">
<rect width="78.5549" height="70.198" fill="white" transform="matrix(0.865865 0.500278 0 1 64.1992 217.766)"/>
</clipPath>
</defs>
</svg>
