<svg width="317" height="659" viewBox="0 0 317 659" fill="none" xmlns="http://www.w3.org/2000/svg">
<rect x="1.08088" y="0.580882" width="314.838" height="657.559" rx="34.2721" fill="black" stroke="#34FCB4" stroke-width="1.16176"/>
<mask id="path-2-inside-1_555_10446" fill="white">
<path fill-rule="evenodd" clip-rule="evenodd" d="M105.059 14.5221C105.059 10.3516 101.678 6.9707 97.5074 6.9707H37.6764C21.6358 6.9707 8.63232 19.9742 8.63232 36.0148V622.706C8.63232 638.747 21.6358 651.75 37.6765 651.75H279.323C295.364 651.75 308.368 638.747 308.368 622.706V36.0148C308.368 19.9742 295.364 6.9707 279.323 6.9707H235.757C231.587 6.9707 228.206 10.3516 228.206 14.5221C228.206 18.6926 224.825 22.0735 220.654 22.0735H112.61C108.44 22.0735 105.059 18.6926 105.059 14.5221Z"/>
</mask>
<path d="M37.6764 8.13247H97.5074V5.80894H37.6764V8.13247ZM9.79409 622.706V36.0148H7.47056V622.706H9.79409ZM279.323 650.588H37.6765V652.912H279.323V650.588ZM307.206 36.0148V622.706H309.529V36.0148H307.206ZM235.757 8.13247H279.323V5.80894H235.757V8.13247ZM220.654 20.9118H112.61V23.2353H220.654V20.9118ZM112.61 20.9118C109.081 20.9118 106.221 18.051 106.221 14.5221H103.897C103.897 19.3343 107.798 23.2353 112.61 23.2353V20.9118ZM227.044 14.5221C227.044 18.051 224.183 20.9118 220.654 20.9118V23.2353C225.467 23.2353 229.368 19.3343 229.368 14.5221H227.044ZM235.757 5.80894C230.945 5.80894 227.044 9.70996 227.044 14.5221H229.368C229.368 10.9932 232.228 8.13247 235.757 8.13247V5.80894ZM309.529 36.0148C309.529 19.3326 296.006 5.80894 279.323 5.80894V8.13247C294.722 8.13247 307.206 20.6158 307.206 36.0148H309.529ZM279.323 652.912C296.006 652.912 309.529 639.388 309.529 622.706H307.206C307.206 638.105 294.723 650.588 279.323 650.588V652.912ZM7.47056 622.706C7.47056 639.388 20.9942 652.912 37.6765 652.912V650.588C22.2775 650.588 9.79409 638.105 9.79409 622.706H7.47056ZM97.5074 8.13247C101.036 8.13247 103.897 10.9932 103.897 14.5221H106.221C106.221 9.70996 102.32 5.80894 97.5074 5.80894V8.13247ZM37.6764 5.80894C20.9942 5.80894 7.47056 19.3326 7.47056 36.0148H9.79409C9.79409 20.6158 22.2774 8.13247 37.6764 8.13247V5.80894Z" fill="#34FCB4" mask="url(#path-2-inside-1_555_10446)"/>
<circle cx="165.471" cy="10.4558" r="5.22794" stroke="#34FCB4" stroke-width="1.16176"/>
</svg>
