<svg width="1920" height="503" viewBox="0 0 1920 503" fill="none" xmlns="http://www.w3.org/2000/svg">
<path d="M1920.5 134.584L1917.72 132.664C1813.02 60.4499 1669.22 90.2875 1601.9 198.195L1556.7 270.652C1482.88 388.977 1317.91 407.305 1219.92 308.07V308.07C1148.03 235.272 1033.7 223.718 947.807 279.297V279.297C854.098 339.933 728.454 321.533 657.518 235.357L609.744 177.319C535.141 86.6868 396.255 87.0111 322.075 177.991V177.991C239.893 278.786 82.2741 266.235 17.0779 153.705L6 134.584" stroke="#2D2C2D" stroke-width="82"/>
<path d="M18 134.584L20.7837 132.664C125.481 60.4499 269.276 90.2875 336.598 198.195L381.802 270.652C455.623 388.977 620.586 407.305 718.579 308.07V308.07C790.465 235.272 904.797 223.718 990.693 279.297V279.297C1084.4 339.933 1210.05 321.533 1280.98 235.357L1328.76 177.319C1403.36 86.6868 1542.24 87.0111 1616.42 177.991V177.991C1698.61 278.786 1856.23 266.235 1921.42 153.705L1932.5 134.584" stroke="#2D2C2D"/>
</svg>
