<svg width="19" height="30" viewBox="0 0 19 30" fill="none" xmlns="http://www.w3.org/2000/svg">
<g filter="url(#filter0_d_532_2131)">
<path d="M4.20148 21.8661C5.61271 21.8661 7.01011 21.5881 8.3139 21.0481C9.6177 20.508 10.8024 19.7164 11.8002 18.7186C12.7981 17.7207 13.5897 16.536 14.1297 15.2322C14.6698 13.9284 14.9478 12.531 14.9478 11.1198C14.9478 9.70858 14.6698 8.31118 14.1297 7.00738C13.5897 5.70359 12.7981 4.51893 11.8002 3.52104C10.8024 2.52316 9.6177 1.7316 8.3139 1.19155C7.01011 0.651495 5.61271 0.373535 4.20148 0.373535L4.20149 11.1198L4.20148 21.8661Z" fill="white"/>
</g>
<defs>
<filter id="filter0_d_532_2131" x="0.201538" y="0.373535" width="18.7462" height="29.4927" filterUnits="userSpaceOnUse" color-interpolation-filters="sRGB">
<feFlood flood-opacity="0" result="BackgroundImageFix"/>
<feColorMatrix in="SourceAlpha" type="matrix" values="0 0 0 0 0 0 0 0 0 0 0 0 0 0 0 0 0 0 127 0" result="hardAlpha"/>
<feOffset dy="4"/>
<feGaussianBlur stdDeviation="2"/>
<feComposite in2="hardAlpha" operator="out"/>
<feColorMatrix type="matrix" values="0 0 0 0 0 0 0 0 0 0 0 0 0 0 0 0 0 0 0.25 0"/>
<feBlend mode="normal" in2="BackgroundImageFix" result="effect1_dropShadow_532_2131"/>
<feBlend mode="normal" in="SourceGraphic" in2="effect1_dropShadow_532_2131" result="shape"/>
</filter>
</defs>
</svg>
